{"glyphs":{"0":{"ha":838,"x_min":76,"x_max":761,"o":"m 761 469 q 736 288 761 375 q 666 134 711 201 q 558 26 621 67 q 418 -14 494 -14 q 279 26 342 -14 q 172 134 217 67 q 101 288 126 201 q 76 469 76 375 q 101 649 76 563 q 172 803 126 736 q 279 910 217 869 q 418 950 342 950 q 558 910 494 950 q 666 803 621 869 q 736 649 711 736 q 761 469 761 563 m 418 117 q 513 145 471 117 q 583 222 554 174 q 626 335 611 271 q 642 469 642 399 q 626 603 642 539 q 583 715 611 667 q 513 792 554 764 q 418 821 471 821 q 324 792 365 821 q 255 715 283 764 q 211 603 226 667 q 196 469 196 539 q 211 335 196 399 q 255 222 226 271 q 324 145 283 174 q 418 117 365 117 z "},"1":{"ha":308,"x_min":94,"x_max":214,"o":"m 214 65 q 156 0 214 0 q 94 65 94 0 l 94 869 q 156 938 94 938 q 214 869 214 938 l 214 65 z "},"2":{"ha":597,"x_min":71,"x_max":547,"o":"m 547 63 q 489 0 547 0 l 153 0 q 96 20 113 0 q 79 68 79 40 q 81 91 79 79 q 90 114 83 103 l 354 571 q 396 717 396 643 q 369 792 396 763 q 297 821 342 821 q 230 796 258 821 q 189 726 201 771 q 129 671 175 671 q 88 688 104 671 q 71 738 71 706 q 81 791 71 764 q 104 842 90 818 q 179 920 132 890 q 297 950 226 950 q 387 935 346 950 q 457 890 428 919 q 503 821 486 861 q 519 731 519 781 q 503 614 519 668 q 456 504 488 560 l 238 129 l 489 129 q 547 63 547 129 z "},"3":{"ha":644,"x_min":67,"x_max":585,"o":"m 579 675 q 558 568 579 615 q 486 483 536 521 q 562 392 539 451 q 585 268 585 332 q 568 157 585 208 q 519 67 551 106 q 438 8 486 29 q 328 -14 390 -14 q 193 19 249 -14 q 106 104 138 51 q 67 253 67 168 q 125 318 67 318 q 169 301 153 318 q 186 253 186 285 q 222 156 186 194 q 328 117 257 117 q 431 158 394 117 q 467 269 467 199 q 437 381 467 349 q 336 413 407 413 q 287 428 300 413 q 274 475 274 443 q 288 524 274 507 q 333 540 301 540 q 434 571 406 540 q 463 683 463 601 q 426 788 463 754 q 336 821 389 821 q 278 811 300 821 q 242 783 256 801 q 221 742 228 765 q 208 689 214 718 q 185 647 201 660 q 150 635 169 635 q 104 655 121 635 q 88 701 88 675 q 104 785 88 742 q 149 861 121 828 q 228 926 181 901 q 336 950 276 950 q 435 931 390 950 q 511 876 479 911 q 561 789 543 840 q 579 675 579 738 z "},"4":{"ha":699,"x_min":83,"x_max":646,"o":"m 646 464 q 589 399 646 399 l 585 399 l 585 67 q 526 0 585 0 q 468 67 468 0 l 468 399 l 150 399 q 83 475 83 399 l 83 868 q 143 938 83 938 q 203 868 203 938 l 203 529 l 468 529 l 468 868 q 526 938 468 938 q 585 868 585 938 l 585 529 l 589 529 q 646 464 646 529 z "},"5":{"ha":692,"x_min":83,"x_max":626,"o":"m 607 874 q 546 807 607 807 l 204 807 l 204 557 q 278 597 239 583 q 357 610 318 610 q 481 585 429 610 q 565 517 532 560 q 612 416 597 474 q 626 294 626 358 q 606 176 626 232 q 549 78 586 119 q 461 11 513 36 q 347 -14 410 -14 q 270 -4 306 -14 q 207 22 235 6 q 158 60 179 39 q 121 103 136 81 q 94 156 104 128 q 83 214 83 185 q 143 274 83 274 q 197 229 185 274 q 211 194 203 210 q 232 164 219 179 q 277 128 251 140 q 342 117 303 117 q 461 166 414 117 q 508 296 508 215 q 465 433 508 388 q 347 478 422 478 q 262 455 296 478 q 194 396 228 432 q 149 374 172 374 q 103 395 122 374 q 85 449 85 417 l 85 874 q 142 938 85 938 l 546 938 q 607 874 607 938 z "},"6":{"ha":674,"x_min":69,"x_max":608,"o":"m 608 290 q 589 171 608 226 q 534 74 569 115 q 448 10 499 33 q 335 -14 397 -14 q 228 6 276 -14 q 144 63 179 25 q 89 157 108 100 q 69 289 69 214 q 94 449 69 363 q 163 620 119 535 q 264 784 206 706 q 389 919 322 863 q 413 934 401 931 q 435 938 424 938 q 478 919 461 938 q 494 874 494 901 q 475 825 494 844 q 347 681 400 750 q 253 540 293 613 q 351 565 296 565 q 462 542 414 565 q 542 481 510 519 q 592 393 575 443 q 608 290 608 343 m 489 279 q 481 338 489 310 q 454 388 472 367 q 406 422 436 410 q 333 435 376 435 q 228 394 267 435 q 189 296 189 354 q 228 160 189 204 q 335 117 268 117 q 449 163 410 117 q 489 279 489 208 z "},"7":{"ha":715,"x_min":92,"x_max":658,"o":"m 206 32 q 181 6 194 13 q 154 0 168 0 q 112 17 131 0 q 93 63 93 35 q 94 80 93 71 q 101 97 96 89 l 503 807 l 154 807 q 92 874 92 807 q 154 938 92 938 l 581 938 q 640 914 622 938 q 658 865 658 890 q 650 828 658 842 l 206 32 z "},"8":{"ha":622,"x_min":69,"x_max":553,"o":"m 553 257 q 536 150 553 200 q 488 64 519 100 q 410 7 456 28 q 306 -14 364 -14 q 211 4 254 -14 q 137 54 168 22 q 88 129 106 86 q 69 222 69 172 q 217 521 69 353 q 111 728 111 626 q 126 817 111 776 q 166 888 140 858 q 228 933 192 917 q 310 950 265 950 q 417 920 372 950 q 490 832 461 890 q 509 790 501 808 q 517 751 517 771 q 513 725 517 739 q 497 696 508 711 l 382 540 q 512 399 471 465 q 553 257 553 333 m 394 760 q 353 808 375 794 q 299 821 331 821 q 251 794 271 821 q 231 729 231 767 q 289 618 231 676 l 394 760 m 433 253 q 405 340 433 294 q 308 443 376 385 q 216 317 243 364 q 189 235 189 271 q 223 147 189 176 q 308 118 257 118 q 400 154 367 118 q 433 253 433 190 z "},"9":{"ha":660,"x_min":63,"x_max":576,"o":"m 576 67 q 515 0 576 0 q 457 67 457 0 l 457 451 q 321 403 400 403 q 218 425 265 403 q 136 485 171 447 q 82 572 101 522 q 63 678 63 622 q 82 778 63 729 q 136 865 101 826 q 218 926 171 903 q 322 950 265 950 q 423 930 376 950 q 503 874 469 910 q 557 787 538 838 q 576 674 576 736 l 576 67 m 461 674 q 423 781 461 740 q 322 821 385 821 q 267 809 293 821 q 223 778 242 797 q 193 731 204 758 q 182 674 182 704 q 192 619 182 644 q 222 574 203 593 q 266 542 240 554 q 321 531 292 531 q 376 542 350 531 q 420 574 401 554 q 450 619 439 593 q 461 674 461 644 z "},"\u0017":{"ha":336,"x_min":0,"x_max":0,"o":""}," ":{"ha":336,"x_min":0,"x_max":0,"o":""},"!":{"ha":367,"x_min":94,"x_max":272,"o":"m 242 307 q 182 242 242 242 q 122 307 122 242 l 122 868 q 182 938 122 938 q 242 868 242 938 l 242 307 m 94 93 q 120 163 94 133 q 182 192 146 192 q 245 163 218 192 q 272 93 272 133 q 245 23 272 51 q 182 -6 218 -6 q 120 23 146 -6 q 94 93 94 51 z "},"\"":{"ha":447,"x_min":76,"x_max":385,"o":"m 76 590 m 196 658 q 136 590 196 590 q 76 658 76 590 l 76 867 q 136 938 76 938 q 196 867 196 938 l 196 658 m 385 658 q 325 590 385 590 q 265 658 265 590 l 265 867 q 325 938 265 938 q 385 867 385 938 l 385 658 z "},"#":{"ha":838,"x_min":56,"x_max":782,"o":"m 782 297 q 721 233 782 233 l 636 233 l 636 67 q 576 0 636 0 q 518 67 518 0 l 518 233 l 318 233 l 318 65 q 258 0 318 0 q 201 65 201 0 l 201 233 l 114 233 q 56 297 56 233 q 114 361 56 361 l 201 361 l 201 586 l 114 586 q 56 650 56 586 q 114 714 56 714 l 201 714 l 201 869 q 258 938 201 938 q 318 869 318 938 l 318 714 l 518 714 l 518 868 q 576 938 518 938 q 636 868 636 938 l 636 714 l 721 714 q 782 650 782 714 q 721 586 782 586 l 636 586 l 636 361 l 721 361 q 782 297 782 361 m 518 361 l 518 586 l 318 586 l 318 361 l 518 361 z "},"$":{"ha":644,"x_min":69,"x_max":575,"o":"m 386 928 q 460 890 428 915 q 513 832 493 864 q 526 804 519 821 q 532 771 532 788 q 515 727 532 743 q 476 711 497 711 q 425 749 443 711 q 386 794 410 776 l 386 551 q 455 500 421 528 q 510 447 489 472 q 558 362 540 410 q 575 256 575 314 q 562 170 575 211 q 524 96 549 129 q 465 39 500 63 q 386 6 429 15 l 386 -36 q 336 -92 386 -92 q 286 -36 286 -92 l 286 1 q 135 82 203 15 q 106 121 119 99 q 82 163 92 143 q 73 188 76 174 q 69 214 69 201 q 88 259 69 242 q 126 276 106 276 q 158 266 143 276 q 181 235 174 256 q 221 170 196 199 q 286 131 246 142 l 286 467 q 224 515 256 489 q 168 573 193 542 q 127 641 143 604 q 111 721 111 678 q 160 859 111 800 q 286 932 208 918 l 286 971 q 336 1025 286 1025 q 386 971 386 1025 l 386 928 m 457 258 q 439 335 457 301 q 386 396 421 368 l 386 142 q 439 190 421 158 q 457 258 457 221 m 231 722 q 244 671 231 694 q 286 624 258 647 l 286 804 q 231 722 231 782 z "},"%":{"ha":832,"x_min":69,"x_max":763,"o":"m 394 175 q 409 248 394 214 q 449 308 424 282 q 507 348 474 333 q 578 363 540 363 q 650 348 617 363 q 708 308 683 333 q 748 248 733 282 q 763 175 763 214 q 748 101 763 135 q 708 41 733 67 q 650 1 683 15 q 578 -14 617 -14 q 507 1 540 -14 q 449 41 474 15 q 409 101 424 67 q 394 175 394 135 m 514 175 q 533 131 514 149 q 578 114 551 114 q 624 131 606 114 q 643 175 643 149 q 624 218 643 200 q 578 236 606 236 q 533 218 551 236 q 514 175 514 200 m 219 33 q 169 0 200 0 q 125 21 143 0 q 107 63 107 42 q 118 101 107 82 l 585 903 q 636 938 603 938 q 679 918 661 938 q 697 876 697 899 q 696 858 697 868 q 688 838 694 849 l 219 33 m 69 763 q 84 835 69 801 q 124 895 99 869 q 182 935 149 921 q 254 950 215 950 q 325 935 292 950 q 383 895 358 921 q 423 835 408 869 q 438 763 438 801 q 423 688 438 722 q 383 628 408 654 q 325 588 358 603 q 254 574 292 574 q 182 588 215 574 q 124 628 149 603 q 84 688 99 654 q 69 763 69 722 m 189 763 q 208 719 189 736 q 254 701 226 701 q 299 719 281 701 q 318 763 318 736 q 299 806 318 788 q 254 824 281 824 q 208 806 226 824 q 189 763 189 788 z "},"&":{"ha":793,"x_min":60,"x_max":726,"o":"m 546 125 q 488 58 515 85 q 433 16 460 32 q 378 -7 406 0 q 318 -14 350 -14 q 215 3 263 -14 q 133 54 168 21 q 79 135 99 88 q 60 243 60 182 q 100 388 60 318 q 208 513 140 458 l 263 556 q 208 670 222 622 q 193 758 193 718 q 241 905 193 860 q 376 950 289 950 q 509 897 464 950 q 554 760 554 844 q 519 638 554 693 q 421 531 483 583 l 546 344 q 581 410 565 376 q 608 474 597 444 q 633 511 617 500 q 667 522 649 522 q 708 505 690 522 q 726 456 726 488 q 717 413 726 438 q 696 365 707 389 q 665 305 683 339 q 621 232 646 271 q 665 167 643 199 q 708 103 686 135 q 721 63 721 83 q 701 18 721 36 q 661 0 682 0 q 611 29 629 0 l 546 125 m 317 115 q 393 143 356 115 q 475 233 431 171 q 401 344 435 293 q 326 457 367 394 l 282 422 q 209 343 240 389 q 178 250 178 297 q 214 151 178 188 q 317 115 250 115 m 439 758 q 422 803 439 785 q 372 821 404 821 q 324 801 336 821 q 313 758 313 782 q 322 699 313 729 q 356 629 332 669 q 418 694 397 665 q 439 758 439 722 z "},"'":{"ha":258,"x_min":69,"x_max":189,"o":"m 189 658 q 129 590 189 590 q 69 658 69 590 l 69 867 q 129 938 69 938 q 189 867 189 938 l 189 658 z "},"(":{"ha":457,"x_min":149,"x_max":418,"o":"m 149 453 q 182 744 149 611 q 286 972 215 876 q 324 1013 306 997 q 367 1028 342 1028 q 418 969 418 1028 q 401 918 418 939 q 299 715 331 835 q 268 453 268 594 q 299 191 268 311 q 401 -12 331 71 q 418 -64 418 -33 q 367 -122 418 -122 q 324 -107 342 -122 q 286 -67 306 -92 q 182 162 215 29 q 149 453 149 294 z "},"*":{"ha":643,"x_min":81,"x_max":563,"o":"m 463 668 q 507 688 486 688 q 547 669 531 688 q 563 625 563 650 q 536 569 563 594 l 417 463 l 540 353 q 558 310 558 335 q 541 261 558 283 q 499 239 524 239 q 461 254 479 239 l 381 325 l 381 160 q 321 96 381 96 q 264 160 264 96 l 264 328 l 182 256 q 144 240 164 240 q 100 261 119 240 q 81 308 81 282 q 103 353 81 332 l 226 461 l 104 571 q 83 615 83 589 q 101 663 83 642 q 144 683 119 683 q 163 680 153 683 q 182 668 172 676 l 264 594 l 264 753 q 321 819 264 819 q 381 753 381 819 l 381 596 l 463 668 z "},"+":{"ha":732,"x_min":94,"x_max":638,"o":"m 306 531 l 306 678 q 367 742 306 742 q 426 678 426 742 l 426 531 l 578 531 q 638 467 638 531 q 578 403 638 403 l 426 403 l 426 254 q 365 190 426 190 q 306 254 306 190 l 306 403 l 154 403 q 94 468 94 403 q 154 531 94 531 l 306 531 z "},",":{"ha":314,"x_min":69,"x_max":244,"o":"m 244 110 q 233 35 244 71 q 203 -30 222 -1 q 160 -75 185 -58 q 108 -92 135 -92 q 77 -81 85 -92 q 69 -58 69 -69 q 81 -26 69 -37 q 93 0 93 -14 q 90 31 93 18 q 81 55 86 43 q 73 79 76 67 q 69 111 69 92 q 94 188 69 163 q 157 214 118 214 q 219 185 194 214 q 244 110 244 156 z "},"-":{"ha":478,"x_min":32,"x_max":446,"o":"m 386 531 q 446 467 446 531 q 386 403 446 403 l 92 403 q 32 468 32 403 q 92 531 32 531 l 386 531 z "},".":{"ha":317,"x_min":69,"x_max":247,"o":"m 69 93 q 96 163 69 133 q 158 192 122 192 q 221 163 194 192 q 247 93 247 133 q 221 23 247 51 q 158 -6 194 -6 q 96 23 122 -6 q 69 93 69 51 z "},"/":{"ha":613,"x_min":11,"x_max":601,"o":"m 124 33 q 74 0 103 0 q 29 21 47 0 q 11 63 11 42 q 13 81 11 72 q 22 101 15 90 l 21 99 l 489 903 q 540 938 507 938 q 583 918 565 938 q 601 876 601 899 q 590 838 601 860 l 124 33 z "},":":{"ha":367,"x_min":94,"x_max":272,"o":"m 94 469 q 120 539 94 510 q 182 568 146 568 q 245 539 218 568 q 272 469 272 510 q 245 399 272 428 q 182 371 218 371 q 120 399 146 371 q 94 469 94 428 m 94 132 q 120 201 94 172 q 182 231 146 231 q 245 201 218 231 q 272 132 272 172 q 245 62 272 90 q 182 33 218 33 q 120 62 146 33 q 94 132 94 90 z "},";":{"ha":367,"x_min":94,"x_max":272,"o":"m 94 469 q 120 539 94 510 q 182 568 146 568 q 245 539 218 568 q 272 469 272 510 q 245 399 272 428 q 182 371 218 371 q 120 399 146 371 q 94 469 94 428 m 271 149 q 260 74 271 110 q 230 9 249 38 q 186 -36 211 -19 q 135 -53 161 -53 q 103 -42 111 -53 q 96 -19 96 -31 q 108 13 96 1 q 119 39 119 25 q 116 69 119 57 q 108 94 113 82 q 99 118 103 106 q 96 150 96 131 q 120 227 96 201 q 183 253 144 253 q 246 224 221 253 q 271 149 271 194 z "},"<":{"ha":732,"x_min":94,"x_max":638,"o":"m 596 364 q 638 308 638 349 q 619 258 638 276 q 581 240 601 240 q 553 246 564 240 l 140 400 q 106 428 117 410 q 94 468 94 446 q 106 510 94 492 q 140 536 117 528 l 553 689 q 581 694 564 694 q 619 676 601 694 q 638 628 638 658 q 596 571 638 585 l 311 468 l 596 364 z "},"=":{"ha":732,"x_min":94,"x_max":638,"o":"m 578 649 q 638 583 638 649 q 578 519 638 519 l 154 519 q 94 585 94 519 q 154 649 94 649 l 578 649 m 578 414 q 638 350 638 414 q 578 286 638 286 l 154 286 q 94 351 94 286 q 154 414 94 414 l 578 414 z "},">":{"ha":732,"x_min":94,"x_max":638,"o":"m 421 468 l 136 571 q 94 628 94 585 q 113 676 94 658 q 151 694 131 694 q 179 689 168 694 l 592 536 q 626 510 615 528 q 638 468 638 492 q 626 428 638 446 q 592 400 615 410 l 179 246 q 151 240 168 240 q 113 258 131 240 q 94 308 94 276 q 136 364 94 349 l 421 468 z "},"?":{"ha":593,"x_min":60,"x_max":550,"o":"m 550 717 q 537 613 550 658 q 489 531 524 568 q 435 478 465 503 q 383 425 404 453 q 347 304 347 378 q 286 236 347 236 q 226 303 226 236 q 240 410 226 365 q 282 493 254 454 q 331 546 301 521 q 383 596 360 571 q 419 649 408 622 q 431 708 431 676 q 395 791 431 761 q 293 821 360 821 q 218 806 244 821 q 172 763 192 790 q 147 738 160 744 q 119 731 135 731 q 60 790 60 731 q 126 900 60 847 q 199 937 157 924 q 286 950 240 950 q 483 886 417 950 q 550 717 550 822 m 197 93 q 224 163 197 133 q 286 192 250 192 q 349 163 322 192 q 375 93 375 133 q 349 23 375 51 q 286 -6 322 -6 q 224 23 250 -6 q 197 93 197 51 z "},"@":{"ha":1060,"x_min":69,"x_max":990,"o":"m 990 322 q 973 191 990 250 q 924 90 956 132 q 851 26 893 49 q 757 3 808 3 q 674 26 703 3 q 636 89 646 49 q 579 54 611 67 q 510 42 547 42 q 428 58 467 42 q 361 106 390 75 q 315 184 332 138 q 299 292 299 231 q 315 389 299 343 q 360 469 331 435 q 432 522 390 503 q 525 542 474 542 q 635 500 590 542 q 685 540 643 540 q 739 481 739 540 l 739 147 q 746 132 739 136 q 763 128 753 128 q 803 140 783 128 q 838 176 822 151 q 864 237 854 200 q 874 324 874 274 q 792 581 874 496 q 557 665 711 665 q 417 639 483 665 q 299 563 350 613 q 217 440 247 513 q 186 276 186 368 q 210 125 186 194 q 281 4 235 56 q 397 -76 328 -47 q 556 -104 465 -104 q 605 -124 590 -104 q 619 -169 619 -143 q 605 -218 619 -201 q 554 -235 590 -235 q 362 -202 450 -235 q 208 -104 274 -169 q 106 59 143 -39 q 69 286 69 157 q 109 495 69 401 q 215 656 149 589 q 370 758 282 722 q 554 794 458 794 q 730 760 650 794 q 867 665 810 726 q 958 515 925 603 q 990 322 990 428 m 631 293 q 623 341 631 318 q 601 381 615 364 q 567 410 588 399 q 522 421 547 421 q 440 386 471 421 q 410 293 410 351 q 440 198 410 231 q 522 165 471 165 q 602 203 574 165 q 631 293 631 240 z "},"A":{"ha":796,"x_min":32,"x_max":764,"o":"m 147 44 q 96 0 131 0 q 49 19 67 0 q 32 60 32 38 q 38 90 32 79 l 333 889 q 360 926 343 914 q 397 938 378 938 q 435 925 418 938 q 463 888 453 913 l 757 90 q 764 60 764 72 q 746 19 764 38 q 700 0 728 0 q 647 44 664 0 l 547 311 l 249 311 l 147 44 m 296 439 l 500 439 l 397 710 l 296 439 z "},"B":{"ha":813,"x_min":94,"x_max":771,"o":"m 771 264 q 756 168 771 215 q 709 83 740 121 q 631 23 678 46 q 522 0 585 0 l 153 0 q 94 64 94 0 l 94 874 q 153 938 94 938 l 497 938 q 616 916 565 938 q 700 858 667 894 q 750 774 733 822 q 767 669 767 725 q 744 550 767 597 q 671 472 721 503 q 771 264 771 415 m 647 669 q 610 767 646 728 q 496 807 575 807 l 214 807 l 214 535 l 538 535 q 578 545 558 535 q 613 574 597 556 q 638 617 629 593 q 647 669 647 642 m 651 264 q 619 366 651 326 q 519 406 586 406 l 214 406 l 214 129 l 519 129 q 579 141 554 129 q 620 172 604 153 q 644 216 636 192 q 651 264 651 240 z "},"C":{"ha":854,"x_min":69,"x_max":790,"o":"m 69 472 q 99 660 69 572 q 181 812 128 747 q 309 913 233 876 q 479 950 385 950 q 588 935 538 950 q 682 894 638 921 q 732 858 708 879 q 778 810 756 836 q 790 772 790 794 q 772 726 790 746 q 729 707 754 707 q 689 725 707 707 q 597 795 647 769 q 479 821 546 821 q 356 794 410 821 q 265 720 303 767 q 208 610 228 674 q 189 472 189 546 q 208 333 189 397 q 265 220 228 268 q 356 144 303 172 q 479 117 410 117 q 689 214 604 117 q 710 230 699 225 q 729 235 721 235 q 772 216 753 235 q 790 169 790 197 q 788 148 790 160 q 778 128 785 136 q 739 85 760 104 q 696 51 718 67 q 479 -14 603 -14 q 309 24 385 -14 q 181 128 233 63 q 99 283 128 194 q 69 472 69 371 z "},"D":{"ha":863,"x_min":94,"x_max":793,"o":"m 793 468 q 760 285 793 369 q 669 136 728 200 q 531 36 611 72 q 357 0 451 0 l 154 0 q 94 63 94 0 l 94 874 q 154 938 94 938 l 353 938 q 529 901 449 938 q 669 801 610 865 q 760 652 728 738 q 793 468 793 567 m 678 465 q 653 594 678 532 q 585 703 629 656 q 482 778 542 750 q 353 807 422 807 l 214 807 l 214 129 l 357 129 q 482 156 424 129 q 584 230 540 183 q 653 338 628 276 q 678 465 678 399 z "},"E":{"ha":668,"x_min":94,"x_max":603,"o":"m 603 64 q 544 0 603 0 l 154 0 q 94 63 94 0 l 94 874 q 154 938 94 938 l 544 938 q 603 874 603 938 q 544 807 603 807 l 214 807 l 214 531 l 464 531 q 524 467 524 531 q 464 403 524 403 l 214 403 l 214 129 l 544 129 q 603 64 603 129 z "},"F":{"ha":644,"x_min":94,"x_max":603,"o":"m 603 874 q 544 807 603 807 l 214 807 l 214 531 l 463 531 q 524 467 524 531 q 463 401 524 401 l 214 401 l 214 65 q 154 0 214 0 q 94 65 94 0 l 94 874 q 153 938 94 938 l 544 938 q 603 874 603 938 z "},"G":{"ha":979,"x_min":69,"x_max":913,"o":"m 853 531 q 913 467 913 531 q 883 281 913 368 q 798 128 853 194 q 665 24 743 63 q 493 -14 588 -14 q 321 24 399 -14 q 188 128 243 63 q 101 283 132 194 q 69 472 69 371 q 101 660 69 572 q 190 812 133 747 q 324 913 246 876 q 496 950 403 950 q 610 936 554 950 q 711 894 667 922 q 789 835 758 865 q 819 772 819 804 q 801 726 819 746 q 758 707 783 707 q 715 728 736 707 q 619 795 676 769 q 496 821 563 821 q 370 794 426 821 q 274 720 314 767 q 211 610 233 674 q 189 472 189 546 q 210 333 189 397 q 272 220 232 268 q 367 144 311 172 q 493 117 424 117 q 605 138 554 117 q 694 197 656 160 q 756 288 732 235 q 789 403 781 340 l 432 403 q 372 468 372 403 q 432 531 372 531 l 853 531 z "},"H":{"ha":806,"x_min":94,"x_max":711,"o":"m 711 65 q 651 0 711 0 q 592 65 592 0 l 592 403 l 214 403 l 214 65 q 156 0 214 0 q 94 65 94 0 l 94 869 q 156 938 94 938 q 214 869 214 938 l 214 531 l 592 531 l 592 869 q 651 938 592 938 q 711 869 711 938 l 711 65 z "},"I":{"ha":436,"x_min":83,"x_max":353,"o":"m 278 807 l 278 129 l 294 129 q 353 63 353 129 q 294 0 353 0 l 143 0 q 83 63 83 0 q 143 129 83 129 l 158 129 l 158 807 l 143 807 q 83 874 83 807 q 143 938 83 938 l 294 938 q 353 874 353 938 q 294 807 353 807 l 278 807 z "},"J":{"ha":743,"x_min":40,"x_max":660,"o":"m 660 336 q 635 191 660 256 q 566 81 610 126 q 463 10 522 35 q 333 -14 403 -14 q 238 2 285 -14 q 151 44 192 18 q 99 91 122 64 q 56 149 75 118 q 44 174 49 160 q 40 199 40 189 q 58 247 40 231 q 100 263 76 263 q 137 252 124 263 q 164 218 150 242 q 238 138 194 160 q 335 117 282 117 q 486 178 432 117 q 540 336 540 240 l 540 871 q 600 938 540 938 q 660 871 660 938 l 660 336 z "},"K":{"ha":726,"x_min":94,"x_max":676,"o":"m 214 65 q 156 0 214 0 q 94 65 94 0 l 94 869 q 156 938 94 938 q 214 869 214 938 l 214 599 l 569 921 q 590 934 579 931 q 610 938 600 938 q 656 917 636 938 q 676 871 676 896 q 653 826 676 847 l 258 478 l 651 115 q 672 68 672 96 q 654 21 672 42 q 613 0 636 0 q 572 18 590 0 l 214 354 l 214 65 z "},"L":{"ha":636,"x_min":94,"x_max":603,"o":"m 603 64 q 544 0 603 0 l 153 0 q 94 63 94 0 l 94 869 q 156 938 94 938 q 214 869 214 938 l 214 129 l 544 129 q 603 64 603 129 z "},"M":{"ha":1097,"x_min":94,"x_max":1003,"o":"m 549 190 l 875 892 q 939 938 896 938 q 1003 865 1003 938 l 1003 65 q 943 0 1003 0 q 883 65 883 0 l 883 628 l 613 46 q 549 0 589 0 q 510 11 525 0 q 485 46 496 22 l 214 628 l 214 65 q 154 0 214 0 q 94 65 94 0 l 94 865 q 158 938 94 938 q 221 892 200 938 l 549 190 z "},"N":{"ha":811,"x_min":94,"x_max":717,"o":"m 651 0 q 616 10 635 0 q 586 40 597 21 l 214 683 l 214 67 q 154 0 214 0 q 94 67 94 0 l 94 860 q 114 918 94 899 q 161 938 133 938 q 199 926 185 938 q 225 896 214 915 l 597 254 l 597 869 q 657 938 597 938 q 717 869 717 938 l 717 78 q 697 19 717 38 q 651 0 678 0 z "},"O":{"ha":958,"x_min":69,"x_max":889,"o":"m 69 472 q 99 660 69 572 q 181 812 128 747 q 309 913 233 876 q 479 950 385 950 q 649 913 572 950 q 778 812 725 876 q 860 660 831 747 q 889 472 889 572 q 860 283 889 371 q 778 128 831 194 q 649 24 725 63 q 479 -14 572 -14 q 309 24 385 -14 q 181 128 233 63 q 99 283 128 194 q 69 472 69 371 m 769 472 q 750 610 769 546 q 693 720 731 674 q 601 794 656 767 q 479 821 547 821 q 356 794 410 821 q 265 720 303 767 q 208 610 228 674 q 189 472 189 546 q 208 333 189 397 q 265 220 228 268 q 356 144 303 172 q 479 117 410 117 q 601 144 547 117 q 693 220 656 172 q 750 333 731 268 q 769 472 769 397 z "},"P":{"ha":792,"x_min":94,"x_max":757,"o":"m 757 672 q 740 567 757 617 q 692 481 724 518 q 613 423 660 444 q 503 401 565 401 l 214 401 l 214 65 q 154 0 214 0 q 94 65 94 0 l 94 874 q 154 938 94 938 l 507 938 q 614 917 567 938 q 692 861 661 897 q 740 776 724 825 q 757 672 757 728 m 638 669 q 601 768 638 729 q 507 807 565 807 l 214 807 l 214 531 l 503 531 q 601 570 565 531 q 638 669 638 610 z "},"Q":{"ha":971,"x_min":69,"x_max":921,"o":"m 69 472 q 99 660 69 572 q 184 812 129 747 q 315 913 239 876 q 486 950 392 950 q 656 913 579 950 q 788 812 733 876 q 873 660 843 747 q 903 472 903 572 q 829 186 903 310 l 901 111 q 921 64 921 89 q 903 20 921 40 q 863 0 886 0 q 818 22 840 0 l 751 90 q 632 14 699 42 q 486 -14 565 -14 q 315 24 392 -14 q 184 128 239 63 q 99 283 129 194 q 69 472 69 371 m 739 278 q 783 472 783 364 q 763 610 783 546 q 704 720 743 674 q 610 794 665 767 q 486 821 556 821 q 362 794 417 821 q 268 720 307 767 q 209 610 229 674 q 189 472 189 546 q 209 333 189 397 q 268 220 229 268 q 362 144 307 172 q 486 117 417 117 q 665 179 594 117 l 597 250 q 579 294 579 268 q 597 339 579 319 q 639 358 614 358 q 683 338 663 358 l 739 278 z "},"R":{"ha":815,"x_min":94,"x_max":764,"o":"m 761 672 q 744 570 761 618 q 696 486 728 522 q 618 428 664 450 q 514 401 572 406 l 751 103 q 764 63 764 83 q 746 18 764 36 q 704 0 728 0 q 656 25 678 0 l 365 401 l 214 401 l 214 65 q 154 0 214 0 q 94 65 94 0 l 94 874 q 154 938 94 938 l 511 938 q 618 917 571 938 q 697 861 665 897 q 744 776 728 825 q 761 672 761 728 m 642 669 q 606 768 642 729 q 511 807 569 807 l 214 807 l 214 531 l 507 531 q 606 570 569 531 q 642 669 642 610 z "},"S":{"ha":639,"x_min":64,"x_max":578,"o":"m 324 -14 q 242 -2 279 -14 q 175 32 206 10 q 119 87 143 56 q 76 154 96 118 q 67 181 71 167 q 64 208 64 194 q 81 256 64 240 q 122 272 99 272 q 153 263 139 272 q 176 229 167 253 q 231 145 199 171 q 324 119 264 119 q 426 160 393 119 q 458 254 458 200 q 449 313 458 283 q 419 364 439 343 q 328 438 382 404 q 229 511 275 472 q 136 615 165 564 q 107 728 107 665 q 124 817 107 776 q 169 888 140 858 q 238 933 199 917 q 325 950 278 950 q 393 940 361 950 q 451 911 425 929 q 510 853 486 888 q 533 779 533 819 q 516 735 533 751 q 478 718 499 718 q 425 757 443 718 q 386 803 410 786 q 326 821 363 821 q 253 797 279 821 q 228 729 228 774 q 243 674 228 699 q 300 615 258 649 q 352 576 324 596 q 409 535 381 556 q 464 494 438 515 q 511 449 490 472 q 561 367 544 411 q 578 251 578 322 q 560 150 578 199 q 510 65 543 101 q 429 8 476 29 q 324 -14 382 -14 z "},"T":{"ha":761,"x_min":33,"x_max":728,"o":"m 728 874 q 671 807 728 807 l 442 807 l 442 67 q 381 0 442 0 q 322 67 322 0 l 322 807 l 92 807 q 33 874 33 807 q 92 938 33 938 l 671 938 q 728 874 728 938 z "},"U":{"ha":821,"x_min":83,"x_max":738,"o":"m 411 117 q 563 176 507 117 q 618 335 618 235 l 618 869 q 679 938 618 938 q 738 869 738 938 l 738 335 q 714 192 738 257 q 647 82 690 128 q 544 11 604 36 q 411 -14 483 -14 q 277 11 338 -14 q 174 82 217 36 q 107 192 131 128 q 83 335 83 257 l 83 869 q 142 938 83 938 q 203 869 203 938 l 203 335 q 259 176 203 235 q 411 117 315 117 z "},"V":{"ha":796,"x_min":32,"x_max":764,"o":"m 647 893 q 700 938 664 938 q 746 918 728 938 q 764 876 764 899 q 757 847 764 864 l 461 47 q 434 12 451 24 q 397 0 417 0 q 360 12 376 0 q 333 49 343 24 l 38 846 q 32 876 32 857 q 49 918 32 899 q 96 938 67 938 q 147 893 131 938 l 397 226 l 647 893 z "},"W":{"ha":1410,"x_min":32,"x_max":1378,"o":"m 1263 893 q 1315 938 1279 938 q 1360 918 1343 938 q 1378 876 1378 899 q 1372 847 1378 860 l 1076 47 q 1049 12 1067 24 q 1013 0 1032 0 q 975 12 992 0 q 949 49 958 24 l 706 706 l 461 47 q 434 12 451 24 q 397 0 417 0 q 360 12 376 0 q 333 49 343 24 l 38 846 q 32 876 32 857 q 49 918 32 899 q 96 938 67 938 q 147 893 131 938 l 397 226 l 647 893 q 668 927 656 917 q 707 938 681 938 q 742 926 729 938 q 763 893 754 914 l 1013 226 l 1263 893 z "},"X":{"ha":785,"x_min":39,"x_max":746,"o":"m 68 835 q 57 875 57 853 q 75 919 57 900 q 117 938 93 938 q 141 931 128 938 q 167 908 154 925 l 394 583 l 622 908 q 647 931 633 925 q 674 938 660 938 q 715 919 697 938 q 733 875 733 900 q 721 835 733 853 l 469 476 l 732 101 q 746 63 746 82 q 727 18 746 36 q 685 0 708 0 q 659 6 672 0 q 635 28 646 13 l 392 375 l 149 29 q 124 7 138 14 q 99 0 111 0 q 57 18 75 0 q 39 63 39 36 q 50 101 39 83 l 317 482 l 68 835 z "},"Y":{"ha":751,"x_min":32,"x_max":719,"o":"m 375 0 q 315 65 315 0 l 315 444 l 44 835 q 32 875 32 853 q 50 920 32 903 q 92 938 68 938 q 140 908 119 938 l 375 576 l 610 908 q 634 931 621 924 q 660 938 647 938 q 701 920 683 938 q 719 875 719 903 q 707 835 719 853 l 435 444 l 435 65 q 375 0 435 0 z "},"Z":{"ha":739,"x_min":49,"x_max":690,"o":"m 225 129 l 632 129 q 690 64 690 129 q 632 0 690 0 l 129 0 q 77 19 94 0 q 60 68 60 38 q 78 122 60 96 l 513 807 l 108 807 q 49 872 49 807 q 108 938 49 938 l 610 938 q 662 915 646 938 q 678 864 678 892 q 664 814 678 836 l 225 129 z "},"[":{"ha":457,"x_min":156,"x_max":418,"o":"m 275 888 l 275 19 l 360 19 q 418 -47 418 19 q 360 -111 418 -111 l 215 -111 q 156 -47 156 -111 l 156 954 q 215 1018 156 1018 l 360 1018 q 418 954 418 1018 q 360 888 418 888 l 275 888 z "},"\\":{"ha":613,"x_min":11,"x_max":601,"o":"m 21 838 q 13 858 14 849 q 11 876 11 868 q 29 918 11 899 q 72 938 47 938 q 124 903 101 938 l 590 101 q 601 63 601 82 q 583 21 601 42 q 539 0 565 0 q 489 33 507 0 l 21 838 z "},"^":{"ha":765,"x_min":94,"x_max":671,"o":"m 210 428 q 184 397 199 406 q 153 389 169 389 q 113 406 131 389 q 94 451 94 422 q 101 481 94 464 l 318 893 q 381 938 342 938 q 446 893 421 938 l 664 479 q 671 450 671 461 q 653 406 671 422 q 613 389 635 389 q 556 429 576 389 l 382 765 l 210 428 z "},"_":{"ha":549,"x_min":-36,"x_max":585,"o":"m 526 -26 q 585 -92 585 -26 q 526 -156 585 -156 l 24 -156 q -36 -90 -36 -156 q 24 -26 -36 -26 l 526 -26 z "},"`":{"ha":419,"x_min":94,"x_max":325,"o":"m 311 700 q 325 660 325 682 q 306 614 325 633 q 263 594 286 594 q 239 601 251 594 q 217 619 226 607 l 108 760 q 94 799 94 774 q 115 846 94 826 q 158 865 135 865 q 204 839 182 865 l 311 700 z "},"a":{"ha":638,"x_min":63,"x_max":543,"o":"m 303 569 q 429 525 376 569 q 482 557 442 557 q 543 490 543 557 l 543 65 q 482 0 543 0 q 429 31 442 0 q 303 -14 376 -14 q 208 8 253 -14 q 132 69 164 31 q 81 162 100 108 q 63 278 63 215 q 81 395 63 342 q 132 488 100 449 q 208 548 164 526 q 303 569 253 569 m 182 278 q 217 159 182 201 q 303 117 253 117 q 389 159 354 117 q 424 278 424 201 l 424 286 q 388 401 422 361 q 303 440 353 440 q 217 399 253 440 q 182 278 182 357 z "},"b":{"ha":636,"x_min":94,"x_max":574,"o":"m 214 531 q 335 569 265 569 q 428 548 385 569 q 505 488 472 526 q 556 395 538 449 q 574 278 574 342 q 556 162 574 215 q 505 69 538 108 q 428 8 472 31 q 335 -14 385 -14 q 208 31 261 -14 q 156 0 196 0 q 94 65 94 0 l 94 869 q 156 938 94 938 q 214 869 214 938 l 214 531 m 456 278 q 420 399 456 357 q 335 440 385 440 q 250 401 285 440 q 214 286 215 361 l 214 278 q 249 159 214 201 q 335 117 283 117 q 420 159 385 117 q 456 278 456 201 z "},"c":{"ha":568,"x_min":63,"x_max":513,"o":"m 63 278 q 81 395 63 342 q 132 488 100 449 q 208 548 164 526 q 303 569 253 569 q 379 556 342 569 q 446 519 417 543 q 481 483 461 506 q 500 428 500 460 q 482 381 500 400 q 440 361 464 361 q 393 392 411 361 q 358 428 378 417 q 303 440 338 440 q 217 399 253 440 q 182 278 182 357 q 217 159 182 201 q 303 117 253 117 q 396 165 372 117 q 423 200 408 190 q 454 210 438 210 q 495 192 478 210 q 513 146 513 174 q 499 97 513 121 q 460 50 485 74 q 388 3 429 21 q 303 -14 347 -14 q 208 8 253 -14 q 132 69 164 31 q 81 162 100 108 q 63 278 63 215 z "},"d":{"ha":638,"x_min":63,"x_max":543,"o":"m 424 869 q 482 938 424 938 q 543 869 543 938 l 543 65 q 482 0 543 0 q 429 31 442 0 q 303 -14 376 -14 q 208 8 253 -14 q 132 69 164 31 q 81 162 100 108 q 63 278 63 215 q 81 395 63 342 q 132 488 100 449 q 208 548 164 526 q 303 569 253 569 q 424 531 372 569 l 424 869 m 182 278 q 217 159 182 201 q 303 117 253 117 q 389 159 354 117 q 424 278 424 201 l 424 286 q 388 401 422 361 q 303 440 353 440 q 217 399 253 440 q 182 278 182 357 z "},"e":{"ha":590,"x_min":63,"x_max":539,"o":"m 303 569 q 437 523 378 569 q 524 397 496 476 q 533 365 528 386 q 539 325 539 344 q 526 284 539 303 q 486 265 514 265 l 183 265 q 222 157 188 197 q 303 117 256 117 q 396 165 372 117 q 423 200 408 190 q 454 210 438 210 q 495 192 478 210 q 513 146 513 174 q 495 92 513 118 q 461 49 478 67 q 389 1 431 17 q 303 -14 347 -14 q 208 8 253 -14 q 132 69 164 31 q 81 162 100 108 q 63 278 63 215 q 78 378 63 326 q 123 473 93 431 q 198 542 153 515 q 303 569 243 569 m 303 443 q 245 426 268 443 q 203 375 222 410 l 404 375 q 303 443 367 443 z "},"f":{"ha":547,"x_min":28,"x_max":529,"o":"m 140 557 l 140 713 q 191 888 140 825 q 339 950 242 950 q 472 896 419 950 q 513 835 496 872 q 529 763 529 799 q 513 715 529 731 q 474 699 497 699 q 418 749 428 699 q 397 801 411 782 q 339 821 382 821 q 260 713 260 821 l 260 557 l 340 557 q 400 492 400 557 q 340 429 400 429 l 260 429 l 260 64 q 200 0 260 0 q 140 64 140 0 l 140 429 l 88 429 q 28 493 28 429 q 88 557 28 557 l 140 557 z "},"g":{"ha":638,"x_min":63,"x_max":543,"o":"m 424 26 q 303 -14 372 -14 q 208 8 253 -14 q 132 69 164 31 q 81 162 100 108 q 63 278 63 215 q 81 395 63 342 q 132 488 100 449 q 208 548 164 526 q 303 569 253 569 q 429 526 376 569 q 482 557 442 557 q 543 492 543 557 l 543 -129 q 526 -247 543 -193 q 479 -339 510 -300 q 403 -399 449 -378 q 303 -421 358 -421 q 219 -404 258 -421 q 149 -357 181 -387 q 113 -316 132 -340 q 94 -262 94 -292 q 112 -217 94 -235 q 153 -199 129 -199 q 183 -208 168 -199 q 210 -243 199 -218 q 303 -292 233 -292 q 394 -250 365 -292 q 424 -129 424 -208 l 424 26 m 182 278 q 217 159 182 201 q 303 117 253 117 q 388 157 353 117 q 424 269 422 197 l 424 278 q 389 399 424 357 q 303 440 354 440 q 217 399 253 440 q 182 278 182 357 z "},"h":{"ha":625,"x_min":94,"x_max":542,"o":"m 542 63 q 481 0 542 0 q 435 15 449 0 q 422 63 422 31 l 422 326 q 399 410 422 381 q 322 440 375 440 q 243 407 272 440 q 214 326 214 374 l 214 63 q 153 0 214 0 q 94 63 94 0 l 94 874 q 153 938 94 938 q 214 874 214 938 l 214 536 q 268 561 238 553 q 331 569 299 569 q 490 507 439 569 q 542 326 542 444 l 542 63 z "},"i":{"ha":350,"x_min":94,"x_max":256,"o":"m 235 65 q 175 0 235 0 q 115 65 115 0 l 115 492 q 175 557 115 557 q 235 492 235 557 l 235 65 m 94 700 q 117 763 94 738 q 175 789 140 789 q 232 763 208 789 q 256 700 256 738 q 232 636 256 663 q 175 610 208 610 q 117 636 140 610 q 94 700 94 663 z "},"j":{"ha":375,"x_min":-128,"x_max":281,"o":"m 260 -185 q 209 -359 260 -297 q 61 -421 158 -421 q -72 -367 -18 -421 q -112 -306 -96 -343 q -128 -233 -128 -269 q -112 -186 -128 -203 q -74 -169 -97 -169 q -17 -219 -29 -169 q 5 -271 -10 -250 q 61 -292 19 -292 q 140 -185 140 -292 l 140 492 q 200 557 140 557 q 260 492 260 557 l 260 -185 m 119 700 q 143 763 119 738 q 200 789 167 789 q 258 763 235 789 q 281 700 281 738 q 258 636 281 663 q 200 610 235 610 q 143 636 167 610 q 119 700 119 663 z "},"k":{"ha":553,"x_min":94,"x_max":514,"o":"m 488 117 q 514 65 514 99 q 495 19 514 39 q 453 0 476 0 q 435 3 444 0 q 415 14 426 6 l 214 167 l 214 63 q 156 0 214 0 q 94 63 94 0 l 94 874 q 156 938 94 938 q 214 874 214 938 l 214 390 l 411 543 q 447 557 429 557 q 490 536 472 557 q 508 490 508 515 q 485 440 508 460 l 264 278 l 488 117 z "},"l":{"ha":308,"x_min":94,"x_max":214,"o":"m 214 65 q 156 0 214 0 q 94 65 94 0 l 94 869 q 156 938 94 938 q 214 869 214 938 l 214 65 z "},"m":{"ha":953,"x_min":94,"x_max":869,"o":"m 542 63 q 481 0 542 0 q 435 15 449 0 q 422 63 422 31 l 422 326 q 399 410 422 381 q 322 440 375 440 q 243 407 272 440 q 214 326 214 374 l 214 63 q 153 0 214 0 q 94 63 94 0 l 94 493 q 153 557 94 557 q 206 531 193 557 q 263 560 232 551 q 331 569 293 569 q 496 499 442 569 q 570 553 526 538 q 658 569 614 569 q 818 507 767 569 q 869 326 869 444 l 869 63 q 810 0 869 0 q 765 15 778 0 q 751 63 751 31 l 751 326 q 728 410 751 381 q 651 440 704 440 q 572 406 603 440 q 542 326 542 371 l 542 63 z "},"n":{"ha":625,"x_min":94,"x_max":542,"o":"m 542 63 q 481 0 542 0 q 435 15 449 0 q 422 63 422 31 l 422 326 q 399 410 422 381 q 322 440 375 440 q 243 407 272 440 q 214 326 214 374 l 214 63 q 153 0 214 0 q 94 63 94 0 l 94 493 q 153 557 94 557 q 206 531 193 557 q 263 560 232 551 q 331 569 293 569 q 490 507 439 569 q 542 326 542 444 l 542 63 z "},"o":{"ha":606,"x_min":63,"x_max":543,"o":"m 63 278 q 81 395 63 342 q 132 488 100 449 q 208 548 164 526 q 303 569 253 569 q 397 548 353 569 q 474 488 442 526 q 524 395 506 449 q 543 278 543 342 q 524 162 543 215 q 474 69 506 108 q 397 8 442 31 q 303 -14 353 -14 q 208 8 253 -14 q 132 69 164 31 q 81 162 100 108 q 63 278 63 215 m 424 278 q 389 399 424 357 q 303 440 354 440 q 217 399 253 440 q 182 278 182 357 q 217 159 182 201 q 303 117 253 117 q 389 159 354 117 q 424 278 424 201 z "},"p":{"ha":636,"x_min":94,"x_max":574,"o":"m 214 -340 q 156 -407 214 -407 q 94 -340 94 -407 l 94 492 q 156 557 94 557 q 208 526 196 557 q 335 569 261 569 q 428 548 385 569 q 505 488 472 526 q 556 395 538 449 q 574 278 574 342 q 556 162 574 215 q 505 69 538 108 q 428 8 472 31 q 335 -14 385 -14 q 214 26 265 -14 l 214 -340 m 456 278 q 420 399 456 357 q 335 440 385 440 q 249 399 283 440 q 214 278 214 357 l 214 269 q 250 157 215 197 q 335 117 285 117 q 420 159 385 117 q 456 278 456 201 z "},"q":{"ha":644,"x_min":63,"x_max":811,"o":"m 811 -233 q 807 -264 811 -246 q 795 -301 803 -282 q 778 -337 788 -319 q 756 -367 768 -354 q 622 -421 701 -421 q 474 -359 525 -421 q 424 -185 424 -297 l 424 26 q 303 -14 372 -14 q 208 8 253 -14 q 132 69 164 31 q 81 162 100 108 q 63 278 63 215 q 81 395 63 342 q 132 488 100 449 q 208 548 164 526 q 303 569 253 569 q 429 526 376 569 q 482 557 442 557 q 543 492 543 557 l 543 -185 q 622 -292 543 -292 q 679 -271 665 -292 q 700 -219 693 -250 q 757 -169 713 -169 q 796 -186 781 -169 q 811 -233 811 -203 m 182 278 q 217 159 182 201 q 303 117 253 117 q 388 157 353 117 q 424 269 422 197 l 424 278 q 389 399 424 357 q 303 440 354 440 q 217 399 253 440 q 182 278 182 357 z "},"r":{"ha":522,"x_min":94,"x_max":486,"o":"m 376 394 q 349 431 365 421 q 299 440 332 440 q 248 418 271 440 q 214 356 225 396 l 214 69 q 154 0 214 0 q 94 67 96 0 l 94 494 q 154 561 94 561 q 189 552 178 561 q 207 525 200 543 q 255 557 228 544 q 318 569 282 569 q 446 513 392 569 q 475 469 464 493 q 486 419 486 444 q 470 372 486 389 q 435 356 454 356 q 376 394 393 356 z "},"s":{"ha":531,"x_min":64,"x_max":472,"o":"m 472 174 q 459 102 472 136 q 421 42 446 68 q 360 1 396 17 q 278 -14 324 -14 q 201 -2 239 -14 q 133 35 163 10 q 80 103 96 67 q 64 175 64 139 q 79 220 64 203 q 122 238 94 238 q 166 224 151 238 q 186 179 181 210 q 213 128 192 150 q 278 106 235 106 q 335 126 318 106 q 353 171 353 146 q 315 213 353 197 q 251 233 283 224 q 186 257 218 243 q 115 314 138 279 q 93 407 93 349 q 140 524 93 478 q 275 569 188 569 q 373 549 333 569 q 429 510 413 529 q 449 478 444 493 q 454 447 454 464 q 437 401 454 418 q 396 383 419 383 q 339 415 358 383 q 311 445 328 433 q 271 457 294 457 q 213 407 213 457 q 219 383 213 392 q 250 364 226 374 q 287 351 265 358 q 331 336 308 344 q 376 319 354 328 q 413 300 397 310 q 472 174 472 263 z "},"t":{"ha":460,"x_min":28,"x_max":432,"o":"m 432 492 q 374 429 432 429 l 286 429 l 286 67 q 225 0 286 0 q 167 67 167 0 l 167 429 l 88 429 q 28 492 28 429 q 88 557 28 557 l 167 557 l 167 669 q 225 733 167 733 q 286 669 286 733 l 286 557 l 374 557 q 432 492 432 557 z "},"u":{"ha":626,"x_min":83,"x_max":532,"o":"m 83 493 q 144 557 83 557 q 190 542 176 557 q 203 493 203 526 l 203 231 q 226 146 203 175 q 303 117 250 117 q 383 149 354 117 q 413 231 413 182 l 413 493 q 474 557 413 557 q 532 493 532 557 l 532 63 q 474 0 532 0 q 419 26 433 0 q 296 -14 371 -14 q 135 48 188 -14 q 83 231 83 110 l 83 493 z "},"v":{"ha":575,"x_min":32,"x_max":543,"o":"m 288 0 q 253 12 271 0 q 224 47 235 24 l 38 464 q 32 494 32 475 q 51 540 32 524 q 92 557 69 557 q 122 548 107 557 q 144 519 136 539 l 288 185 l 429 519 q 452 548 438 539 q 483 557 467 557 q 524 540 504 557 q 543 494 543 524 q 536 464 543 485 l 351 47 q 322 12 340 24 q 288 0 304 0 z "},"w":{"ha":967,"x_min":32,"x_max":935,"o":"m 288 0 q 253 12 271 0 q 224 47 235 24 l 38 464 q 32 494 32 475 q 51 540 32 524 q 92 557 69 557 q 122 548 107 557 q 144 519 136 539 l 288 189 l 429 519 q 452 548 438 539 q 483 557 467 557 q 513 548 499 557 q 536 519 528 539 l 679 189 l 821 519 q 844 548 829 539 q 875 557 858 557 q 916 540 897 557 q 935 494 935 524 q 928 464 935 478 l 743 47 q 714 12 732 24 q 679 0 696 0 q 644 12 663 0 q 615 47 626 24 l 483 346 l 351 47 q 322 12 340 24 q 288 0 304 0 z "},"x":{"ha":592,"x_min":39,"x_max":553,"o":"m 300 368 l 449 533 q 493 557 471 557 q 536 538 519 557 q 553 490 553 518 q 549 466 553 478 q 536 444 546 454 l 383 276 l 536 108 q 549 86 546 99 q 553 63 553 74 q 535 18 553 36 q 493 0 517 0 q 472 5 483 0 q 449 21 460 10 l 294 188 l 143 21 q 119 5 132 10 q 99 0 107 0 q 57 18 75 0 q 39 63 39 36 q 57 110 39 92 l 211 281 l 64 443 q 46 490 46 461 q 63 538 46 518 q 106 557 81 557 q 151 533 131 557 l 300 368 z "},"y":{"ha":565,"x_min":32,"x_max":533,"o":"m 474 557 q 515 540 496 557 q 533 496 533 522 q 528 468 533 481 l 153 -371 q 130 -399 143 -392 q 101 -407 117 -407 q 61 -390 79 -407 q 43 -343 43 -372 q 49 -312 43 -324 l 224 81 l 39 464 q 32 494 32 481 q 51 540 32 524 q 92 557 69 557 q 121 549 107 557 q 144 521 135 540 l 290 217 l 425 524 q 474 557 439 557 z "},"z":{"ha":613,"x_min":54,"x_max":558,"o":"m 251 129 l 500 129 q 558 64 558 129 q 500 0 558 0 l 135 0 q 83 21 103 0 q 64 71 64 42 q 69 99 64 86 q 86 126 74 113 l 361 428 l 114 428 q 54 492 54 428 q 114 557 54 557 l 476 557 q 530 534 511 557 q 549 483 549 511 q 529 431 549 454 l 251 129 z "},"{":{"ha":456,"x_min":128,"x_max":406,"o":"m 343 -100 q 232 -53 268 -100 q 196 78 196 -6 q 206 194 196 136 q 217 315 217 253 q 216 340 217 326 q 213 365 215 353 q 204 384 210 376 q 189 392 199 392 q 145 408 163 392 q 128 453 128 424 q 145 499 128 482 q 189 515 163 515 q 204 523 199 515 q 213 542 210 531 q 216 566 215 553 q 217 590 217 579 q 206 707 217 649 q 196 829 196 765 q 232 960 196 913 q 343 1007 268 1007 q 390 987 375 1007 q 406 943 406 967 q 391 900 406 919 q 349 881 376 881 q 321 865 328 881 q 314 822 314 849 q 325 707 314 764 q 336 583 336 650 q 328 513 336 544 q 300 453 319 481 q 327 394 318 428 q 336 324 336 360 q 325 206 336 264 q 314 85 314 147 q 321 42 314 57 q 349 26 328 26 q 391 7 376 26 q 406 -36 406 -12 q 390 -80 406 -60 q 343 -100 375 -100 z "},"|":{"ha":557,"x_min":218,"x_max":338,"o":"m 338 -194 q 279 -260 338 -260 q 218 -194 218 -260 l 218 1000 q 279 1067 218 1067 q 338 1000 338 1067 l 338 -194 z "},"~":{"ha":732,"x_min":94,"x_max":638,"o":"m 518 536 q 537 586 518 569 q 579 603 556 603 q 619 587 601 603 q 638 539 638 571 q 625 456 638 492 q 590 395 613 419 q 540 358 568 371 q 478 346 511 346 q 391 376 426 346 q 328 439 356 406 q 291 476 308 460 q 256 492 274 492 q 223 474 232 492 q 214 426 214 456 q 195 376 214 393 q 153 360 176 360 q 113 376 131 360 q 94 424 94 392 q 107 507 94 471 q 142 567 119 543 q 192 604 164 592 q 254 617 221 617 q 342 587 307 617 q 406 524 376 557 q 440 487 424 503 q 476 471 457 471 q 509 489 500 471 q 518 536 518 507 z "}," ":{"ha":336,"x_min":0,"x_max":0,"o":""},"¡":{"ha":367,"x_min":94,"x_max":272,"o":"m 124 404 q 183 469 124 469 q 243 404 243 469 l 243 -157 q 183 -226 243 -226 q 124 -157 124 -226 l 124 404 m 272 618 q 246 548 272 576 q 183 519 219 519 q 121 548 147 519 q 94 618 94 576 q 121 688 94 660 q 183 717 147 717 q 246 688 219 717 q 272 618 272 660 z "},"¢":{"ha":563,"x_min":63,"x_max":513,"o":"m 344 753 q 446 707 401 743 q 481 670 461 693 q 500 615 500 647 q 482 568 500 588 q 440 549 464 549 q 393 579 411 549 q 344 622 374 611 l 344 310 q 396 353 378 319 q 423 388 408 378 q 454 397 438 397 q 495 379 478 397 q 513 333 513 361 q 499 285 513 308 q 460 238 485 261 q 406 199 436 214 q 344 178 376 185 l 344 46 q 303 0 344 0 q 260 46 260 0 l 260 178 q 181 211 217 186 q 118 274 144 236 q 77 360 92 311 q 63 465 63 408 q 77 570 63 521 q 118 657 92 619 q 181 719 144 694 q 260 753 217 744 l 260 889 q 303 938 260 938 q 344 889 344 938 l 344 753 m 182 465 q 203 367 182 406 q 260 313 225 328 l 260 618 q 203 564 225 603 q 182 465 182 525 z "},"£":{"ha":808,"x_min":42,"x_max":779,"o":"m 188 510 q 161 580 172 544 q 150 654 150 615 q 170 775 150 721 q 228 868 190 829 q 321 928 267 907 q 442 950 375 950 q 551 931 499 950 q 644 876 604 913 q 708 785 685 839 q 732 663 732 732 q 713 613 732 629 q 672 596 694 596 q 632 612 651 596 q 613 660 613 628 q 565 778 613 735 q 435 821 518 821 q 373 812 403 821 q 320 785 343 803 q 283 739 297 767 q 269 675 269 711 q 285 591 269 632 q 321 510 301 550 l 565 510 q 625 444 625 510 q 565 381 625 381 l 383 381 q 407 258 407 322 q 399 199 407 228 q 476 144 431 167 q 568 122 521 122 q 627 139 606 122 q 667 186 649 156 q 693 213 678 206 q 722 221 708 221 q 762 204 744 221 q 779 158 779 188 q 772 129 779 146 q 684 25 739 57 q 567 -7 629 -7 q 444 18 496 -7 q 346 82 392 43 q 283 16 322 44 q 197 -12 244 -12 q 80 36 118 -12 q 42 157 42 85 q 53 219 42 190 q 86 269 65 247 q 135 304 107 292 q 194 317 163 317 q 242 310 218 317 q 286 293 265 303 q 274 335 282 314 q 254 381 265 357 l 167 381 q 107 446 107 381 q 167 510 107 510 l 188 510 m 197 118 q 228 131 215 118 q 256 165 242 144 q 227 181 242 175 q 197 188 213 188 q 172 180 183 188 q 161 160 161 172 q 172 127 161 136 q 197 118 182 118 z "},"¤":{"ha":850,"x_min":94,"x_max":756,"o":"m 271 468 q 283 409 271 436 q 317 361 296 382 q 365 328 338 340 q 425 317 393 317 q 484 328 456 317 q 533 361 513 340 q 567 409 554 382 q 579 468 579 436 q 567 526 579 499 q 533 574 554 553 q 484 606 513 594 q 425 618 456 618 q 365 606 393 618 q 317 574 338 594 q 283 526 296 553 q 271 468 271 499 m 278 701 q 347 734 310 722 q 425 746 385 746 q 503 734 465 746 q 572 701 540 722 l 651 781 q 692 800 668 800 q 735 780 717 800 q 754 733 754 760 q 736 689 754 707 l 658 611 q 699 468 699 546 q 688 390 699 426 q 657 321 676 353 l 736 244 q 751 221 747 233 q 756 197 756 208 q 737 152 756 172 q 693 132 718 132 q 672 138 682 132 q 653 151 663 143 l 569 232 q 501 201 538 213 q 425 190 465 190 q 349 201 385 190 q 281 232 313 213 l 199 150 q 156 131 176 131 q 113 151 132 131 q 94 197 94 171 q 113 240 94 222 l 192 321 q 151 468 151 385 q 190 611 151 547 l 115 688 q 96 733 96 711 q 115 780 96 760 q 158 800 133 800 q 200 781 181 800 l 278 701 z "},"¥":{"ha":751,"x_min":32,"x_max":719,"o":"m 375 0 q 315 65 315 0 l 315 168 l 124 168 q 64 232 64 168 q 124 296 64 296 l 315 296 l 315 364 l 124 364 q 64 429 64 364 q 124 492 64 492 l 282 492 l 44 835 q 32 875 32 853 q 50 920 32 903 q 92 938 68 938 q 140 908 119 938 l 375 576 l 610 908 q 634 931 621 924 q 660 938 647 938 q 701 920 683 938 q 719 875 719 903 q 707 835 719 853 l 468 492 l 626 492 q 686 428 686 492 q 626 364 686 364 l 435 364 l 435 296 l 626 296 q 686 231 686 296 q 626 168 686 168 l 435 168 l 435 65 q 375 0 435 0 z "},"¦":{"ha":557,"x_min":218,"x_max":338,"o":"m 338 519 q 279 453 338 453 q 218 519 218 453 l 218 1000 q 279 1067 218 1067 q 338 1000 338 1067 l 338 519 m 338 -194 q 279 -260 338 -260 q 218 -194 218 -260 l 218 286 q 279 354 218 354 q 338 286 338 354 l 338 -194 z "},"§":{"ha":619,"x_min":13,"x_max":550,"o":"m 272 -394 q 191 -383 228 -394 q 124 -349 154 -371 q 68 -294 92 -325 q 25 -226 44 -262 q 16 -200 19 -214 q 13 -172 13 -186 q 30 -124 13 -140 q 71 -108 47 -108 q 101 -118 88 -108 q 125 -151 115 -128 q 180 -235 147 -210 q 272 -261 213 -261 q 374 -221 342 -261 q 407 -126 407 -181 q 397 -67 407 -97 q 368 -17 388 -37 q 277 58 331 24 q 178 131 224 92 q 85 234 114 183 q 56 347 56 285 q 85 464 56 414 q 165 542 115 514 q 100 631 121 586 q 79 728 79 675 q 96 817 79 776 q 142 888 113 858 q 210 933 171 917 q 297 950 250 950 q 365 940 333 950 q 424 911 397 929 q 482 853 458 888 q 506 779 506 819 q 488 735 506 751 q 450 718 471 718 q 397 757 415 718 q 358 803 382 786 q 299 821 335 821 q 226 797 251 821 q 200 729 200 774 q 215 674 200 699 q 272 615 231 649 q 324 576 296 596 q 381 535 353 556 q 436 494 410 515 q 483 449 463 472 q 533 367 517 411 q 550 251 550 322 q 530 142 550 193 q 471 54 510 92 q 513 -24 499 18 q 526 -129 526 -67 q 509 -231 526 -182 q 458 -315 492 -279 q 378 -373 425 -351 q 272 -394 331 -394 m 249 235 q 310 190 276 213 q 376 142 343 167 q 417 190 404 160 q 431 254 431 219 q 421 313 431 283 q 392 364 411 343 q 339 409 368 388 q 279 453 310 431 q 201 417 226 444 q 176 349 176 389 q 192 293 176 318 q 249 235 207 268 z "},"¨":{"ha":574,"x_min":88,"x_max":486,"o":"m 322 735 q 346 800 322 774 q 404 826 369 826 q 461 800 436 826 q 486 735 486 774 q 461 669 486 696 q 404 643 436 643 q 346 669 369 643 q 322 735 322 696 m 88 735 q 112 800 88 774 q 169 826 136 826 q 227 800 201 826 q 253 735 253 774 q 227 669 253 696 q 169 643 201 643 q 112 669 136 643 q 88 735 88 696 z "},"©":{"ha":1042,"x_min":69,"x_max":972,"o":"m 69 472 q 99 660 69 572 q 185 812 128 747 q 326 913 242 876 q 521 950 410 950 q 715 913 631 950 q 857 812 800 876 q 943 660 914 747 q 972 472 972 572 q 943 283 972 371 q 857 128 914 194 q 715 24 800 63 q 521 -14 631 -14 q 326 24 410 -14 q 185 128 242 63 q 99 283 128 194 q 69 472 69 371 m 297 469 q 315 576 297 528 q 362 661 332 625 q 432 717 392 697 q 518 738 472 738 q 650 690 594 738 q 683 656 665 678 q 700 606 700 635 q 683 562 700 579 q 644 544 667 544 q 601 572 618 544 q 568 607 586 596 q 518 618 550 618 q 440 579 472 618 q 407 469 407 540 q 440 359 407 399 q 518 319 472 319 q 604 365 581 319 q 628 397 615 389 q 657 406 642 406 q 695 389 679 406 q 711 347 711 372 q 693 298 711 321 q 660 260 675 275 q 595 216 632 232 q 518 200 558 200 q 432 220 472 200 q 362 276 392 240 q 315 362 332 313 q 297 469 297 411 m 871 472 q 848 617 871 550 q 781 734 825 685 q 671 812 736 783 q 521 840 606 840 q 371 812 436 840 q 261 734 306 783 q 194 617 217 685 q 171 472 171 550 q 194 325 171 393 q 261 206 217 257 q 371 126 306 156 q 521 97 436 97 q 671 126 606 97 q 781 206 736 156 q 848 325 825 257 q 871 472 871 393 z "},"ª":{"ha":417,"x_min":49,"x_max":347,"o":"m 197 858 q 261 840 235 858 q 296 850 275 850 q 347 792 347 850 l 347 564 q 296 506 347 506 q 261 515 275 506 q 197 497 235 497 q 138 511 165 497 q 92 549 111 525 q 60 606 72 572 q 49 678 49 639 q 60 750 49 717 q 92 807 72 783 q 138 844 111 831 q 197 858 165 858 m 153 678 q 165 628 153 646 q 197 611 178 611 q 230 628 217 611 q 243 678 243 646 l 243 682 q 230 728 243 711 q 197 744 217 744 q 165 727 178 744 q 153 678 153 710 z "},"«":{"ha":561,"x_min":32,"x_max":529,"o":"m 32 0 m 293 99 q 303 61 303 85 q 285 17 303 33 q 243 0 267 0 q 192 32 214 0 l 42 275 q 35 290 38 282 q 32 310 32 299 q 42 344 32 331 l 192 588 q 243 618 213 618 q 285 601 267 618 q 303 556 303 583 q 293 521 303 536 l 164 310 l 293 99 m 519 99 q 529 61 529 85 q 511 17 529 33 q 469 0 493 0 q 418 32 440 0 l 268 275 q 261 290 264 282 q 258 310 258 299 q 268 344 258 331 l 418 588 q 469 618 439 618 q 511 601 493 618 q 529 556 529 583 q 519 521 529 536 l 390 310 l 519 99 z "},"¬":{"ha":697,"x_min":94,"x_max":603,"o":"m 94 483 q 153 549 94 549 l 544 549 q 603 485 603 549 l 603 197 q 542 129 603 129 q 483 197 483 129 l 483 418 l 153 418 q 94 483 94 418 z "},"­":{"ha":478,"x_min":32,"x_max":446,"o":"m 32 403 m 386 531 q 446 467 446 531 q 386 403 446 403 l 92 403 q 32 468 32 403 q 92 531 32 531 l 386 531 z "},"®":{"ha":1042,"x_min":69,"x_max":972,"o":"m 69 472 q 99 660 69 572 q 185 812 128 747 q 326 913 242 876 q 521 950 410 950 q 715 913 631 950 q 857 812 800 876 q 943 660 914 747 q 972 472 972 572 q 943 283 972 371 q 857 128 914 194 q 715 24 800 63 q 521 -14 631 -14 q 326 24 410 -14 q 185 128 242 63 q 99 283 128 194 q 69 472 69 371 m 871 472 q 848 617 871 550 q 781 734 825 685 q 671 812 736 783 q 521 840 606 840 q 371 812 436 840 q 261 734 306 783 q 194 617 217 685 q 171 472 171 550 q 194 325 171 393 q 261 206 217 257 q 371 126 306 156 q 521 97 436 97 q 671 126 606 97 q 781 206 736 156 q 848 325 825 257 q 871 472 871 393 m 714 565 q 688 472 714 513 q 611 421 661 432 l 706 301 q 713 287 711 294 q 714 272 714 279 q 701 238 714 251 q 669 224 689 224 q 652 227 661 224 q 638 238 643 231 l 499 418 l 449 418 l 449 272 q 439 236 449 249 q 404 224 429 224 q 360 272 360 224 l 360 661 q 372 699 360 689 q 404 710 383 710 l 576 710 q 678 669 643 710 q 714 565 714 628 m 624 564 q 611 599 624 585 q 576 613 599 613 l 449 613 l 449 514 l 575 514 q 610 528 597 514 q 624 564 624 543 z "},"¯":{"ha":576,"x_min":94,"x_max":482,"o":"m 419 793 q 482 728 482 793 q 419 665 482 665 l 157 665 q 94 729 94 665 q 157 793 94 793 l 419 793 z "},"°":{"ha":494,"x_min":63,"x_max":432,"o":"m 63 763 q 77 835 63 801 q 117 895 92 869 q 176 935 142 921 q 247 950 210 950 q 319 935 285 950 q 378 895 353 921 q 417 835 403 869 q 432 763 432 801 q 417 688 432 722 q 378 628 403 654 q 319 588 353 603 q 247 574 285 574 q 176 588 210 574 q 117 628 142 603 q 77 688 92 654 q 63 763 63 722 m 175 763 q 195 715 175 735 q 246 694 215 694 q 297 715 276 694 q 318 763 318 735 q 297 810 318 790 q 246 831 276 831 q 195 810 215 831 q 175 763 175 790 z "},"±":{"ha":740,"x_min":103,"x_max":646,"o":"m 103 0 m 314 531 l 314 678 q 375 742 314 742 q 435 678 435 742 l 435 531 l 586 531 q 646 467 646 531 q 586 403 646 403 l 435 403 l 435 254 q 374 190 435 190 q 314 254 314 190 l 314 403 l 163 403 q 103 468 103 403 q 163 531 103 531 l 314 531 m 586 128 q 646 64 646 128 q 586 0 646 0 l 163 0 q 103 65 103 0 q 163 128 103 128 l 586 128 z "},"²":{"ha":394,"x_min":58,"x_max":356,"o":"m 58 404 m 356 461 q 304 404 356 404 l 122 404 q 76 422 90 404 q 63 464 63 440 q 71 500 63 485 l 214 747 q 230 783 225 768 q 235 814 235 799 q 225 841 235 831 q 200 851 215 851 q 174 841 182 851 q 161 813 165 831 q 108 768 150 768 q 73 783 88 768 q 58 829 58 799 q 70 880 58 856 q 101 922 82 904 q 147 951 121 940 q 200 963 172 963 q 301 924 263 963 q 340 822 340 886 q 331 753 340 785 q 303 688 322 721 l 201 518 l 304 518 q 342 503 328 518 q 356 461 356 488 z "},"³":{"ha":419,"x_min":56,"x_max":376,"o":"m 56 397 m 374 792 q 361 731 374 758 q 326 683 349 703 q 363 633 349 663 q 376 564 376 604 q 365 500 376 531 q 331 447 353 469 q 281 410 310 424 q 217 397 251 397 q 97 443 138 397 q 56 556 56 489 q 107 614 56 614 q 145 599 129 614 q 161 556 161 585 q 173 520 161 535 q 217 506 185 506 q 257 522 242 506 q 272 572 272 539 q 259 617 272 600 q 222 633 246 633 q 167 685 167 633 q 221 735 167 735 q 259 754 249 735 q 269 796 269 774 q 256 838 269 822 q 222 854 242 854 q 184 838 193 854 q 172 803 175 821 q 121 753 164 753 q 81 772 94 753 q 67 811 67 790 q 79 873 67 844 q 113 921 92 901 q 162 951 133 940 q 222 963 190 963 q 331 917 289 963 q 374 792 374 871 z "},"´":{"ha":419,"x_min":94,"x_max":325,"o":"m 215 839 q 261 865 238 865 q 305 846 285 865 q 325 799 325 826 q 311 760 325 774 l 203 619 q 157 594 183 594 q 114 614 133 594 q 94 660 94 633 q 108 700 94 682 l 215 839 z "},"¶":{"ha":813,"x_min":28,"x_max":718,"o":"m 28 672 q 44 776 28 728 q 92 861 61 825 q 170 917 124 897 q 278 938 217 938 l 660 938 q 718 874 718 938 l 718 -314 q 657 -381 718 -381 q 599 -314 599 -381 l 599 807 l 444 807 l 444 -314 q 385 -381 444 -381 q 325 -314 325 -381 l 325 401 l 282 401 q 172 423 219 401 q 93 481 125 444 q 44 567 61 518 q 28 672 28 617 z "},"·":{"ha":317,"x_min":69,"x_max":247,"o":"m 69 369 m 69 468 q 96 538 69 508 q 158 567 122 567 q 221 538 194 567 q 247 468 247 508 q 221 398 247 426 q 158 369 194 369 q 96 398 122 369 q 69 468 69 426 z "},"¸":{"ha":429,"x_min":94,"x_max":369,"o":"m 183 75 q 235 18 235 75 l 235 -76 q 335 -118 301 -82 q 369 -217 369 -154 q 356 -284 369 -253 q 320 -338 343 -315 q 266 -374 297 -361 q 200 -387 235 -387 q 124 -372 154 -387 q 94 -318 94 -356 q 108 -272 94 -290 q 151 -254 122 -254 q 181 -258 171 -254 q 201 -262 192 -262 q 234 -247 221 -262 q 247 -212 247 -232 q 185 -158 247 -158 q 132 -93 132 -158 l 132 18 q 183 75 132 75 z "},"¹":{"ha":235,"x_min":71,"x_max":176,"o":"m 71 404 m 176 463 q 126 404 176 404 q 71 463 71 404 l 71 897 q 126 954 71 954 q 176 897 176 954 l 176 463 z "},"º":{"ha":399,"x_min":49,"x_max":347,"o":"m 49 678 q 60 750 49 717 q 92 807 72 783 q 138 844 111 831 q 197 858 165 858 q 256 844 228 858 q 303 807 283 831 q 335 750 324 783 q 347 678 347 717 q 335 606 347 639 q 303 549 324 572 q 256 511 283 525 q 197 497 228 497 q 138 511 165 497 q 92 549 111 525 q 60 606 72 572 q 49 678 49 639 m 243 678 q 230 727 243 710 q 197 744 217 744 q 165 727 178 744 q 153 678 153 710 q 165 628 153 646 q 197 611 178 611 q 230 628 217 611 q 243 678 243 646 z "},"»":{"ha":561,"x_min":32,"x_max":529,"o":"m 32 0 m 171 310 l 42 521 q 32 556 32 536 q 50 601 32 583 q 92 618 68 618 q 143 588 122 618 l 293 344 q 303 310 303 331 q 300 290 303 299 q 293 275 297 282 l 143 32 q 92 0 121 0 q 50 17 68 0 q 32 61 32 33 q 42 99 32 85 l 171 310 m 397 310 l 268 521 q 258 556 258 536 q 276 601 258 583 q 318 618 294 618 q 369 588 349 618 l 519 344 q 529 310 529 331 q 526 290 529 299 q 519 275 524 282 l 369 32 q 318 0 347 0 q 276 17 294 0 q 258 61 258 33 q 268 99 258 85 l 397 310 z "},"¼":{"ha":926,"x_min":64,"x_max":863,"o":"m 64 0 m 192 463 q 142 404 192 404 q 86 463 86 404 l 86 897 q 142 954 86 954 q 192 897 192 954 l 192 463 m 165 29 q 144 7 157 14 q 119 0 132 0 q 80 19 96 0 q 64 57 64 38 q 72 89 64 74 l 551 906 q 597 938 571 938 q 636 919 621 938 q 651 882 651 901 q 650 865 651 874 q 642 846 649 857 l 165 29 m 863 260 q 829 204 863 213 l 829 44 q 778 -14 829 -14 q 726 44 726 -14 l 726 201 l 575 201 q 519 267 519 201 l 519 478 q 571 536 519 536 q 624 478 624 536 l 624 315 l 726 315 l 726 478 q 778 536 726 536 q 829 478 829 536 l 829 314 q 863 260 863 303 z "},"½":{"ha":863,"x_min":67,"x_max":799,"o":"m 67 0 m 182 463 q 132 404 182 404 q 76 463 76 404 l 76 897 q 132 954 76 954 q 182 897 182 954 l 182 463 m 168 29 q 147 7 160 14 q 122 0 135 0 q 83 19 99 0 q 67 57 67 38 q 75 89 67 74 l 554 906 q 600 938 574 938 q 639 919 624 938 q 654 882 654 901 q 653 865 654 874 q 644 846 651 857 l 168 29 m 799 43 q 747 -14 799 -14 l 565 -14 q 519 4 533 -14 q 506 46 506 22 q 514 82 506 67 l 657 329 q 673 365 668 350 q 678 396 678 381 q 668 423 678 413 q 643 433 658 433 q 617 423 625 433 q 604 394 608 413 q 551 350 593 350 q 516 365 531 350 q 501 411 501 381 q 513 462 501 438 q 544 504 525 486 q 590 533 564 522 q 643 544 615 544 q 744 506 706 544 q 783 404 783 468 q 774 335 783 367 q 746 269 765 303 l 644 100 l 747 100 q 785 85 771 100 q 799 43 799 69 z "},"¾":{"ha":1038,"x_min":75,"x_max":974,"o":"m 75 0 m 393 792 q 381 731 393 758 q 346 683 368 703 q 382 633 368 663 q 396 564 396 604 q 384 500 396 531 q 351 447 372 469 q 300 410 329 424 q 236 397 271 397 q 116 443 157 397 q 75 556 75 489 q 126 614 75 614 q 165 599 149 614 q 181 556 181 585 q 192 520 181 535 q 236 506 204 506 q 276 522 261 506 q 292 572 292 539 q 278 617 292 600 q 242 633 265 633 q 186 685 186 633 q 240 735 186 735 q 278 754 268 735 q 289 796 289 774 q 275 838 289 822 q 242 854 261 854 q 203 838 213 854 q 192 803 194 821 q 140 753 183 753 q 100 772 114 753 q 86 811 86 790 q 99 873 86 844 q 132 921 111 901 q 181 951 153 940 q 242 963 210 963 q 351 917 308 963 q 393 792 393 871 m 294 29 q 274 7 286 14 q 249 0 261 0 q 209 19 225 0 q 193 57 193 38 q 201 89 193 74 l 681 906 q 726 938 700 938 q 765 919 750 938 q 781 882 781 901 q 779 865 781 874 q 771 846 778 857 l 294 29 m 974 260 q 940 204 974 213 l 940 44 q 889 -14 940 -14 q 838 44 838 -14 l 838 201 l 686 201 q 631 267 631 201 l 631 478 q 682 536 631 536 q 735 478 735 536 l 735 315 l 838 315 l 838 478 q 889 536 838 536 q 940 478 940 536 l 940 314 q 974 260 974 303 z "},"¿":{"ha":593,"x_min":60,"x_max":550,"o":"m 60 -6 q 73 98 60 53 q 121 181 86 143 q 175 233 144 208 q 226 286 206 258 q 263 407 263 333 q 324 475 263 475 q 383 408 383 475 q 369 301 383 346 q 328 218 356 257 q 279 165 308 190 q 226 115 250 140 q 190 62 201 89 q 179 3 179 35 q 215 -80 179 -50 q 317 -110 250 -110 q 392 -94 365 -110 q 438 -51 418 -79 q 463 -26 450 -33 q 490 -19 475 -19 q 550 -79 550 -19 q 483 -189 550 -137 q 411 -226 453 -212 q 324 -239 369 -239 q 126 -175 193 -239 q 60 -6 60 -111 m 413 618 q 386 549 413 578 q 324 519 360 519 q 261 549 288 519 q 235 618 235 578 q 261 688 235 660 q 324 717 288 717 q 386 688 360 717 q 413 618 413 660 z "},"À":{"ha":796,"x_min":32,"x_max":764,"o":"m 32 0 m 147 44 q 96 0 131 0 q 49 19 67 0 q 32 60 32 38 q 38 90 32 79 l 333 889 q 360 926 343 914 q 397 938 378 938 q 435 925 418 938 q 463 888 453 913 l 757 90 q 764 60 764 72 q 746 19 764 38 q 700 0 728 0 q 647 44 664 0 l 547 311 l 249 311 l 147 44 m 296 439 l 500 439 l 397 710 l 296 439 m 464 1081 q 478 1040 478 1063 q 458 994 478 1014 q 415 975 439 975 q 392 981 404 975 q 369 1000 379 988 l 261 1140 q 247 1179 247 1154 q 267 1226 247 1207 q 311 1246 288 1246 q 357 1219 335 1246 l 464 1081 z "},"Á":{"ha":796,"x_min":32,"x_max":764,"o":"m 32 0 m 147 44 q 96 0 131 0 q 49 19 67 0 q 32 60 32 38 q 38 90 32 79 l 333 889 q 360 926 343 914 q 397 938 378 938 q 435 925 418 938 q 463 888 453 913 l 757 90 q 764 60 764 72 q 746 19 764 38 q 700 0 728 0 q 647 44 664 0 l 547 311 l 249 311 l 147 44 m 296 439 l 500 439 l 397 710 l 296 439 m 446 1219 q 492 1246 468 1246 q 535 1226 515 1246 q 556 1179 556 1207 q 542 1140 556 1154 l 433 1000 q 388 975 414 975 q 344 994 364 975 q 325 1040 325 1014 q 339 1081 325 1063 l 446 1219 z "},"Â":{"ha":796,"x_min":32,"x_max":764,"o":"m 32 0 m 147 44 q 96 0 131 0 q 49 19 67 0 q 32 60 32 38 q 38 90 32 79 l 333 889 q 360 926 343 914 q 397 938 378 938 q 435 925 418 938 q 463 888 453 913 l 757 90 q 764 60 764 72 q 746 19 764 38 q 700 0 728 0 q 647 44 664 0 l 547 311 l 249 311 l 147 44 m 296 439 l 500 439 l 397 710 l 296 439 m 556 1081 q 569 1040 569 1063 q 550 994 569 1014 q 507 975 531 975 q 482 981 494 975 q 460 1000 469 986 l 401 1086 l 343 1000 q 321 981 333 986 q 297 975 308 975 q 254 994 274 975 q 235 1040 235 1014 q 249 1081 235 1063 l 356 1219 q 401 1246 376 1246 q 449 1219 426 1246 l 556 1081 z "},"Ã":{"ha":796,"x_min":32,"x_max":764,"o":"m 32 0 m 147 44 q 96 0 131 0 q 49 19 67 0 q 32 60 32 38 q 38 90 32 79 l 333 889 q 360 926 343 914 q 397 938 378 938 q 435 925 418 938 q 463 888 453 913 l 757 90 q 764 60 764 72 q 746 19 764 38 q 700 0 728 0 q 647 44 664 0 l 547 311 l 249 311 l 147 44 m 296 439 l 500 439 l 397 710 l 296 439 m 492 1161 q 509 1206 492 1190 q 550 1222 526 1222 q 588 1208 569 1222 q 606 1163 606 1194 q 569 1053 606 1088 q 481 1018 532 1018 q 410 1036 438 1018 q 363 1082 382 1054 q 343 1107 349 1101 q 326 1113 338 1113 q 310 1083 310 1113 q 292 1038 310 1053 q 253 1022 274 1022 q 213 1036 229 1022 q 197 1082 197 1050 q 234 1192 197 1157 q 324 1226 271 1226 q 392 1207 367 1226 q 440 1161 418 1188 q 463 1136 457 1142 q 479 1131 469 1131 q 492 1161 492 1131 z "},"Ä":{"ha":796,"x_min":32,"x_max":764,"o":"m 32 0 m 147 44 q 96 0 131 0 q 49 19 67 0 q 32 60 32 38 q 38 90 32 79 l 333 889 q 360 926 343 914 q 397 938 378 938 q 435 925 418 938 q 463 888 453 913 l 757 90 q 764 60 764 72 q 746 19 764 38 q 700 0 728 0 q 647 44 664 0 l 547 311 l 249 311 l 147 44 m 296 439 l 500 439 l 397 710 l 296 439 m 436 1115 q 460 1181 436 1154 q 518 1207 483 1207 q 575 1181 550 1207 q 600 1115 600 1154 q 575 1050 600 1076 q 518 1024 550 1024 q 460 1050 483 1024 q 436 1115 436 1076 m 201 1115 q 226 1181 201 1154 q 283 1207 250 1207 q 341 1181 315 1207 q 367 1115 367 1154 q 341 1050 367 1076 q 283 1024 315 1024 q 226 1050 250 1024 q 201 1115 201 1076 z "},"Å":{"ha":796,"x_min":32,"x_max":764,"o":"m 32 0 m 147 44 q 96 0 131 0 q 49 19 67 0 q 32 60 32 38 q 38 90 32 79 l 333 889 q 360 926 343 914 q 397 938 378 938 q 435 925 418 938 q 463 888 453 913 l 757 90 q 764 60 764 72 q 746 19 764 38 q 700 0 728 0 q 647 44 664 0 l 547 311 l 249 311 l 147 44 m 296 439 l 500 439 l 397 710 l 296 439 m 264 1104 q 274 1159 264 1133 q 303 1204 285 1185 q 347 1235 322 1224 q 401 1246 372 1246 q 454 1235 429 1246 q 498 1204 479 1224 q 528 1159 517 1185 q 539 1104 539 1133 q 528 1049 539 1075 q 498 1003 517 1022 q 454 974 479 985 q 401 963 429 963 q 347 974 372 963 q 303 1003 322 985 q 274 1049 285 1022 q 264 1104 264 1075 m 344 1104 q 361 1064 344 1081 q 401 1047 378 1047 q 442 1064 425 1047 q 460 1104 460 1081 q 442 1145 460 1128 q 401 1163 425 1163 q 361 1145 378 1163 q 344 1104 344 1128 z "},"Æ":{"ha":1047,"x_min":32,"x_max":982,"o":"m 149 46 q 132 15 143 29 q 97 0 121 0 q 48 19 64 0 q 32 60 32 38 q 38 89 32 76 l 333 889 q 356 924 342 911 q 394 938 371 938 l 924 938 q 982 874 982 938 q 924 807 982 807 l 592 807 l 592 531 l 843 531 q 903 467 903 531 q 843 403 903 403 l 592 403 l 592 129 l 924 129 q 982 64 982 129 q 924 0 982 0 l 532 0 q 472 63 472 0 l 472 311 l 249 311 l 149 46 m 296 439 l 472 439 l 472 807 l 433 807 l 296 439 z "},"Ç":{"ha":854,"x_min":69,"x_max":790,"o":"m 69 472 q 99 660 69 572 q 181 812 128 747 q 309 913 233 876 q 479 950 385 950 q 588 935 538 950 q 682 894 638 921 q 732 858 708 879 q 778 810 756 836 q 790 772 790 794 q 772 726 790 746 q 729 707 754 707 q 689 725 707 707 q 597 795 647 769 q 479 821 546 821 q 356 794 410 821 q 265 720 303 767 q 208 610 228 674 q 189 472 189 546 q 208 333 189 397 q 265 220 228 268 q 356 144 303 172 q 479 117 410 117 q 689 214 604 117 q 710 230 699 225 q 729 235 721 235 q 772 216 753 235 q 790 169 790 197 q 788 148 790 160 q 778 128 785 136 q 739 85 760 104 q 696 51 718 67 q 508 -12 610 -7 l 508 -76 q 609 -118 575 -82 q 643 -217 643 -154 q 630 -284 643 -253 q 594 -338 617 -315 q 540 -374 571 -361 q 474 -387 508 -387 q 398 -372 428 -387 q 368 -318 368 -356 q 382 -272 368 -290 q 425 -254 396 -254 q 455 -258 444 -254 q 475 -262 465 -262 q 508 -247 494 -262 q 521 -212 521 -232 q 458 -158 521 -158 q 406 -93 406 -158 l 406 -7 q 265 50 328 7 q 159 156 203 93 q 92 301 115 219 q 69 472 69 382 z "},"È":{"ha":668,"x_min":94,"x_max":603,"o":"m 94 0 m 603 64 q 544 0 603 0 l 154 0 q 94 63 94 0 l 94 874 q 154 938 94 938 l 544 938 q 603 874 603 938 q 544 807 603 807 l 214 807 l 214 531 l 464 531 q 524 467 524 531 q 464 403 524 403 l 214 403 l 214 129 l 544 129 q 603 64 603 129 m 419 1081 q 433 1040 433 1063 q 414 994 433 1014 q 371 975 394 975 q 347 981 360 975 q 325 1000 335 988 l 217 1140 q 203 1179 203 1154 q 223 1226 203 1207 q 267 1246 243 1246 q 313 1219 290 1246 l 419 1081 z "},"É":{"ha":668,"x_min":94,"x_max":603,"o":"m 94 0 m 603 64 q 544 0 603 0 l 154 0 q 94 63 94 0 l 94 874 q 154 938 94 938 l 544 938 q 603 874 603 938 q 544 807 603 807 l 214 807 l 214 531 l 464 531 q 524 467 524 531 q 464 403 524 403 l 214 403 l 214 129 l 544 129 q 603 64 603 129 m 404 1219 q 450 1246 426 1246 q 494 1226 474 1246 q 514 1179 514 1207 q 500 1140 514 1154 l 392 1000 q 346 975 372 975 q 303 994 322 975 q 283 1040 283 1014 q 297 1081 283 1063 l 404 1219 z "},"Ê":{"ha":668,"x_min":94,"x_max":603,"o":"m 94 0 m 603 64 q 544 0 603 0 l 154 0 q 94 63 94 0 l 94 874 q 154 938 94 938 l 544 938 q 603 874 603 938 q 544 807 603 807 l 214 807 l 214 531 l 464 531 q 524 467 524 531 q 464 403 524 403 l 214 403 l 214 129 l 544 129 q 603 64 603 129 m 511 1081 q 525 1040 525 1063 q 506 994 525 1014 q 463 975 486 975 q 438 981 450 975 q 415 1000 425 986 l 357 1086 l 299 1000 q 276 981 289 986 q 253 975 264 975 q 210 994 229 975 q 190 1040 190 1014 q 204 1081 190 1063 l 311 1219 q 357 1246 332 1246 q 404 1219 382 1246 l 511 1081 z "},"Ë":{"ha":668,"x_min":94,"x_max":603,"o":"m 94 0 m 603 64 q 544 0 603 0 l 154 0 q 94 63 94 0 l 94 874 q 154 938 94 938 l 544 938 q 603 874 603 938 q 544 807 603 807 l 214 807 l 214 531 l 464 531 q 524 467 524 531 q 464 403 524 403 l 214 403 l 214 129 l 544 129 q 603 64 603 129 m 392 1115 q 415 1181 392 1154 q 474 1207 439 1207 q 531 1181 506 1207 q 556 1115 556 1154 q 531 1050 556 1076 q 474 1024 506 1024 q 415 1050 439 1024 q 392 1115 392 1076 m 157 1115 q 181 1181 157 1154 q 239 1207 206 1207 q 297 1181 271 1207 q 322 1115 322 1154 q 297 1050 322 1076 q 239 1024 271 1024 q 181 1050 206 1024 q 157 1115 157 1076 z "},"Ì":{"ha":433,"x_min":63,"x_max":350,"o":"m 63 0 m 275 807 l 275 129 l 292 129 q 350 63 350 129 q 292 0 350 0 l 140 0 q 81 63 81 0 q 140 129 81 129 l 156 129 l 156 807 l 140 807 q 81 874 81 807 q 140 938 81 938 l 292 938 q 350 874 350 938 q 292 807 350 807 l 275 807 m 279 1081 q 293 1040 293 1063 q 274 994 293 1014 q 231 975 254 975 q 207 981 219 975 q 185 1000 194 988 l 76 1140 q 63 1179 63 1154 q 83 1226 63 1207 q 126 1246 103 1246 q 172 1219 150 1246 l 279 1081 z "},"Í":{"ha":435,"x_min":83,"x_max":372,"o":"m 83 0 m 278 807 l 278 129 l 294 129 q 353 63 353 129 q 294 0 353 0 l 143 0 q 83 63 83 0 q 143 129 83 129 l 158 129 l 158 807 l 143 807 q 83 874 83 807 q 143 938 83 938 l 294 938 q 353 874 353 938 q 294 807 353 807 l 278 807 m 263 1219 q 308 1246 285 1246 q 352 1226 332 1246 q 372 1179 372 1207 q 358 1140 372 1154 l 250 1000 q 204 975 231 975 q 161 994 181 975 q 142 1040 142 1014 q 156 1081 142 1063 l 263 1219 z "},"Î":{"ha":431,"x_min":57,"x_max":392,"o":"m 57 0 m 283 807 l 283 129 l 300 129 q 358 63 358 129 q 300 0 358 0 l 149 0 q 89 63 89 0 q 149 129 89 129 l 164 129 l 164 807 l 149 807 q 89 874 89 807 q 149 938 89 938 l 300 938 q 358 874 358 938 q 300 807 358 807 l 283 807 m 378 1081 q 392 1040 392 1063 q 372 994 392 1014 q 329 975 353 975 q 304 981 317 975 q 282 1000 292 986 l 224 1086 l 165 1000 q 143 981 156 986 q 119 975 131 975 q 76 994 96 975 q 57 1040 57 1014 q 71 1081 57 1063 l 178 1219 q 224 1246 199 1246 q 271 1219 249 1246 l 378 1081 z "},"Ï":{"ha":426,"x_min":14,"x_max":413,"o":"m 14 0 m 274 807 l 274 129 l 290 129 q 349 63 349 129 q 290 0 349 0 l 139 0 q 79 63 79 0 q 139 129 79 129 l 154 129 l 154 807 l 139 807 q 79 874 79 807 q 139 938 79 938 l 290 938 q 349 874 349 938 q 290 807 349 807 l 274 807 m 249 1115 q 272 1181 249 1154 q 331 1207 296 1207 q 388 1181 363 1207 q 413 1115 413 1154 q 388 1050 413 1076 q 331 1024 363 1024 q 272 1050 296 1024 q 249 1115 249 1076 m 14 1115 q 38 1181 14 1154 q 96 1207 63 1207 q 153 1181 128 1207 q 179 1115 179 1154 q 153 1050 179 1076 q 96 1024 128 1024 q 38 1050 63 1024 q 14 1115 14 1076 z "},"Ð":{"ha":854,"x_min":0,"x_max":785,"o":"m 785 468 q 751 285 785 369 q 660 136 718 200 q 521 36 601 72 q 347 0 440 0 l 146 0 q 86 63 86 0 l 86 403 l 60 403 q 0 467 0 403 q 60 531 0 531 l 86 531 l 86 874 q 146 938 86 938 l 343 938 q 520 901 439 938 q 660 801 601 865 q 751 652 718 738 q 785 468 785 567 m 669 465 q 645 594 669 532 q 577 703 621 656 q 474 778 533 750 q 343 807 414 807 l 204 807 l 204 531 l 435 531 q 494 467 494 531 q 435 403 494 403 l 204 403 l 204 129 l 347 129 q 473 156 414 129 q 576 230 532 183 q 644 338 619 276 q 669 465 669 399 z "},"Ñ":{"ha":811,"x_min":94,"x_max":717,"o":"m 94 0 m 651 0 q 616 10 635 0 q 586 40 597 21 l 214 683 l 214 67 q 154 0 214 0 q 94 67 94 0 l 94 860 q 114 918 94 899 q 161 938 133 938 q 199 926 185 938 q 225 896 214 915 l 597 254 l 597 869 q 657 938 597 938 q 717 869 717 938 l 717 78 q 697 19 717 38 q 651 0 678 0 m 496 1161 q 513 1206 496 1190 q 554 1222 531 1222 q 592 1208 574 1222 q 610 1163 610 1194 q 573 1053 610 1088 q 485 1018 536 1018 q 414 1036 442 1018 q 367 1082 386 1054 q 347 1107 353 1101 q 331 1113 342 1113 q 314 1083 314 1113 q 296 1038 314 1053 q 257 1022 278 1022 q 217 1036 233 1022 q 201 1082 201 1050 q 238 1192 201 1157 q 328 1226 275 1226 q 397 1207 371 1226 q 444 1161 422 1188 q 467 1136 461 1142 q 483 1131 474 1131 q 496 1161 496 1131 z "},"Ò":{"ha":958,"x_min":69,"x_max":889,"o":"m 69 0 m 69 472 q 99 660 69 572 q 181 812 128 747 q 309 913 233 876 q 479 950 385 950 q 649 913 572 950 q 778 812 725 876 q 860 660 831 747 q 889 472 889 572 q 860 283 889 371 q 778 128 831 194 q 649 24 725 63 q 479 -14 572 -14 q 309 24 385 -14 q 181 128 233 63 q 99 283 128 194 q 69 472 69 371 m 769 472 q 750 610 769 546 q 693 720 731 674 q 601 794 656 767 q 479 821 547 821 q 356 794 410 821 q 265 720 303 767 q 208 610 228 674 q 189 472 189 546 q 208 333 189 397 q 265 220 228 268 q 356 144 303 172 q 479 117 410 117 q 601 144 547 117 q 693 220 656 172 q 750 333 731 268 q 769 472 769 397 m 543 1081 q 557 1040 557 1063 q 538 994 557 1014 q 494 975 518 975 q 471 981 483 975 q 449 1000 458 988 l 340 1140 q 326 1179 326 1154 q 347 1226 326 1207 q 390 1246 367 1246 q 436 1219 414 1246 l 543 1081 z "},"Ó":{"ha":958,"x_min":69,"x_max":889,"o":"m 69 0 m 69 472 q 99 660 69 572 q 181 812 128 747 q 309 913 233 876 q 479 950 385 950 q 649 913 572 950 q 778 812 725 876 q 860 660 831 747 q 889 472 889 572 q 860 283 889 371 q 778 128 831 194 q 649 24 725 63 q 479 -14 572 -14 q 309 24 385 -14 q 181 128 233 63 q 99 283 128 194 q 69 472 69 371 m 769 472 q 750 610 769 546 q 693 720 731 674 q 601 794 656 767 q 479 821 547 821 q 356 794 410 821 q 265 720 303 767 q 208 610 228 674 q 189 472 189 546 q 208 333 189 397 q 265 220 228 268 q 356 144 303 172 q 479 117 410 117 q 601 144 547 117 q 693 220 656 172 q 750 333 731 268 q 769 472 769 397 m 525 1219 q 571 1246 547 1246 q 615 1226 594 1246 q 635 1179 635 1207 q 621 1140 635 1154 l 513 1000 q 467 975 493 975 q 424 994 443 975 q 404 1040 404 1014 q 418 1081 404 1063 l 525 1219 z "},"Ô":{"ha":958,"x_min":69,"x_max":889,"o":"m 69 0 m 69 472 q 99 660 69 572 q 181 812 128 747 q 309 913 233 876 q 479 950 385 950 q 649 913 572 950 q 778 812 725 876 q 860 660 831 747 q 889 472 889 572 q 860 283 889 371 q 778 128 831 194 q 649 24 725 63 q 479 -14 572 -14 q 309 24 385 -14 q 181 128 233 63 q 99 283 128 194 q 69 472 69 371 m 769 472 q 750 610 769 546 q 693 720 731 674 q 601 794 656 767 q 479 821 547 821 q 356 794 410 821 q 265 720 303 767 q 208 610 228 674 q 189 472 189 546 q 208 333 189 397 q 265 220 228 268 q 356 144 303 172 q 479 117 410 117 q 601 144 547 117 q 693 220 656 172 q 750 333 731 268 q 769 472 769 397 m 635 1081 q 649 1040 649 1063 q 629 994 649 1014 q 586 975 610 975 q 561 981 574 975 q 539 1000 549 986 l 481 1086 l 422 1000 q 400 981 413 986 q 376 975 388 975 q 333 994 353 975 q 314 1040 314 1014 q 328 1081 314 1063 l 435 1219 q 481 1246 456 1246 q 528 1219 506 1246 l 635 1081 z "},"Õ":{"ha":958,"x_min":69,"x_max":889,"o":"m 69 0 m 69 472 q 99 660 69 572 q 181 812 128 747 q 309 913 233 876 q 479 950 385 950 q 649 913 572 950 q 778 812 725 876 q 860 660 831 747 q 889 472 889 572 q 860 283 889 371 q 778 128 831 194 q 649 24 725 63 q 479 -14 572 -14 q 309 24 385 -14 q 181 128 233 63 q 99 283 128 194 q 69 472 69 371 m 769 472 q 750 610 769 546 q 693 720 731 674 q 601 794 656 767 q 479 821 547 821 q 356 794 410 821 q 265 720 303 767 q 208 610 228 674 q 189 472 189 546 q 208 333 189 397 q 265 220 228 268 q 356 144 303 172 q 479 117 410 117 q 601 144 547 117 q 693 220 656 172 q 750 333 731 268 q 769 472 769 397 m 571 1161 q 588 1206 571 1190 q 629 1222 606 1222 q 667 1208 649 1222 q 685 1163 685 1194 q 648 1053 685 1088 q 560 1018 611 1018 q 489 1036 517 1018 q 442 1082 461 1054 q 422 1107 428 1101 q 406 1113 417 1113 q 389 1083 389 1113 q 371 1038 389 1053 q 332 1022 353 1022 q 292 1036 308 1022 q 276 1082 276 1050 q 313 1192 276 1157 q 403 1226 350 1226 q 472 1207 446 1226 q 519 1161 497 1188 q 542 1136 536 1142 q 558 1131 549 1131 q 571 1161 571 1131 z "},"Ö":{"ha":958,"x_min":69,"x_max":889,"o":"m 69 0 m 69 472 q 99 660 69 572 q 181 812 128 747 q 309 913 233 876 q 479 950 385 950 q 649 913 572 950 q 778 812 725 876 q 860 660 831 747 q 889 472 889 572 q 860 283 889 371 q 778 128 831 194 q 649 24 725 63 q 479 -14 572 -14 q 309 24 385 -14 q 181 128 233 63 q 99 283 128 194 q 69 472 69 371 m 769 472 q 750 610 769 546 q 693 720 731 674 q 601 794 656 767 q 479 821 547 821 q 356 794 410 821 q 265 720 303 767 q 208 610 228 674 q 189 472 189 546 q 208 333 189 397 q 265 220 228 268 q 356 144 303 172 q 479 117 410 117 q 601 144 547 117 q 693 220 656 172 q 750 333 731 268 q 769 472 769 397 m 515 1115 q 539 1181 515 1154 q 597 1207 563 1207 q 654 1181 629 1207 q 679 1115 679 1154 q 654 1050 679 1076 q 597 1024 629 1024 q 539 1050 563 1024 q 515 1115 515 1076 m 281 1115 q 305 1181 281 1154 q 363 1207 329 1207 q 420 1181 394 1207 q 446 1115 446 1154 q 420 1050 446 1076 q 363 1024 394 1024 q 305 1050 329 1024 q 281 1115 281 1076 z "},"×":{"ha":740,"x_min":158,"x_max":582,"o":"m 371 550 l 478 657 q 519 676 497 676 q 540 670 529 676 q 560 654 551 664 q 576 633 569 644 q 582 610 582 621 q 563 567 582 586 l 460 463 l 564 357 q 582 314 582 339 q 562 269 582 292 q 519 246 542 246 q 499 251 508 246 q 479 267 490 257 l 371 374 l 264 265 q 222 244 243 244 q 200 251 211 244 q 180 267 189 257 q 165 289 171 278 q 158 311 158 300 q 164 335 158 324 q 178 356 169 346 l 283 463 l 179 567 q 160 611 160 586 q 165 634 160 622 q 181 656 171 646 q 201 672 190 665 q 222 678 211 678 q 264 657 240 678 l 371 550 z "},"Ø":{"ha":958,"x_min":69,"x_max":889,"o":"m 69 472 q 99 660 69 572 q 181 812 128 747 q 309 913 233 876 q 479 950 385 950 q 588 935 538 950 q 682 894 638 921 l 729 968 q 753 993 740 983 q 781 1003 765 1003 q 824 983 806 1003 q 842 942 842 964 q 840 923 842 933 q 831 901 838 913 l 775 814 q 860 663 831 750 q 889 472 889 576 q 860 283 889 371 q 778 128 831 194 q 649 24 725 63 q 479 -14 572 -14 q 281 42 367 -14 l 235 -31 q 183 -65 213 -65 q 140 -44 158 -65 q 121 -1 121 -22 q 132 36 121 17 l 186 121 q 99 278 128 188 q 69 472 69 368 m 189 472 q 206 340 189 401 q 257 229 222 278 l 615 788 q 552 812 588 803 q 479 821 517 821 q 356 794 410 821 q 265 720 303 767 q 208 610 228 674 q 189 472 189 546 m 769 472 q 753 600 769 540 q 704 706 736 660 l 347 147 q 479 117 403 117 q 601 144 547 117 q 693 220 656 172 q 750 333 731 268 q 769 472 769 397 z "},"Ù":{"ha":821,"x_min":83,"x_max":738,"o":"m 83 0 m 411 117 q 563 176 507 117 q 618 335 618 235 l 618 869 q 679 938 618 938 q 738 869 738 938 l 738 335 q 714 192 738 257 q 647 82 690 128 q 544 11 604 36 q 411 -14 483 -14 q 277 11 338 -14 q 174 82 217 36 q 107 192 131 128 q 83 335 83 257 l 83 869 q 142 938 83 938 q 203 869 203 938 l 203 335 q 259 176 203 235 q 411 117 315 117 m 474 1081 q 488 1040 488 1063 q 468 994 488 1014 q 425 975 449 975 q 401 981 414 975 q 379 1000 389 988 l 271 1140 q 257 1179 257 1154 q 277 1226 257 1207 q 321 1246 297 1246 q 367 1219 344 1246 l 474 1081 z "},"Ú":{"ha":821,"x_min":83,"x_max":738,"o":"m 83 0 m 411 117 q 563 176 507 117 q 618 335 618 235 l 618 869 q 679 938 618 938 q 738 869 738 938 l 738 335 q 714 192 738 257 q 647 82 690 128 q 544 11 604 36 q 411 -14 483 -14 q 277 11 338 -14 q 174 82 217 36 q 107 192 131 128 q 83 335 83 257 l 83 869 q 142 938 83 938 q 203 869 203 938 l 203 335 q 259 176 203 235 q 411 117 315 117 m 456 1219 q 501 1246 478 1246 q 545 1226 525 1246 q 565 1179 565 1207 q 551 1140 565 1154 l 443 1000 q 397 975 424 975 q 354 994 374 975 q 335 1040 335 1014 q 349 1081 335 1063 l 456 1219 z "},"Û":{"ha":821,"x_min":83,"x_max":738,"o":"m 83 0 m 411 117 q 563 176 507 117 q 618 335 618 235 l 618 869 q 679 938 618 938 q 738 869 738 938 l 738 335 q 714 192 738 257 q 647 82 690 128 q 544 11 604 36 q 411 -14 483 -14 q 277 11 338 -14 q 174 82 217 36 q 107 192 131 128 q 83 335 83 257 l 83 869 q 142 938 83 938 q 203 869 203 938 l 203 335 q 259 176 203 235 q 411 117 315 117 m 564 1081 q 578 1040 578 1063 q 558 994 578 1014 q 515 975 539 975 q 490 981 503 975 q 468 1000 478 986 l 410 1086 l 351 1000 q 329 981 342 986 q 306 975 317 975 q 263 994 282 975 q 243 1040 243 1014 q 257 1081 243 1063 l 364 1219 q 410 1246 385 1246 q 457 1219 435 1246 l 564 1081 z "},"Ü":{"ha":821,"x_min":83,"x_max":738,"o":"m 83 0 m 411 117 q 563 176 507 117 q 618 335 618 235 l 618 869 q 679 938 618 938 q 738 869 738 938 l 738 335 q 714 192 738 257 q 647 82 690 128 q 544 11 604 36 q 411 -14 483 -14 q 277 11 338 -14 q 174 82 217 36 q 107 192 131 128 q 83 335 83 257 l 83 869 q 142 938 83 938 q 203 869 203 938 l 203 335 q 259 176 203 235 q 411 117 315 117 m 446 1115 q 469 1181 446 1154 q 528 1207 493 1207 q 585 1181 560 1207 q 610 1115 610 1154 q 585 1050 610 1076 q 528 1024 560 1024 q 469 1050 493 1024 q 446 1115 446 1076 m 211 1115 q 235 1181 211 1154 q 293 1207 260 1207 q 351 1181 325 1207 q 376 1115 376 1154 q 351 1050 376 1076 q 293 1024 325 1024 q 235 1050 260 1024 q 211 1115 211 1076 z "},"Ý":{"ha":751,"x_min":32,"x_max":719,"o":"m 32 0 m 375 0 q 315 65 315 0 l 315 444 l 44 835 q 32 875 32 853 q 50 920 32 903 q 92 938 68 938 q 140 908 119 938 l 375 576 l 610 908 q 634 931 621 924 q 660 938 647 938 q 701 920 683 938 q 719 875 719 903 q 707 835 719 853 l 435 444 l 435 65 q 375 0 435 0 m 424 1219 q 469 1246 446 1246 q 513 1226 493 1246 q 533 1179 533 1207 q 519 1140 533 1154 l 411 1000 q 365 975 392 975 q 322 994 342 975 q 303 1040 303 1014 q 317 1081 303 1063 l 424 1219 z "},"Þ":{"ha":792,"x_min":94,"x_max":757,"o":"m 757 478 q 740 373 757 422 q 692 287 724 324 q 613 228 660 250 q 503 207 565 207 l 214 207 l 214 65 q 154 0 214 0 q 94 65 94 0 l 94 869 q 156 938 94 938 q 214 869 214 938 l 214 743 l 507 743 q 614 723 567 743 q 692 667 661 703 q 740 582 724 631 q 757 478 757 533 m 638 475 q 601 574 638 535 q 507 613 565 613 l 214 613 l 214 336 l 503 336 q 601 376 565 336 q 638 475 638 415 z "},"ß":{"ha":667,"x_min":83,"x_max":604,"o":"m 576 672 q 554 566 576 617 q 483 482 532 515 q 535 447 513 469 q 574 394 558 424 q 597 333 589 365 q 604 267 604 300 q 586 160 604 210 q 532 73 568 110 q 442 15 496 36 q 315 -7 388 -7 q 268 10 288 -7 q 249 56 249 26 q 265 104 249 86 q 314 122 281 122 q 445 165 404 122 q 486 267 486 207 q 477 323 486 296 q 451 370 468 350 q 410 403 435 390 q 351 415 385 415 l 338 415 q 281 479 281 415 q 338 544 281 544 l 351 544 q 432 581 407 544 q 457 669 457 617 q 338 821 457 821 q 233 783 263 821 q 203 657 203 744 l 203 65 q 144 0 203 0 q 83 65 83 0 l 83 667 q 100 781 83 729 q 149 871 117 833 q 228 929 181 908 q 338 950 276 950 q 447 929 401 950 q 521 871 492 908 q 563 783 550 833 q 576 672 576 732 z "},"à":{"ha":638,"x_min":63,"x_max":543,"o":"m 63 0 m 303 569 q 429 525 376 569 q 482 557 442 557 q 543 490 543 557 l 543 65 q 482 0 543 0 q 429 31 442 0 q 303 -14 376 -14 q 208 8 253 -14 q 132 69 164 31 q 81 162 100 108 q 63 278 63 215 q 81 395 63 342 q 132 488 100 449 q 208 548 164 526 q 303 569 253 569 m 182 278 q 217 159 182 201 q 303 117 253 117 q 389 159 354 117 q 424 278 424 201 l 424 286 q 388 401 422 361 q 303 440 353 440 q 217 399 253 440 q 182 278 182 357 m 374 700 q 388 660 388 682 q 368 614 388 633 q 325 594 349 594 q 301 601 314 594 q 279 619 289 607 l 171 760 q 157 799 157 774 q 177 846 157 826 q 221 865 197 865 q 267 839 244 865 l 374 700 z "},"á":{"ha":638,"x_min":63,"x_max":543,"o":"m 63 0 m 303 569 q 429 525 376 569 q 482 557 442 557 q 543 490 543 557 l 543 65 q 482 0 543 0 q 429 31 442 0 q 303 -14 376 -14 q 208 8 253 -14 q 132 69 164 31 q 81 162 100 108 q 63 278 63 215 q 81 395 63 342 q 132 488 100 449 q 208 548 164 526 q 303 569 253 569 m 182 278 q 217 159 182 201 q 303 117 253 117 q 389 159 354 117 q 424 278 424 201 l 424 286 q 388 401 422 361 q 303 440 353 440 q 217 399 253 440 q 182 278 182 357 m 351 839 q 397 865 374 865 q 441 846 421 865 q 461 799 461 826 q 447 760 461 774 l 339 619 q 293 594 319 594 q 250 614 269 594 q 231 660 231 633 q 244 700 231 682 l 351 839 z "},"â":{"ha":638,"x_min":63,"x_max":543,"o":"m 63 0 m 303 569 q 429 525 376 569 q 482 557 442 557 q 543 490 543 557 l 543 65 q 482 0 543 0 q 429 31 442 0 q 303 -14 376 -14 q 208 8 253 -14 q 132 69 164 31 q 81 162 100 108 q 63 278 63 215 q 81 395 63 342 q 132 488 100 449 q 208 548 164 526 q 303 569 253 569 m 182 278 q 217 159 182 201 q 303 117 253 117 q 389 159 354 117 q 424 278 424 201 l 424 286 q 388 401 422 361 q 303 440 353 440 q 217 399 253 440 q 182 278 182 357 m 465 700 q 479 660 479 682 q 460 614 479 633 q 417 594 440 594 q 392 600 404 594 q 369 619 379 606 l 311 706 l 253 619 q 231 600 243 606 q 207 594 218 594 q 164 614 183 594 q 144 660 144 633 q 158 700 144 682 l 265 839 q 311 865 286 865 q 358 839 336 865 l 465 700 z "},"ã":{"ha":638,"x_min":63,"x_max":543,"o":"m 63 0 m 303 569 q 429 525 376 569 q 482 557 442 557 q 543 490 543 557 l 543 65 q 482 0 543 0 q 429 31 442 0 q 303 -14 376 -14 q 208 8 253 -14 q 132 69 164 31 q 81 162 100 108 q 63 278 63 215 q 81 395 63 342 q 132 488 100 449 q 208 548 164 526 q 303 569 253 569 m 182 278 q 217 159 182 201 q 303 117 253 117 q 389 159 354 117 q 424 278 424 201 l 424 286 q 388 401 422 361 q 303 440 353 440 q 217 399 253 440 q 182 278 182 357 m 404 781 q 422 826 404 810 q 463 842 439 842 q 500 828 482 842 q 518 782 518 814 q 481 672 518 707 q 393 638 444 638 q 322 656 350 638 q 275 701 294 674 q 256 726 261 721 q 239 732 250 732 q 222 703 222 732 q 204 657 222 672 q 165 642 186 642 q 126 656 142 642 q 110 701 110 669 q 147 811 110 776 q 236 846 183 846 q 305 826 279 846 q 353 781 331 807 q 376 756 369 761 q 392 750 382 750 q 404 781 404 750 z "},"ä":{"ha":638,"x_min":63,"x_max":543,"o":"m 63 0 m 303 569 q 429 525 376 569 q 482 557 442 557 q 543 490 543 557 l 543 65 q 482 0 543 0 q 429 31 442 0 q 303 -14 376 -14 q 208 8 253 -14 q 132 69 164 31 q 81 162 100 108 q 63 278 63 215 q 81 395 63 342 q 132 488 100 449 q 208 548 164 526 q 303 569 253 569 m 182 278 q 217 159 182 201 q 303 117 253 117 q 389 159 354 117 q 424 278 424 201 l 424 286 q 388 401 422 361 q 303 440 353 440 q 217 399 253 440 q 182 278 182 357 m 347 735 q 371 800 347 774 q 429 826 394 826 q 486 800 461 826 q 511 735 511 774 q 486 669 511 696 q 429 643 461 643 q 371 669 394 643 q 347 735 347 696 m 113 735 q 137 800 113 774 q 194 826 161 826 q 252 800 226 826 q 278 735 278 774 q 252 669 278 696 q 194 643 226 643 q 137 669 161 643 q 113 735 113 696 z "},"å":{"ha":638,"x_min":63,"x_max":543,"o":"m 63 0 m 303 569 q 429 525 376 569 q 482 557 442 557 q 543 490 543 557 l 543 65 q 482 0 543 0 q 429 31 442 0 q 303 -14 376 -14 q 208 8 253 -14 q 132 69 164 31 q 81 162 100 108 q 63 278 63 215 q 81 395 63 342 q 132 488 100 449 q 208 548 164 526 q 303 569 253 569 m 182 278 q 217 159 182 201 q 303 117 253 117 q 389 159 354 117 q 424 278 424 201 l 424 286 q 388 401 422 361 q 303 440 353 440 q 217 399 253 440 q 182 278 182 357 m 174 724 q 184 778 174 753 q 213 824 194 804 q 257 854 232 843 q 311 865 282 865 q 364 854 339 865 q 408 824 389 843 q 438 778 426 804 q 449 724 449 753 q 438 668 449 694 q 408 623 426 642 q 364 593 389 604 q 311 582 339 582 q 257 593 282 582 q 213 623 232 604 q 184 668 194 642 q 174 724 174 694 m 254 724 q 271 683 254 700 q 311 667 288 667 q 352 683 335 667 q 369 724 369 700 q 352 765 369 747 q 311 782 335 782 q 271 765 288 782 q 254 724 254 747 z "},"æ":{"ha":964,"x_min":63,"x_max":901,"o":"m 665 569 q 799 523 740 569 q 886 397 858 476 q 896 365 890 386 q 901 325 901 344 q 889 284 901 303 q 849 265 876 265 l 546 265 q 584 157 550 197 q 665 117 618 117 q 758 165 735 117 q 785 200 771 190 q 817 210 800 210 q 858 192 840 210 q 875 146 875 174 q 858 92 875 118 q 824 49 840 67 q 751 1 793 17 q 665 -14 710 -14 q 536 29 593 -14 q 482 0 525 0 q 429 31 442 0 q 303 -14 376 -14 q 208 8 253 -14 q 132 69 164 31 q 81 162 100 108 q 63 278 63 215 q 81 395 63 342 q 132 488 100 449 q 208 548 164 526 q 303 569 253 569 q 429 525 376 569 q 482 557 442 557 q 536 526 524 557 q 594 558 563 546 q 665 569 626 569 m 665 443 q 608 426 631 443 q 565 375 585 410 l 767 375 q 665 443 729 443 m 182 278 q 217 159 182 201 q 303 117 253 117 q 389 159 354 117 q 424 278 424 201 l 424 286 q 388 401 422 361 q 303 440 353 440 q 217 399 253 440 q 182 278 182 357 z "},"ç":{"ha":568,"x_min":63,"x_max":513,"o":"m 63 278 q 81 395 63 342 q 132 488 100 449 q 208 548 164 526 q 303 569 253 569 q 379 556 342 569 q 446 519 417 543 q 481 483 461 506 q 500 428 500 460 q 482 381 500 400 q 440 361 464 361 q 393 392 411 361 q 358 428 378 417 q 303 440 338 440 q 217 399 253 440 q 182 278 182 357 q 217 159 182 201 q 303 117 253 117 q 396 165 372 117 q 423 200 408 190 q 454 210 438 210 q 495 192 478 210 q 513 146 513 174 q 499 97 513 121 q 460 50 485 74 q 405 12 436 26 q 340 -10 374 -3 l 340 -76 q 441 -118 407 -82 q 475 -217 475 -154 q 462 -284 475 -253 q 426 -338 449 -315 q 372 -374 403 -361 q 306 -387 340 -387 q 230 -372 260 -387 q 200 -318 200 -356 q 214 -272 200 -290 q 257 -254 228 -254 q 287 -258 276 -254 q 307 -262 297 -262 q 340 -247 326 -262 q 353 -212 353 -232 q 290 -158 353 -158 q 238 -93 238 -158 l 238 -3 q 110 97 158 21 q 63 278 63 172 z "},"è":{"ha":590,"x_min":63,"x_max":539,"o":"m 63 0 m 303 569 q 437 523 378 569 q 524 397 496 476 q 533 365 528 386 q 539 325 539 344 q 526 284 539 303 q 486 265 514 265 l 183 265 q 222 157 188 197 q 303 117 256 117 q 396 165 372 117 q 423 200 408 190 q 454 210 438 210 q 495 192 478 210 q 513 146 513 174 q 495 92 513 118 q 461 49 478 67 q 389 1 431 17 q 303 -14 347 -14 q 208 8 253 -14 q 132 69 164 31 q 81 162 100 108 q 63 278 63 215 q 78 378 63 326 q 123 473 93 431 q 198 542 153 515 q 303 569 243 569 m 303 443 q 245 426 268 443 q 203 375 222 410 l 404 375 q 303 443 367 443 m 369 700 q 383 660 383 682 q 364 614 383 633 q 321 594 344 594 q 297 601 310 594 q 275 619 285 607 l 167 760 q 153 799 153 774 q 173 846 153 826 q 217 865 193 865 q 263 839 240 865 l 369 700 z "},"é":{"ha":590,"x_min":63,"x_max":539,"o":"m 63 0 m 303 569 q 437 523 378 569 q 524 397 496 476 q 533 365 528 386 q 539 325 539 344 q 526 284 539 303 q 486 265 514 265 l 183 265 q 222 157 188 197 q 303 117 256 117 q 396 165 372 117 q 423 200 408 190 q 454 210 438 210 q 495 192 478 210 q 513 146 513 174 q 495 92 513 118 q 461 49 478 67 q 389 1 431 17 q 303 -14 347 -14 q 208 8 253 -14 q 132 69 164 31 q 81 162 100 108 q 63 278 63 215 q 78 378 63 326 q 123 473 93 431 q 198 542 153 515 q 303 569 243 569 m 303 443 q 245 426 268 443 q 203 375 222 410 l 404 375 q 303 443 367 443 m 351 839 q 397 865 374 865 q 441 846 421 865 q 461 799 461 826 q 447 760 461 774 l 339 619 q 293 594 319 594 q 250 614 269 594 q 231 660 231 633 q 244 700 231 682 l 351 839 z "},"ê":{"ha":590,"x_min":63,"x_max":539,"o":"m 63 0 m 303 569 q 437 523 378 569 q 524 397 496 476 q 533 365 528 386 q 539 325 539 344 q 526 284 539 303 q 486 265 514 265 l 183 265 q 222 157 188 197 q 303 117 256 117 q 396 165 372 117 q 423 200 408 190 q 454 210 438 210 q 495 192 478 210 q 513 146 513 174 q 495 92 513 118 q 461 49 478 67 q 389 1 431 17 q 303 -14 347 -14 q 208 8 253 -14 q 132 69 164 31 q 81 162 100 108 q 63 278 63 215 q 78 378 63 326 q 123 473 93 431 q 198 542 153 515 q 303 569 243 569 m 303 443 q 245 426 268 443 q 203 375 222 410 l 404 375 q 303 443 367 443 m 460 700 q 474 660 474 682 q 454 614 474 633 q 411 594 435 594 q 386 600 399 594 q 364 619 374 606 l 306 706 l 247 619 q 225 600 238 606 q 201 594 213 594 q 158 614 178 594 q 139 660 139 633 q 153 700 139 682 l 260 839 q 306 865 281 865 q 353 839 331 865 l 460 700 z "},"ë":{"ha":590,"x_min":63,"x_max":539,"o":"m 63 0 m 303 569 q 437 523 378 569 q 524 397 496 476 q 533 365 528 386 q 539 325 539 344 q 526 284 539 303 q 486 265 514 265 l 183 265 q 222 157 188 197 q 303 117 256 117 q 396 165 372 117 q 423 200 408 190 q 454 210 438 210 q 495 192 478 210 q 513 146 513 174 q 495 92 513 118 q 461 49 478 67 q 389 1 431 17 q 303 -14 347 -14 q 208 8 253 -14 q 132 69 164 31 q 81 162 100 108 q 63 278 63 215 q 78 378 63 326 q 123 473 93 431 q 198 542 153 515 q 303 569 243 569 m 303 443 q 245 426 268 443 q 203 375 222 410 l 404 375 q 303 443 367 443 m 342 735 q 365 800 342 774 q 424 826 389 826 q 481 800 456 826 q 506 735 506 774 q 481 669 506 696 q 424 643 456 643 q 365 669 389 643 q 342 735 342 696 m 107 735 q 131 800 107 774 q 189 826 156 826 q 247 800 221 826 q 272 735 272 774 q 247 669 272 696 q 189 643 221 643 q 131 669 156 643 q 107 735 107 696 z "},"ì":{"ha":367,"x_min":38,"x_max":268,"o":"m 38 0 m 253 65 q 193 0 253 0 q 133 65 133 0 l 133 492 q 193 557 133 557 q 253 492 253 557 l 253 65 m 254 700 q 268 660 268 682 q 249 614 268 633 q 206 594 229 594 q 182 601 194 594 q 160 619 169 607 l 51 760 q 38 799 38 774 q 58 846 38 826 q 101 865 78 865 q 147 839 125 865 l 254 700 z "},"í":{"ha":378,"x_min":99,"x_max":329,"o":"m 99 0 m 236 65 q 176 0 236 0 q 117 65 117 0 l 117 492 q 176 557 117 557 q 236 492 236 557 l 236 65 m 219 839 q 265 865 242 865 q 309 846 289 865 q 329 799 329 826 q 315 760 329 774 l 207 619 q 161 594 188 594 q 118 614 138 594 q 99 660 99 633 q 113 700 99 682 l 219 839 z "},"î":{"ha":364,"x_min":22,"x_max":357,"o":"m 22 0 m 250 65 q 190 0 250 0 q 131 65 131 0 l 131 492 q 190 557 131 557 q 250 492 250 557 l 250 65 m 343 700 q 357 660 357 682 q 338 614 357 633 q 294 594 318 594 q 269 600 282 594 q 247 619 257 606 l 189 706 l 131 619 q 108 600 121 606 q 85 594 96 594 q 42 614 61 594 q 22 660 22 633 q 36 700 22 682 l 143 839 q 189 865 164 865 q 236 839 214 865 l 343 700 z "},"ï":{"ha":388,"x_min":-6,"x_max":393,"o":"m 0 0 m 256 65 q 196 0 256 0 q 136 65 136 0 l 136 492 q 196 557 136 557 q 256 492 256 557 l 256 65 m 229 735 q 253 800 229 774 q 311 826 276 826 q 368 800 343 826 q 393 735 393 774 q 368 669 393 696 q 311 643 343 643 q 253 669 276 643 q 229 735 229 696 m -6 735 q 19 800 -6 774 q 76 826 43 826 q 134 800 108 826 q 160 735 160 774 q 134 669 160 696 q 76 643 108 643 q 19 669 43 643 q -6 735 -6 696 z "},"ð":{"ha":619,"x_min":69,"x_max":550,"o":"m 453 743 q 522 525 493 646 q 550 278 550 404 q 531 162 550 215 q 481 69 513 108 q 404 8 449 31 q 310 -14 360 -14 q 215 8 260 -14 q 139 69 171 31 q 88 162 107 108 q 69 278 69 215 q 88 395 69 342 q 139 488 107 449 q 215 548 171 526 q 310 569 260 569 q 392 553 354 569 q 376 605 385 581 q 358 654 368 629 l 310 607 q 269 590 290 590 q 232 608 249 590 q 215 649 215 625 q 235 693 215 674 l 307 764 q 285 798 296 783 q 260 824 275 813 q 244 848 247 835 q 240 872 240 861 q 257 918 240 899 q 297 938 274 938 q 353 911 329 938 q 399 850 378 885 l 450 900 q 470 914 461 911 q 490 917 479 917 q 528 900 511 917 q 546 858 546 883 q 526 815 546 832 l 453 743 m 431 278 q 395 399 431 357 q 310 440 360 440 q 224 399 258 440 q 189 278 189 357 q 224 159 189 201 q 310 117 258 117 q 395 159 360 117 q 431 278 431 201 z "},"ñ":{"ha":625,"x_min":94,"x_max":542,"o":"m 94 0 m 542 63 q 481 0 542 0 q 435 15 449 0 q 422 63 422 31 l 422 326 q 399 410 422 381 q 322 440 375 440 q 243 407 272 440 q 214 326 214 374 l 214 63 q 153 0 214 0 q 94 63 94 0 l 94 493 q 153 557 94 557 q 206 531 193 557 q 263 560 232 551 q 331 569 293 569 q 490 507 439 569 q 542 326 542 444 l 542 63 m 403 781 q 420 826 403 810 q 461 842 438 842 q 499 828 481 842 q 517 782 517 814 q 480 672 517 707 q 392 638 443 638 q 321 656 349 638 q 274 701 293 674 q 254 726 260 721 q 238 732 249 732 q 221 703 221 732 q 203 657 221 672 q 164 642 185 642 q 124 656 140 642 q 108 701 108 669 q 145 811 108 776 q 235 846 182 846 q 303 826 278 846 q 351 781 329 807 q 374 756 368 761 q 390 750 381 750 q 403 781 403 750 z "},"ò":{"ha":606,"x_min":63,"x_max":543,"o":"m 63 0 m 63 278 q 81 395 63 342 q 132 488 100 449 q 208 548 164 526 q 303 569 253 569 q 397 548 353 569 q 474 488 442 526 q 524 395 506 449 q 543 278 543 342 q 524 162 543 215 q 474 69 506 108 q 397 8 442 31 q 303 -14 353 -14 q 208 8 253 -14 q 132 69 164 31 q 81 162 100 108 q 63 278 63 215 m 424 278 q 389 399 424 357 q 303 440 354 440 q 217 399 253 440 q 182 278 182 357 q 217 159 182 201 q 303 117 253 117 q 389 159 354 117 q 424 278 424 201 m 367 700 q 381 660 381 682 q 361 614 381 633 q 318 594 342 594 q 294 601 307 594 q 272 619 282 607 l 164 760 q 150 799 150 774 q 170 846 150 826 q 214 865 190 865 q 260 839 238 865 l 367 700 z "},"ó":{"ha":606,"x_min":63,"x_max":543,"o":"m 63 0 m 63 278 q 81 395 63 342 q 132 488 100 449 q 208 548 164 526 q 303 569 253 569 q 397 548 353 569 q 474 488 442 526 q 524 395 506 449 q 543 278 543 342 q 524 162 543 215 q 474 69 506 108 q 397 8 442 31 q 303 -14 353 -14 q 208 8 253 -14 q 132 69 164 31 q 81 162 100 108 q 63 278 63 215 m 424 278 q 389 399 424 357 q 303 440 354 440 q 217 399 253 440 q 182 278 182 357 q 217 159 182 201 q 303 117 253 117 q 389 159 354 117 q 424 278 424 201 m 349 839 q 394 865 371 865 q 438 846 418 865 q 458 799 458 826 q 444 760 458 774 l 336 619 q 290 594 317 594 q 247 614 267 594 q 228 660 228 633 q 242 700 228 682 l 349 839 z "},"ô":{"ha":606,"x_min":63,"x_max":543,"o":"m 63 0 m 63 278 q 81 395 63 342 q 132 488 100 449 q 208 548 164 526 q 303 569 253 569 q 397 548 353 569 q 474 488 442 526 q 524 395 506 449 q 543 278 543 342 q 524 162 543 215 q 474 69 506 108 q 397 8 442 31 q 303 -14 353 -14 q 208 8 253 -14 q 132 69 164 31 q 81 162 100 108 q 63 278 63 215 m 424 278 q 389 399 424 357 q 303 440 354 440 q 217 399 253 440 q 182 278 182 357 q 217 159 182 201 q 303 117 253 117 q 389 159 354 117 q 424 278 424 201 m 458 700 q 472 660 472 682 q 453 614 472 633 q 410 594 433 594 q 385 600 397 594 q 363 619 372 606 l 304 706 l 246 619 q 224 600 236 606 q 200 594 211 594 q 157 614 176 594 q 138 660 138 633 q 151 700 138 682 l 258 839 q 304 865 279 865 q 351 839 329 865 l 458 700 z "},"õ":{"ha":606,"x_min":63,"x_max":543,"o":"m 63 0 m 63 278 q 81 395 63 342 q 132 488 100 449 q 208 548 164 526 q 303 569 253 569 q 397 548 353 569 q 474 488 442 526 q 524 395 506 449 q 543 278 543 342 q 524 162 543 215 q 474 69 506 108 q 397 8 442 31 q 303 -14 353 -14 q 208 8 253 -14 q 132 69 164 31 q 81 162 100 108 q 63 278 63 215 m 424 278 q 389 399 424 357 q 303 440 354 440 q 217 399 253 440 q 182 278 182 357 q 217 159 182 201 q 303 117 253 117 q 389 159 354 117 q 424 278 424 201 m 394 781 q 412 826 394 810 q 453 842 429 842 q 490 828 472 842 q 508 782 508 814 q 472 672 508 707 q 383 638 435 638 q 313 656 340 638 q 265 701 285 674 q 246 726 251 721 q 229 732 240 732 q 213 703 213 732 q 194 657 213 672 q 156 642 176 642 q 116 656 132 642 q 100 701 100 669 q 137 811 100 776 q 226 846 174 846 q 295 826 269 846 q 343 781 321 807 q 366 756 360 761 q 382 750 372 750 q 394 781 394 750 z "},"ö":{"ha":606,"x_min":63,"x_max":543,"o":"m 63 0 m 63 278 q 81 395 63 342 q 132 488 100 449 q 208 548 164 526 q 303 569 253 569 q 397 548 353 569 q 474 488 442 526 q 524 395 506 449 q 543 278 543 342 q 524 162 543 215 q 474 69 506 108 q 397 8 442 31 q 303 -14 353 -14 q 208 8 253 -14 q 132 69 164 31 q 81 162 100 108 q 63 278 63 215 m 424 278 q 389 399 424 357 q 303 440 354 440 q 217 399 253 440 q 182 278 182 357 q 217 159 182 201 q 303 117 253 117 q 389 159 354 117 q 424 278 424 201 m 339 735 q 363 800 339 774 q 421 826 386 826 q 478 800 453 826 q 503 735 503 774 q 478 669 503 696 q 421 643 453 643 q 363 669 386 643 q 339 735 339 696 m 104 735 q 128 800 104 774 q 186 826 153 826 q 244 800 218 826 q 269 735 269 774 q 244 669 269 696 q 186 643 218 643 q 128 669 153 643 q 104 735 104 696 z "},"÷":{"ha":732,"x_min":103,"x_max":646,"o":"m 103 132 m 586 531 q 646 467 646 531 q 586 403 646 403 l 163 403 q 103 468 103 403 q 163 531 103 531 l 586 531 m 285 706 q 311 775 285 746 q 374 804 338 804 q 436 775 410 804 q 463 706 463 746 q 436 635 463 664 q 374 607 410 607 q 311 635 338 607 q 285 706 285 664 m 285 231 q 311 300 285 271 q 374 329 338 329 q 436 300 410 329 q 463 231 463 271 q 436 160 463 189 q 374 132 410 132 q 311 160 338 132 q 285 231 285 189 z "},"ø":{"ha":606,"x_min":63,"x_max":543,"o":"m 63 278 q 81 395 63 342 q 132 488 100 449 q 208 548 164 526 q 303 569 253 569 q 397 547 354 569 l 422 588 q 474 622 444 622 q 517 603 499 622 q 535 561 535 583 q 533 542 535 553 q 525 521 532 532 l 490 464 q 529 380 515 428 q 543 278 543 332 q 524 162 543 215 q 474 69 506 108 q 397 8 442 31 q 303 -14 353 -14 q 208 10 253 -14 l 183 -31 q 133 -65 161 -65 q 89 -44 107 -65 q 71 -1 71 -22 q 72 16 71 7 q 81 35 74 25 l 115 90 q 76 175 90 128 q 63 278 63 222 m 182 278 q 185 244 182 260 q 190 213 188 228 l 329 438 q 316 440 322 439 q 303 440 310 440 q 217 399 253 440 q 182 278 182 357 m 424 278 q 415 344 424 315 l 275 119 q 289 117 282 118 q 303 117 296 117 q 389 159 354 117 q 424 278 424 201 z "},"ù":{"ha":626,"x_min":83,"x_max":532,"o":"m 83 0 m 83 493 q 144 557 83 557 q 190 542 176 557 q 203 493 203 526 l 203 231 q 226 146 203 175 q 303 117 250 117 q 383 149 354 117 q 413 231 413 182 l 413 493 q 474 557 413 557 q 532 493 532 557 l 532 63 q 474 0 532 0 q 419 26 433 0 q 296 -14 371 -14 q 135 48 188 -14 q 83 231 83 110 l 83 493 m 375 700 q 389 660 389 682 q 369 614 389 633 q 326 594 350 594 q 303 601 315 594 q 281 619 290 607 l 172 760 q 158 799 158 774 q 178 846 158 826 q 222 865 199 865 q 268 839 246 865 l 375 700 z "},"ú":{"ha":626,"x_min":83,"x_max":532,"o":"m 83 0 m 83 493 q 144 557 83 557 q 190 542 176 557 q 203 493 203 526 l 203 231 q 226 146 203 175 q 303 117 250 117 q 383 149 354 117 q 413 231 413 182 l 413 493 q 474 557 413 557 q 532 493 532 557 l 532 63 q 474 0 532 0 q 419 26 433 0 q 296 -14 371 -14 q 135 48 188 -14 q 83 231 83 110 l 83 493 m 357 839 q 403 865 379 865 q 447 846 426 865 q 467 799 467 826 q 453 760 467 774 l 344 619 q 299 594 325 594 q 256 614 275 594 q 236 660 236 633 q 250 700 236 682 l 357 839 z "},"û":{"ha":626,"x_min":83,"x_max":532,"o":"m 83 0 m 83 493 q 144 557 83 557 q 190 542 176 557 q 203 493 203 526 l 203 231 q 226 146 203 175 q 303 117 250 117 q 383 149 354 117 q 413 231 413 182 l 413 493 q 474 557 413 557 q 532 493 532 557 l 532 63 q 474 0 532 0 q 419 26 433 0 q 296 -14 371 -14 q 135 48 188 -14 q 83 231 83 110 l 83 493 m 465 700 q 479 660 479 682 q 460 614 479 633 q 417 594 440 594 q 392 600 404 594 q 369 619 379 606 l 311 706 l 253 619 q 231 600 243 606 q 207 594 218 594 q 164 614 183 594 q 144 660 144 633 q 158 700 144 682 l 265 839 q 311 865 286 865 q 358 839 336 865 l 465 700 z "},"ü":{"ha":638,"x_min":83,"x_max":532,"o":"m 83 0 m 83 493 q 144 557 83 557 q 190 542 176 557 q 203 493 203 526 l 203 231 q 226 146 203 175 q 303 117 250 117 q 383 149 354 117 q 413 231 413 182 l 413 493 q 474 557 413 557 q 532 493 532 557 l 532 63 q 474 0 532 0 q 419 26 433 0 q 296 -14 371 -14 q 135 48 188 -14 q 83 231 83 110 l 83 493 m 346 735 q 369 800 346 774 q 428 826 393 826 q 485 800 460 826 q 510 735 510 774 q 485 669 510 696 q 428 643 460 643 q 369 669 393 643 q 346 735 346 696 m 111 735 q 135 800 111 774 q 193 826 160 826 q 251 800 225 826 q 276 735 276 774 q 251 669 276 696 q 193 643 225 643 q 135 669 160 643 q 111 735 111 696 z "},"ý":{"ha":565,"x_min":32,"x_max":533,"o":"m 32 0 m 474 557 q 515 540 496 557 q 533 496 533 522 q 528 468 533 481 l 153 -371 q 130 -399 143 -392 q 101 -407 117 -407 q 61 -390 79 -407 q 43 -343 43 -372 q 49 -312 43 -324 l 224 81 l 39 464 q 32 494 32 481 q 51 540 32 524 q 92 557 69 557 q 121 549 107 557 q 144 521 135 540 l 290 217 l 425 524 q 474 557 439 557 m 338 839 q 383 865 360 865 q 427 846 407 865 q 447 799 447 826 q 433 760 447 774 l 325 619 q 279 594 306 594 q 236 614 256 594 q 217 660 217 633 q 231 700 217 682 l 338 839 z "},"þ":{"ha":636,"x_min":94,"x_max":574,"o":"m 214 531 q 335 569 265 569 q 428 548 385 569 q 505 488 472 526 q 556 395 538 449 q 574 278 574 342 q 556 162 574 215 q 505 69 538 108 q 428 8 472 31 q 335 -14 385 -14 q 269 -5 299 -14 q 214 26 240 4 l 214 -340 q 156 -407 214 -407 q 94 -340 94 -407 l 94 869 q 156 938 94 938 q 214 869 214 938 l 214 531 m 456 278 q 420 399 456 357 q 335 440 385 440 q 250 401 285 440 q 214 286 215 361 l 214 278 q 249 159 214 201 q 335 117 283 117 q 420 159 385 117 q 456 278 456 201 z "},"ÿ":{"ha":565,"x_min":32,"x_max":533,"o":"m 32 0 m 474 557 q 515 540 496 557 q 533 496 533 522 q 528 468 533 481 l 153 -371 q 130 -399 143 -392 q 101 -407 117 -407 q 61 -390 79 -407 q 43 -343 43 -372 q 49 -312 43 -324 l 224 81 l 39 464 q 32 494 32 481 q 51 540 32 524 q 92 557 69 557 q 121 549 107 557 q 144 521 135 540 l 290 217 l 425 524 q 474 557 439 557 m 332 735 q 356 800 332 774 q 414 826 379 826 q 471 800 446 826 q 496 735 496 774 q 471 669 496 696 q 414 643 446 643 q 356 669 379 643 q 332 735 332 696 m 97 735 q 122 800 97 774 q 179 826 146 826 q 237 800 211 826 q 263 735 263 774 q 237 669 263 696 q 179 643 211 643 q 122 669 146 643 q 97 735 97 696 z "},"Ā":{"ha":796,"x_min":32,"x_max":764,"o":"m 32 0 m 147 44 q 96 0 131 0 q 49 19 67 0 q 32 60 32 38 q 38 90 32 79 l 333 889 q 360 926 343 914 q 397 938 378 938 q 435 925 418 938 q 463 888 453 913 l 757 90 q 764 60 764 72 q 746 19 764 38 q 700 0 728 0 q 647 44 664 0 l 547 311 l 249 311 l 147 44 m 296 439 l 500 439 l 397 710 l 296 439 m 532 1174 q 594 1108 594 1174 q 532 1046 594 1046 l 269 1046 q 207 1110 207 1046 q 269 1174 207 1174 l 532 1174 z "},"ā":{"ha":638,"x_min":63,"x_max":543,"o":"m 63 0 m 303 569 q 429 525 376 569 q 482 557 442 557 q 543 490 543 557 l 543 65 q 482 0 543 0 q 429 31 442 0 q 303 -14 376 -14 q 208 8 253 -14 q 132 69 164 31 q 81 162 100 108 q 63 278 63 215 q 81 395 63 342 q 132 488 100 449 q 208 548 164 526 q 303 569 253 569 m 182 278 q 217 159 182 201 q 303 117 253 117 q 389 159 354 117 q 424 278 424 201 l 424 286 q 388 401 422 361 q 303 440 353 440 q 217 399 253 440 q 182 278 182 357 m 440 793 q 503 728 503 793 q 440 665 503 665 l 178 665 q 115 729 115 665 q 178 793 115 793 l 440 793 z "},"Ă":{"ha":796,"x_min":32,"x_max":764,"o":"m 32 0 m 147 44 q 96 0 131 0 q 49 19 67 0 q 32 60 32 38 q 38 90 32 79 l 333 889 q 360 926 343 914 q 397 938 378 938 q 435 925 418 938 q 463 888 453 913 l 757 90 q 764 60 764 72 q 746 19 764 38 q 700 0 728 0 q 647 44 664 0 l 547 311 l 249 311 l 147 44 m 296 439 l 500 439 l 397 710 l 296 439 m 213 1182 q 228 1229 213 1213 q 267 1246 243 1246 q 324 1196 313 1246 q 351 1132 335 1151 q 401 1113 367 1113 q 453 1132 436 1113 q 481 1196 469 1151 q 536 1246 496 1246 q 576 1229 560 1246 q 592 1182 592 1213 q 576 1107 592 1142 q 533 1047 560 1072 q 473 1008 507 1022 q 401 993 439 993 q 330 1008 364 993 q 270 1047 296 1022 q 228 1107 244 1072 q 213 1182 213 1142 z "},"ă":{"ha":638,"x_min":63,"x_max":543,"o":"m 63 0 m 303 569 q 429 525 376 569 q 482 557 442 557 q 543 490 543 557 l 543 65 q 482 0 543 0 q 429 31 442 0 q 303 -14 376 -14 q 208 8 253 -14 q 132 69 164 31 q 81 162 100 108 q 63 278 63 215 q 81 395 63 342 q 132 488 100 449 q 208 548 164 526 q 303 569 253 569 m 182 278 q 217 159 182 201 q 303 117 253 117 q 389 159 354 117 q 424 278 424 201 l 424 286 q 388 401 422 361 q 303 440 353 440 q 217 399 253 440 q 182 278 182 357 m 117 801 q 132 849 117 832 q 171 865 147 865 q 228 815 217 865 q 255 751 239 771 q 306 732 271 732 q 357 751 340 732 q 385 815 374 771 q 440 865 400 865 q 480 849 464 865 q 496 801 496 832 q 480 726 496 761 q 438 667 464 692 q 377 627 411 642 q 306 613 343 613 q 234 627 268 613 q 174 667 200 642 q 133 726 149 692 q 117 801 117 761 z "},"Ą":{"ha":796,"x_min":32,"x_max":796,"o":"m 439 -199 q 456 -114 439 -153 q 501 -42 474 -75 q 565 18 529 -8 q 639 65 601 44 l 547 311 l 249 311 l 147 44 q 96 0 131 0 q 49 19 67 0 q 32 60 32 38 q 38 90 32 79 l 333 889 q 360 926 343 914 q 397 938 378 938 q 435 925 418 938 q 463 888 453 913 l 757 90 q 764 60 764 72 q 755 26 764 42 q 726 3 746 11 q 597 -81 638 -37 q 557 -192 557 -124 q 584 -247 557 -228 q 647 -265 611 -265 q 695 -257 671 -265 q 738 -249 719 -249 q 783 -266 769 -249 q 796 -308 796 -283 q 779 -346 796 -331 q 739 -372 763 -361 q 689 -387 715 -382 q 643 -392 663 -392 q 570 -380 607 -392 q 504 -344 533 -368 q 457 -285 475 -321 q 439 -199 439 -249 m 296 439 l 500 439 l 397 710 l 296 439 z "},"ą":{"ha":638,"x_min":63,"x_max":572,"o":"m 215 -199 q 239 -99 215 -146 q 301 -14 263 -51 q 208 8 251 -14 q 131 69 164 31 q 81 162 99 108 q 63 278 63 215 q 81 395 63 342 q 132 488 100 449 q 208 548 164 526 q 303 569 253 569 q 429 525 376 569 q 482 557 442 557 q 543 490 543 557 l 543 65 q 532 23 543 38 q 501 1 521 8 q 372 -77 410 -31 q 333 -192 333 -124 q 360 -247 333 -228 q 424 -265 388 -265 q 472 -257 447 -265 q 514 -249 496 -249 q 559 -266 546 -249 q 572 -308 572 -283 q 556 -346 572 -331 q 515 -372 539 -361 q 465 -387 492 -382 q 419 -392 439 -392 q 347 -380 383 -392 q 281 -344 310 -368 q 233 -285 251 -321 q 215 -199 215 -249 m 182 278 q 217 159 182 201 q 303 117 253 117 q 389 159 354 117 q 424 278 424 201 l 424 286 q 388 401 422 361 q 303 440 353 440 q 217 399 253 440 q 182 278 182 357 z "},"Ć":{"ha":854,"x_min":69,"x_max":790,"o":"m 69 0 m 69 472 q 99 660 69 572 q 181 812 128 747 q 309 913 233 876 q 479 950 385 950 q 588 935 538 950 q 682 894 638 921 q 732 858 708 879 q 778 810 756 836 q 790 772 790 794 q 772 726 790 746 q 729 707 754 707 q 689 725 707 707 q 597 795 647 769 q 479 821 546 821 q 356 794 410 821 q 265 720 303 767 q 208 610 228 674 q 189 472 189 546 q 208 333 189 397 q 265 220 228 268 q 356 144 303 172 q 479 117 410 117 q 689 214 604 117 q 710 230 699 225 q 729 235 721 235 q 772 216 753 235 q 790 169 790 197 q 788 148 790 160 q 778 128 785 136 q 739 85 760 104 q 696 51 718 67 q 479 -14 603 -14 q 309 24 385 -14 q 181 128 233 63 q 99 283 128 194 q 69 472 69 371 m 513 1219 q 558 1246 535 1246 q 602 1226 582 1246 q 622 1179 622 1207 q 608 1140 622 1154 l 500 1000 q 454 975 481 975 q 411 994 431 975 q 392 1040 392 1014 q 406 1081 392 1063 l 513 1219 z "},"ć":{"ha":568,"x_min":63,"x_max":513,"o":"m 63 0 m 63 278 q 81 395 63 342 q 132 488 100 449 q 208 548 164 526 q 303 569 253 569 q 379 556 342 569 q 446 519 417 543 q 481 483 461 506 q 500 428 500 460 q 482 381 500 400 q 440 361 464 361 q 393 392 411 361 q 358 428 378 417 q 303 440 338 440 q 217 399 253 440 q 182 278 182 357 q 217 159 182 201 q 303 117 253 117 q 396 165 372 117 q 423 200 408 190 q 454 210 438 210 q 495 192 478 210 q 513 146 513 174 q 499 97 513 121 q 460 50 485 74 q 388 3 429 21 q 303 -14 347 -14 q 208 8 253 -14 q 132 69 164 31 q 81 162 100 108 q 63 278 63 215 m 343 839 q 389 865 365 865 q 433 846 413 865 q 453 799 453 826 q 439 760 453 774 l 331 619 q 285 594 311 594 q 242 614 261 594 q 222 660 222 633 q 236 700 222 682 l 343 839 z "},"Ċ":{"ha":854,"x_min":69,"x_max":790,"o":"m 69 0 m 69 472 q 99 660 69 572 q 181 812 128 747 q 309 913 233 876 q 479 950 385 950 q 588 935 538 950 q 682 894 638 921 q 732 858 708 879 q 778 810 756 836 q 790 772 790 794 q 772 726 790 746 q 729 707 754 707 q 689 725 707 707 q 597 795 647 769 q 479 821 546 821 q 356 794 410 821 q 265 720 303 767 q 208 610 228 674 q 189 472 189 546 q 208 333 189 397 q 265 220 228 268 q 356 144 303 172 q 479 117 410 117 q 689 214 604 117 q 710 230 699 225 q 729 235 721 235 q 772 216 753 235 q 790 169 790 197 q 788 148 790 160 q 778 128 785 136 q 739 85 760 104 q 696 51 718 67 q 479 -14 603 -14 q 309 24 385 -14 q 181 128 233 63 q 99 283 128 194 q 69 472 69 371 m 385 1115 q 409 1181 385 1154 q 467 1207 433 1207 q 524 1181 499 1207 q 550 1115 550 1154 q 524 1050 550 1076 q 467 1024 499 1024 q 409 1050 433 1024 q 385 1115 385 1076 z "},"ċ":{"ha":568,"x_min":63,"x_max":513,"o":"m 63 0 m 63 278 q 81 395 63 342 q 132 488 100 449 q 208 548 164 526 q 303 569 253 569 q 379 556 342 569 q 446 519 417 543 q 481 483 461 506 q 500 428 500 460 q 482 381 500 400 q 440 361 464 361 q 393 392 411 361 q 358 428 378 417 q 303 440 338 440 q 217 399 253 440 q 182 278 182 357 q 217 159 182 201 q 303 117 253 117 q 396 165 372 117 q 423 200 408 190 q 454 210 438 210 q 495 192 478 210 q 513 146 513 174 q 499 97 513 121 q 460 50 485 74 q 388 3 429 21 q 303 -14 347 -14 q 208 8 253 -14 q 132 69 164 31 q 81 162 100 108 q 63 278 63 215 m 217 735 q 241 800 217 774 q 299 826 265 826 q 356 800 331 826 q 382 735 382 774 q 356 669 382 696 q 299 643 331 643 q 241 669 265 643 q 217 735 217 696 z "},"Č":{"ha":854,"x_min":69,"x_max":790,"o":"m 69 0 m 69 472 q 99 660 69 572 q 181 812 128 747 q 309 913 233 876 q 479 950 385 950 q 588 935 538 950 q 682 894 638 921 q 732 858 708 879 q 778 810 756 836 q 790 772 790 794 q 772 726 790 746 q 729 707 754 707 q 689 725 707 707 q 597 795 647 769 q 479 821 546 821 q 356 794 410 821 q 265 720 303 767 q 208 610 228 674 q 189 472 189 546 q 208 333 189 397 q 265 220 228 268 q 356 144 303 172 q 479 117 410 117 q 689 214 604 117 q 710 230 699 225 q 729 235 721 235 q 772 216 753 235 q 790 169 790 197 q 788 148 790 160 q 778 128 785 136 q 739 85 760 104 q 696 51 718 67 q 479 -14 603 -14 q 309 24 385 -14 q 181 128 233 63 q 99 283 128 194 q 69 472 69 371 m 315 1140 q 301 1181 301 1158 q 321 1226 301 1207 q 364 1246 340 1246 q 389 1240 376 1246 q 411 1221 401 1235 l 469 1135 l 528 1221 q 550 1240 538 1235 q 574 1246 563 1246 q 617 1226 597 1246 q 636 1181 636 1207 q 622 1140 636 1158 l 515 1001 q 469 975 494 975 q 422 1001 444 975 l 315 1140 z "},"č":{"ha":568,"x_min":63,"x_max":513,"o":"m 63 0 m 63 278 q 81 395 63 342 q 132 488 100 449 q 208 548 164 526 q 303 569 253 569 q 379 556 342 569 q 446 519 417 543 q 481 483 461 506 q 500 428 500 460 q 482 381 500 400 q 440 361 464 361 q 393 392 411 361 q 358 428 378 417 q 303 440 338 440 q 217 399 253 440 q 182 278 182 357 q 217 159 182 201 q 303 117 253 117 q 396 165 372 117 q 423 200 408 190 q 454 210 438 210 q 495 192 478 210 q 513 146 513 174 q 499 97 513 121 q 460 50 485 74 q 388 3 429 21 q 303 -14 347 -14 q 208 8 253 -14 q 132 69 164 31 q 81 162 100 108 q 63 278 63 215 m 144 760 q 131 800 131 778 q 150 846 131 826 q 193 865 169 865 q 218 860 206 865 q 240 840 231 854 l 299 754 l 357 840 q 379 860 367 854 q 403 865 392 865 q 446 846 426 865 q 465 800 465 826 q 451 760 465 778 l 344 621 q 299 594 324 594 q 251 621 274 594 l 144 760 z "},"Ď":{"ha":863,"x_min":94,"x_max":793,"o":"m 94 0 m 793 468 q 760 285 793 369 q 669 136 728 200 q 531 36 611 72 q 357 0 451 0 l 154 0 q 94 63 94 0 l 94 874 q 154 938 94 938 l 353 938 q 529 901 449 938 q 669 801 610 865 q 760 652 728 738 q 793 468 793 567 m 678 465 q 653 594 678 532 q 585 703 629 656 q 482 778 542 750 q 353 807 422 807 l 214 807 l 214 129 l 357 129 q 482 156 424 129 q 584 230 540 183 q 653 338 628 276 q 678 465 678 399 m 226 1140 q 213 1181 213 1158 q 232 1226 213 1207 q 275 1246 251 1246 q 300 1240 288 1246 q 322 1221 313 1235 l 381 1135 l 439 1221 q 461 1240 449 1235 q 485 1246 474 1246 q 528 1226 508 1246 q 547 1181 547 1207 q 533 1140 547 1158 l 426 1001 q 381 975 406 975 q 333 1001 356 975 l 226 1140 z "},"ď":{"ha":742,"x_min":63,"x_max":815,"o":"m 63 0 m 424 869 q 482 938 424 938 q 543 869 543 938 l 543 65 q 482 0 543 0 q 429 31 442 0 q 303 -14 376 -14 q 208 8 253 -14 q 132 69 164 31 q 81 162 100 108 q 63 278 63 215 q 81 395 63 342 q 132 488 100 449 q 208 548 164 526 q 303 569 253 569 q 424 531 372 569 l 424 869 m 182 278 q 217 159 182 201 q 303 117 253 117 q 389 159 354 117 q 424 278 424 201 l 424 286 q 388 401 422 361 q 303 440 353 440 q 217 399 253 440 q 182 278 182 357 m 706 1003 q 751 1029 728 1029 q 795 1010 775 1029 q 815 963 815 990 q 801 924 815 938 l 693 783 q 647 758 674 758 q 604 778 624 758 q 585 824 585 797 q 599 864 585 846 l 706 1003 z "},"Đ":{"ha":854,"x_min":0,"x_max":785,"o":"m 0 0 m 785 468 q 751 285 785 369 q 660 136 718 200 q 521 36 601 72 q 347 0 440 0 l 146 0 q 86 63 86 0 l 86 403 l 60 403 q 0 467 0 403 q 60 531 0 531 l 86 531 l 86 874 q 146 938 86 938 l 343 938 q 520 901 439 938 q 660 801 601 865 q 751 652 718 738 q 785 468 785 567 m 669 465 q 645 594 669 532 q 577 703 621 656 q 474 778 533 750 q 343 807 414 807 l 204 807 l 204 531 l 435 531 q 494 467 494 531 q 435 403 494 403 l 204 403 l 204 129 l 347 129 q 473 156 414 129 q 576 230 532 183 q 644 338 619 276 q 669 465 669 399 z "},"đ":{"ha":632,"x_min":63,"x_max":632,"o":"m 424 733 l 424 869 q 482 938 424 938 q 543 869 543 938 l 543 733 l 572 733 q 632 668 632 733 q 572 606 632 606 l 543 606 l 543 65 q 482 0 543 0 q 429 31 442 0 q 303 -14 376 -14 q 208 8 253 -14 q 132 69 164 31 q 81 162 100 108 q 63 278 63 215 q 81 395 63 342 q 132 488 100 449 q 208 548 164 526 q 303 569 253 569 q 424 531 372 569 l 424 606 l 303 606 q 243 669 243 606 q 303 733 243 733 l 424 733 m 182 278 q 217 159 182 201 q 303 117 253 117 q 389 159 354 117 q 424 278 424 201 l 424 286 q 388 401 422 361 q 303 440 353 440 q 217 399 253 440 q 182 278 182 357 z "},"Ē":{"ha":668,"x_min":94,"x_max":603,"o":"m 94 0 m 603 64 q 544 0 603 0 l 154 0 q 94 63 94 0 l 94 874 q 154 938 94 938 l 544 938 q 603 874 603 938 q 544 807 603 807 l 214 807 l 214 531 l 464 531 q 524 467 524 531 q 464 403 524 403 l 214 403 l 214 129 l 544 129 q 603 64 603 129 m 489 1174 q 551 1108 551 1174 q 489 1046 551 1046 l 226 1046 q 164 1110 164 1046 q 226 1174 164 1174 l 489 1174 z "},"ē":{"ha":590,"x_min":63,"x_max":539,"o":"m 63 0 m 303 569 q 437 523 378 569 q 524 397 496 476 q 533 365 528 386 q 539 325 539 344 q 526 284 539 303 q 486 265 514 265 l 183 265 q 222 157 188 197 q 303 117 256 117 q 396 165 372 117 q 423 200 408 190 q 454 210 438 210 q 495 192 478 210 q 513 146 513 174 q 495 92 513 118 q 461 49 478 67 q 389 1 431 17 q 303 -14 347 -14 q 208 8 253 -14 q 132 69 164 31 q 81 162 100 108 q 63 278 63 215 q 78 378 63 326 q 123 473 93 431 q 198 542 153 515 q 303 569 243 569 m 303 443 q 245 426 268 443 q 203 375 222 410 l 404 375 q 303 443 367 443 m 433 793 q 496 728 496 793 q 433 665 496 665 l 171 665 q 108 729 108 665 q 171 793 108 793 l 433 793 z "},"Ĕ":{"ha":668,"x_min":94,"x_max":603,"o":"m 94 0 m 603 64 q 544 0 603 0 l 154 0 q 94 63 94 0 l 94 874 q 154 938 94 938 l 544 938 q 603 874 603 938 q 544 807 603 807 l 214 807 l 214 531 l 464 531 q 524 467 524 531 q 464 403 524 403 l 214 403 l 214 129 l 544 129 q 603 64 603 129 m 168 1182 q 183 1229 168 1213 q 222 1246 199 1246 q 279 1196 268 1246 q 306 1132 290 1151 q 357 1113 322 1113 q 408 1132 392 1113 q 436 1196 425 1151 q 492 1246 451 1246 q 531 1229 515 1246 q 547 1182 547 1213 q 531 1107 547 1142 q 489 1047 515 1072 q 428 1008 463 1022 q 357 993 394 993 q 285 1008 319 993 q 226 1047 251 1022 q 184 1107 200 1072 q 168 1182 168 1142 z "},"ĕ":{"ha":590,"x_min":63,"x_max":539,"o":"m 63 0 m 303 569 q 437 523 378 569 q 524 397 496 476 q 533 365 528 386 q 539 325 539 344 q 526 284 539 303 q 486 265 514 265 l 183 265 q 222 157 188 197 q 303 117 256 117 q 396 165 372 117 q 423 200 408 190 q 454 210 438 210 q 495 192 478 210 q 513 146 513 174 q 495 92 513 118 q 461 49 478 67 q 389 1 431 17 q 303 -14 347 -14 q 208 8 253 -14 q 132 69 164 31 q 81 162 100 108 q 63 278 63 215 q 78 378 63 326 q 123 473 93 431 q 198 542 153 515 q 303 569 243 569 m 303 443 q 245 426 268 443 q 203 375 222 410 l 404 375 q 303 443 367 443 m 113 801 q 128 849 113 832 q 167 865 143 865 q 224 815 213 865 q 251 751 235 771 q 301 732 267 732 q 353 751 336 732 q 381 815 369 771 q 436 865 396 865 q 476 849 460 865 q 492 801 492 832 q 476 726 492 761 q 433 667 460 692 q 373 627 407 642 q 301 613 339 613 q 230 627 264 613 q 170 667 196 642 q 128 726 144 692 q 113 801 113 761 z "},"Ė":{"ha":668,"x_min":94,"x_max":603,"o":"m 94 0 m 603 64 q 544 0 603 0 l 154 0 q 94 63 94 0 l 94 874 q 154 938 94 938 l 544 938 q 603 874 603 938 q 544 807 603 807 l 214 807 l 214 531 l 464 531 q 524 467 524 531 q 464 403 524 403 l 214 403 l 214 129 l 544 129 q 603 64 603 129 m 276 1115 q 301 1181 276 1154 q 358 1207 325 1207 q 416 1181 390 1207 q 442 1115 442 1154 q 416 1050 442 1076 q 358 1024 390 1024 q 301 1050 325 1024 q 276 1115 276 1076 z "},"ė":{"ha":590,"x_min":63,"x_max":539,"o":"m 63 0 m 303 569 q 437 523 378 569 q 524 397 496 476 q 533 365 528 386 q 539 325 539 344 q 526 284 539 303 q 486 265 514 265 l 183 265 q 222 157 188 197 q 303 117 256 117 q 396 165 372 117 q 423 200 408 190 q 454 210 438 210 q 495 192 478 210 q 513 146 513 174 q 495 92 513 118 q 461 49 478 67 q 389 1 431 17 q 303 -14 347 -14 q 208 8 253 -14 q 132 69 164 31 q 81 162 100 108 q 63 278 63 215 q 78 378 63 326 q 123 473 93 431 q 198 542 153 515 q 303 569 243 569 m 303 443 q 245 426 268 443 q 203 375 222 410 l 404 375 q 303 443 367 443 m 221 735 q 245 800 221 774 q 303 826 269 826 q 360 800 335 826 q 386 735 386 774 q 360 669 386 696 q 303 643 335 643 q 245 669 269 643 q 221 735 221 696 z "},"Ę":{"ha":668,"x_min":100,"x_max":640,"o":"m 283 -201 q 312 -92 283 -143 q 385 -3 340 -42 l 160 -3 q 100 60 100 -3 l 100 871 q 160 935 100 935 l 550 935 q 608 871 608 935 q 550 804 608 804 l 219 804 l 219 528 l 469 528 q 529 464 529 528 q 469 400 529 400 l 219 400 l 219 126 l 550 126 q 608 61 608 126 q 569 0 608 14 q 440 -79 478 -32 q 401 -194 401 -126 q 428 -249 401 -231 q 492 -268 456 -268 q 540 -260 515 -268 q 582 -251 564 -251 q 627 -269 614 -251 q 640 -311 640 -286 q 624 -349 640 -333 q 583 -374 607 -364 q 533 -390 560 -385 q 488 -394 507 -394 q 415 -383 451 -394 q 349 -347 378 -371 q 301 -287 319 -324 q 283 -201 283 -251 z "},"ę":{"ha":590,"x_min":63,"x_max":539,"o":"m 107 -199 q 137 -87 107 -139 q 215 4 167 -35 q 105 108 147 35 q 63 278 63 181 q 78 378 63 326 q 123 473 93 431 q 198 542 153 515 q 303 569 243 569 q 437 523 378 569 q 524 397 496 476 q 533 365 528 386 q 539 325 539 344 q 526 284 539 303 q 486 265 514 265 l 183 265 q 222 157 188 197 q 303 117 256 117 q 396 165 372 117 q 423 200 408 190 q 454 210 438 210 q 495 192 478 210 q 513 146 513 174 q 502 101 513 122 q 475 60 492 79 q 437 27 458 42 q 394 3 415 13 q 266 -82 307 -40 q 225 -192 225 -124 q 252 -247 225 -228 q 315 -265 279 -265 q 363 -257 339 -265 q 406 -249 388 -249 q 451 -266 438 -249 q 464 -308 464 -283 q 447 -346 464 -331 q 407 -372 431 -361 q 357 -387 383 -382 q 311 -392 331 -392 q 238 -380 275 -392 q 172 -344 201 -368 q 125 -285 143 -321 q 107 -199 107 -249 m 303 443 q 245 426 268 443 q 203 375 222 410 l 404 375 q 303 443 367 443 z "},"Ě":{"ha":668,"x_min":94,"x_max":603,"o":"m 94 0 m 603 64 q 544 0 603 0 l 154 0 q 94 63 94 0 l 94 874 q 154 938 94 938 l 544 938 q 603 874 603 938 q 544 807 603 807 l 214 807 l 214 531 l 464 531 q 524 467 524 531 q 464 403 524 403 l 214 403 l 214 129 l 544 129 q 603 64 603 129 m 204 1140 q 190 1181 190 1158 q 210 1226 190 1207 q 253 1246 229 1246 q 278 1240 265 1246 q 300 1221 290 1235 l 358 1135 l 417 1221 q 439 1240 426 1235 q 463 1246 451 1246 q 506 1226 486 1246 q 525 1181 525 1207 q 511 1140 525 1158 l 404 1001 q 358 975 383 975 q 311 1001 333 975 l 204 1140 z "},"ě":{"ha":590,"x_min":63,"x_max":539,"o":"m 63 0 m 303 569 q 437 523 378 569 q 524 397 496 476 q 533 365 528 386 q 539 325 539 344 q 526 284 539 303 q 486 265 514 265 l 183 265 q 222 157 188 197 q 303 117 256 117 q 396 165 372 117 q 423 200 408 190 q 454 210 438 210 q 495 192 478 210 q 513 146 513 174 q 495 92 513 118 q 461 49 478 67 q 389 1 431 17 q 303 -14 347 -14 q 208 8 253 -14 q 132 69 164 31 q 81 162 100 108 q 63 278 63 215 q 78 378 63 326 q 123 473 93 431 q 198 542 153 515 q 303 569 243 569 m 303 443 q 245 426 268 443 q 203 375 222 410 l 404 375 q 303 443 367 443 m 143 760 q 129 800 129 778 q 149 846 129 826 q 192 865 168 865 q 217 860 204 865 q 239 840 229 854 l 297 754 l 356 840 q 378 860 365 854 q 401 865 390 865 q 444 846 425 865 q 464 800 464 826 q 450 760 464 778 l 343 621 q 297 594 322 594 q 250 621 272 594 l 143 760 z "},"Ğ":{"ha":979,"x_min":69,"x_max":913,"o":"m 69 0 m 853 531 q 913 467 913 531 q 883 281 913 368 q 798 128 853 194 q 665 24 743 63 q 493 -14 588 -14 q 321 24 399 -14 q 188 128 243 63 q 101 283 132 194 q 69 472 69 371 q 101 660 69 572 q 190 812 133 747 q 324 913 246 876 q 496 950 403 950 q 610 936 554 950 q 711 894 667 922 q 789 835 758 865 q 819 772 819 804 q 801 726 819 746 q 758 707 783 707 q 715 728 736 707 q 619 795 676 769 q 496 821 563 821 q 370 794 426 821 q 274 720 314 767 q 211 610 233 674 q 189 472 189 546 q 210 333 189 397 q 272 220 232 268 q 367 144 311 172 q 493 117 424 117 q 605 138 554 117 q 694 197 656 160 q 756 288 732 235 q 789 403 781 340 l 432 403 q 372 468 372 403 q 432 531 372 531 l 853 531 m 301 1182 q 317 1229 301 1213 q 356 1246 332 1246 q 413 1196 401 1246 q 440 1132 424 1151 q 490 1113 456 1113 q 542 1132 525 1113 q 569 1196 558 1151 q 625 1246 585 1246 q 665 1229 649 1246 q 681 1182 681 1213 q 665 1107 681 1142 q 622 1047 649 1072 q 562 1008 596 1022 q 490 993 528 993 q 419 1008 453 993 q 359 1047 385 1022 q 317 1107 333 1072 q 301 1182 301 1142 z "},"ğ":{"ha":638,"x_min":63,"x_max":543,"o":"m 63 0 m 424 26 q 303 -14 372 -14 q 208 8 253 -14 q 132 69 164 31 q 81 162 100 108 q 63 278 63 215 q 81 395 63 342 q 132 488 100 449 q 208 548 164 526 q 303 569 253 569 q 429 526 376 569 q 482 557 442 557 q 543 492 543 557 l 543 -129 q 526 -247 543 -193 q 479 -339 510 -300 q 403 -399 449 -378 q 303 -421 358 -421 q 219 -404 258 -421 q 149 -357 181 -387 q 113 -316 132 -340 q 94 -262 94 -292 q 112 -217 94 -235 q 153 -199 129 -199 q 183 -208 168 -199 q 210 -243 199 -218 q 303 -292 233 -292 q 394 -250 365 -292 q 424 -129 424 -208 l 424 26 m 182 278 q 217 159 182 201 q 303 117 253 117 q 388 157 353 117 q 424 269 422 197 l 424 278 q 389 399 424 357 q 303 440 354 440 q 217 399 253 440 q 182 278 182 357 m 117 801 q 132 849 117 832 q 171 865 147 865 q 228 815 217 865 q 255 751 239 771 q 306 732 271 732 q 357 751 340 732 q 385 815 374 771 q 440 865 400 865 q 480 849 464 865 q 496 801 496 832 q 480 726 496 761 q 438 667 464 692 q 377 627 411 642 q 306 613 343 613 q 234 627 268 613 q 174 667 200 642 q 133 726 149 692 q 117 801 117 761 z "},"Ġ":{"ha":979,"x_min":69,"x_max":913,"o":"m 69 0 m 853 531 q 913 467 913 531 q 883 281 913 368 q 798 128 853 194 q 665 24 743 63 q 493 -14 588 -14 q 321 24 399 -14 q 188 128 243 63 q 101 283 132 194 q 69 472 69 371 q 101 660 69 572 q 190 812 133 747 q 324 913 246 876 q 496 950 403 950 q 610 936 554 950 q 711 894 667 922 q 789 835 758 865 q 819 772 819 804 q 801 726 819 746 q 758 707 783 707 q 715 728 736 707 q 619 795 676 769 q 496 821 563 821 q 370 794 426 821 q 274 720 314 767 q 211 610 233 674 q 189 472 189 546 q 210 333 189 397 q 272 220 232 268 q 367 144 311 172 q 493 117 424 117 q 605 138 554 117 q 694 197 656 160 q 756 288 732 235 q 789 403 781 340 l 432 403 q 372 468 372 403 q 432 531 372 531 l 853 531 m 408 1115 q 433 1181 408 1154 q 490 1207 457 1207 q 548 1181 522 1207 q 574 1115 574 1154 q 548 1050 574 1076 q 490 1024 522 1024 q 433 1050 457 1024 q 408 1115 408 1076 z "},"ġ":{"ha":638,"x_min":63,"x_max":543,"o":"m 63 0 m 424 26 q 303 -14 372 -14 q 208 8 253 -14 q 132 69 164 31 q 81 162 100 108 q 63 278 63 215 q 81 395 63 342 q 132 488 100 449 q 208 548 164 526 q 303 569 253 569 q 429 526 376 569 q 482 557 442 557 q 543 492 543 557 l 543 -129 q 526 -247 543 -193 q 479 -339 510 -300 q 403 -399 449 -378 q 303 -421 358 -421 q 219 -404 258 -421 q 149 -357 181 -387 q 113 -316 132 -340 q 94 -262 94 -292 q 112 -217 94 -235 q 153 -199 129 -199 q 183 -208 168 -199 q 210 -243 199 -218 q 303 -292 233 -292 q 394 -250 365 -292 q 424 -129 424 -208 l 424 26 m 182 278 q 217 159 182 201 q 303 117 253 117 q 388 157 353 117 q 424 269 422 197 l 424 278 q 389 399 424 357 q 303 440 354 440 q 217 399 253 440 q 182 278 182 357 m 224 735 q 248 800 224 774 q 306 826 272 826 q 363 800 338 826 q 389 735 389 774 q 363 669 389 696 q 306 643 338 643 q 248 669 272 643 q 224 735 224 696 z "},"Ģ":{"ha":979,"x_min":69,"x_max":913,"o":"m 69 0 m 853 531 q 913 467 913 531 q 883 281 913 368 q 798 128 853 194 q 665 24 743 63 q 493 -14 588 -14 q 321 24 399 -14 q 188 128 243 63 q 101 283 132 194 q 69 472 69 371 q 101 660 69 572 q 190 812 133 747 q 324 913 246 876 q 496 950 403 950 q 610 936 554 950 q 711 894 667 922 q 789 835 758 865 q 819 772 819 804 q 801 726 819 746 q 758 707 783 707 q 715 728 736 707 q 619 795 676 769 q 496 821 563 821 q 370 794 426 821 q 274 720 314 767 q 211 610 233 674 q 189 472 189 546 q 210 333 189 397 q 272 220 232 268 q 367 144 311 172 q 493 117 424 117 q 605 138 554 117 q 694 197 656 160 q 756 288 732 235 q 789 403 781 340 l 432 403 q 372 468 372 403 q 432 531 372 531 l 853 531 m 592 -154 q 581 -229 592 -193 q 551 -294 569 -265 q 507 -339 532 -322 q 456 -356 482 -356 q 424 -344 432 -356 q 417 -322 417 -333 q 428 -290 417 -301 q 440 -264 440 -278 q 437 -233 440 -246 q 428 -209 433 -221 q 420 -185 424 -197 q 417 -153 417 -172 q 441 -76 417 -101 q 504 -50 465 -50 q 567 -79 542 -50 q 592 -154 592 -108 z "},"ģ":{"ha":638,"x_min":63,"x_max":543,"o":"m 63 0 m 424 26 q 303 -14 372 -14 q 208 8 253 -14 q 132 69 164 31 q 81 162 100 108 q 63 278 63 215 q 81 395 63 342 q 132 488 100 449 q 208 548 164 526 q 303 569 253 569 q 429 526 376 569 q 482 557 442 557 q 543 492 543 557 l 543 -129 q 526 -247 543 -193 q 479 -339 510 -300 q 403 -399 449 -378 q 303 -421 358 -421 q 219 -404 258 -421 q 149 -357 181 -387 q 113 -316 132 -340 q 94 -262 94 -292 q 112 -217 94 -235 q 153 -199 129 -199 q 183 -208 168 -199 q 210 -243 199 -218 q 303 -292 233 -292 q 394 -250 365 -292 q 424 -129 424 -208 l 424 26 m 182 278 q 217 159 182 201 q 303 117 253 117 q 388 157 353 117 q 424 269 422 197 l 424 278 q 389 399 424 357 q 303 440 354 440 q 217 399 253 440 q 182 278 182 357 m 231 715 q 242 790 231 754 q 272 854 253 826 q 315 899 290 882 q 367 917 339 917 q 398 906 390 917 q 406 883 406 894 q 394 851 406 863 q 382 825 382 839 q 385 794 382 807 q 394 770 389 782 q 402 745 399 758 q 406 714 406 732 q 381 637 406 663 q 318 611 357 611 q 256 640 281 611 q 231 715 231 669 z "},"Ħ":{"ha":796,"x_min":22,"x_max":774,"o":"m 90 788 l 90 869 q 151 938 90 938 q 210 869 210 938 l 210 788 l 588 788 l 588 869 q 647 938 588 938 q 707 869 707 938 l 707 788 l 714 788 q 774 724 774 788 q 714 660 774 660 l 707 660 l 707 65 q 647 0 707 0 q 588 65 588 0 l 588 403 l 210 403 l 210 65 q 151 0 210 0 q 90 65 90 0 l 90 660 l 82 660 q 22 725 22 660 q 82 788 22 788 l 90 788 m 588 531 l 588 660 l 210 660 l 210 531 l 588 531 z "},"ħ":{"ha":619,"x_min":0,"x_max":536,"o":"m 89 733 l 89 874 q 147 938 89 938 q 208 874 208 938 l 208 733 l 329 733 q 389 668 389 733 q 329 606 389 606 l 208 606 l 208 536 q 263 561 232 553 q 325 569 293 569 q 485 507 433 569 q 536 326 536 444 l 536 63 q 475 0 536 0 q 430 15 443 0 q 417 63 417 31 l 417 326 q 393 410 417 381 q 317 440 369 440 q 238 407 267 440 q 208 326 208 374 l 208 63 q 147 0 208 0 q 89 63 89 0 l 89 606 l 60 606 q 0 669 0 606 q 60 733 0 733 l 89 733 z "},"Ī":{"ha":426,"x_min":19,"x_max":407,"o":"m 19 0 m 272 807 l 272 129 l 289 129 q 347 63 347 129 q 289 0 347 0 l 138 0 q 78 63 78 0 q 138 129 78 129 l 153 129 l 153 807 l 138 807 q 78 874 78 807 q 138 938 78 938 l 289 938 q 347 874 347 938 q 289 807 347 807 l 272 807 m 344 1174 q 407 1108 407 1174 q 344 1046 407 1046 l 82 1046 q 19 1110 19 1046 q 82 1174 19 1174 l 344 1174 z "},"ī":{"ha":397,"x_min":4,"x_max":392,"o":"m 4 0 m 260 65 q 200 0 260 0 q 140 65 140 0 l 140 492 q 200 557 140 557 q 260 492 260 557 l 260 65 m 329 793 q 392 728 392 793 q 329 665 392 665 l 67 665 q 4 729 4 665 q 67 793 4 793 l 329 793 z "},"Ĭ":{"ha":428,"x_min":33,"x_max":413,"o":"m 33 0 m 282 807 l 282 129 l 299 129 q 357 63 357 129 q 299 0 357 0 l 147 0 q 88 63 88 0 q 147 129 88 129 l 163 129 l 163 807 l 147 807 q 88 874 88 807 q 147 938 88 938 l 299 938 q 357 874 357 938 q 299 807 357 807 l 282 807 m 33 1182 q 49 1229 33 1213 q 88 1246 64 1246 q 144 1196 133 1246 q 172 1132 156 1151 q 222 1113 188 1113 q 274 1132 257 1113 q 301 1196 290 1151 q 357 1246 317 1246 q 397 1229 381 1246 q 413 1182 413 1213 q 397 1107 413 1142 q 354 1047 381 1072 q 294 1008 328 1022 q 222 993 260 993 q 151 1008 185 993 q 91 1047 117 1022 q 49 1107 65 1072 q 33 1182 33 1142 z "},"ĭ":{"ha":396,"x_min":8,"x_max":388,"o":"m 8 0 m 260 65 q 200 0 260 0 q 140 65 140 0 l 140 492 q 200 557 140 557 q 260 492 260 557 l 260 65 m 8 801 q 24 849 8 832 q 63 865 39 865 q 119 815 108 865 q 147 751 131 771 q 197 732 163 732 q 249 751 232 732 q 276 815 265 771 q 332 865 292 865 q 372 849 356 865 q 388 801 388 832 q 372 726 388 761 q 329 667 356 692 q 269 627 303 642 q 197 613 235 613 q 126 627 160 613 q 66 667 92 642 q 24 726 40 692 q 8 801 8 761 z "},"Į":{"ha":436,"x_min":28,"x_max":385,"o":"m 28 -199 q 56 -90 28 -140 q 131 0 85 -39 q 83 63 83 6 q 143 129 83 129 l 158 129 l 158 807 l 143 807 q 83 874 83 807 q 143 938 83 938 l 294 938 q 353 874 353 938 q 294 807 353 807 l 278 807 l 278 129 l 294 129 q 353 63 353 129 q 342 22 353 35 q 313 1 332 8 q 183 -76 221 -29 q 146 -192 146 -124 q 173 -247 146 -228 q 236 -265 200 -265 q 284 -257 260 -265 q 326 -249 308 -249 q 372 -266 358 -249 q 385 -308 385 -283 q 368 -346 385 -331 q 328 -372 351 -361 q 278 -387 304 -382 q 232 -392 251 -392 q 159 -380 196 -392 q 93 -344 122 -368 q 46 -285 64 -321 q 28 -199 28 -249 z "},"į":{"ha":404,"x_min":-37,"x_max":319,"o":"m -37 -199 q -20 -114 -37 -154 q 26 -40 -3 -74 q 92 22 54 -6 q 169 68 129 49 l 169 492 q 229 557 169 557 q 289 492 289 557 l 289 65 q 278 23 289 38 q 249 1 268 8 q 119 -77 157 -31 q 81 -192 81 -124 q 108 -247 81 -228 q 171 -265 135 -265 q 219 -257 194 -265 q 261 -249 243 -249 q 306 -266 293 -249 q 319 -308 319 -283 q 303 -346 319 -331 q 263 -372 286 -361 q 213 -387 239 -382 q 167 -392 186 -392 q 94 -380 131 -392 q 28 -344 57 -368 q -19 -285 -1 -321 q -37 -199 -37 -249 m 149 700 q 172 763 149 738 q 229 789 194 789 q 286 763 263 789 q 310 700 310 738 q 286 636 310 663 q 229 610 263 610 q 172 636 194 610 q 149 700 149 663 z "},"İ":{"ha":436,"x_min":83,"x_max":353,"o":"m 83 0 m 278 807 l 278 129 l 294 129 q 353 63 353 129 q 294 0 353 0 l 143 0 q 83 63 83 0 q 143 129 83 129 l 158 129 l 158 807 l 143 807 q 83 874 83 807 q 143 938 83 938 l 294 938 q 353 874 353 938 q 294 807 353 807 l 278 807 m 136 1115 q 160 1181 136 1154 q 218 1207 185 1207 q 276 1181 250 1207 q 301 1115 301 1154 q 276 1050 301 1076 q 218 1024 250 1024 q 160 1050 185 1024 q 136 1115 136 1076 z "},"ı":{"ha":353,"x_min":117,"x_max":236,"o":"m 236 65 q 176 0 236 0 q 117 65 117 0 l 117 492 q 176 557 117 557 q 236 492 236 557 l 236 65 z "},"Ĳ":{"ha":953,"x_min":94,"x_max":869,"o":"m 94 0 m 869 336 q 844 191 869 256 q 776 81 819 126 q 672 10 732 35 q 543 -14 613 -14 q 448 2 494 -14 q 361 44 401 18 q 308 91 332 64 q 265 149 285 118 q 254 174 258 160 q 250 199 250 189 q 268 247 250 231 q 310 263 286 263 q 347 252 333 263 q 374 218 360 242 q 448 138 404 160 q 544 117 492 117 q 696 178 642 117 q 750 336 750 240 l 750 871 q 810 938 750 938 q 869 871 869 938 l 869 336 m 214 65 q 156 0 214 0 q 94 65 94 0 l 94 869 q 156 938 94 938 q 214 869 214 938 l 214 65 z "},"ĳ":{"ha":604,"x_min":94,"x_max":510,"o":"m 94 0 m 235 65 q 175 0 235 0 q 115 65 115 0 l 115 492 q 175 557 115 557 q 235 492 235 557 l 235 65 m 94 700 q 117 763 94 738 q 175 789 140 789 q 232 763 208 789 q 256 700 256 738 q 232 636 256 663 q 175 610 208 610 q 117 636 140 610 q 94 700 94 663 m 489 -185 q 438 -359 489 -297 q 290 -421 388 -421 q 157 -367 211 -421 q 117 -306 133 -343 q 101 -233 101 -269 q 117 -186 101 -203 q 156 -169 132 -169 q 213 -219 200 -169 q 234 -271 219 -250 q 290 -292 249 -292 q 369 -185 369 -292 l 369 492 q 429 557 369 557 q 489 492 489 557 l 489 -185 m 349 700 q 372 763 349 738 q 429 789 396 789 q 487 763 464 789 q 510 700 510 738 q 487 636 510 663 q 429 610 464 610 q 372 636 396 610 q 349 700 349 663 z "},"Ķ":{"ha":726,"x_min":94,"x_max":676,"o":"m 94 0 m 214 65 q 156 0 214 0 q 94 65 94 0 l 94 869 q 156 938 94 938 q 214 869 214 938 l 214 599 l 569 921 q 590 934 579 931 q 610 938 600 938 q 656 917 636 938 q 676 871 676 896 q 653 826 676 847 l 258 478 l 651 115 q 672 68 672 96 q 654 21 672 42 q 613 0 636 0 q 572 18 590 0 l 214 354 l 214 65 m 463 -154 q 451 -229 463 -193 q 422 -294 440 -265 q 378 -339 403 -322 q 326 -356 353 -356 q 295 -344 303 -356 q 288 -322 288 -333 q 299 -290 288 -301 q 311 -264 311 -278 q 308 -233 311 -246 q 299 -209 304 -221 q 291 -185 294 -197 q 288 -153 288 -172 q 312 -76 288 -101 q 375 -50 336 -50 q 438 -79 413 -50 q 463 -154 463 -108 z "},"ķ":{"ha":553,"x_min":94,"x_max":514,"o":"m 94 0 m 488 117 q 514 65 514 99 q 495 19 514 39 q 453 0 476 0 q 435 3 444 0 q 415 14 426 6 l 214 167 l 214 63 q 156 0 214 0 q 94 63 94 0 l 94 874 q 156 938 94 938 q 214 874 214 938 l 214 390 l 411 543 q 447 557 429 557 q 490 536 472 557 q 508 490 508 515 q 485 440 508 460 l 264 278 l 488 117 m 385 -154 q 374 -229 385 -193 q 344 -294 363 -265 q 300 -339 325 -322 q 249 -356 275 -356 q 217 -344 225 -356 q 210 -322 210 -333 q 222 -290 210 -301 q 233 -264 233 -278 q 230 -233 233 -246 q 222 -209 226 -221 q 213 -185 217 -197 q 210 -153 210 -172 q 234 -76 210 -101 q 297 -50 258 -50 q 360 -79 335 -50 q 385 -154 385 -108 z "},"Ĺ":{"ha":636,"x_min":94,"x_max":603,"o":"m 94 0 m 603 64 q 544 0 603 0 l 153 0 q 94 63 94 0 l 94 869 q 156 938 94 938 q 214 869 214 938 l 214 129 l 544 129 q 603 64 603 129 m 300 1219 q 346 1246 322 1246 q 390 1226 369 1246 q 410 1179 410 1207 q 396 1140 410 1154 l 288 1000 q 242 975 268 975 q 199 994 218 975 q 179 1040 179 1014 q 193 1081 179 1063 l 300 1219 z "},"ĺ":{"ha":324,"x_min":76,"x_max":307,"o":"m 76 0 m 213 65 q 154 0 213 0 q 93 65 93 0 l 93 869 q 154 938 93 938 q 213 869 213 938 l 213 65 m 197 1219 q 243 1246 219 1246 q 287 1226 267 1246 q 307 1179 307 1207 q 293 1140 307 1154 l 185 1000 q 139 975 165 975 q 96 994 115 975 q 76 1040 76 1014 q 90 1081 76 1063 l 197 1219 z "},"Ļ":{"ha":636,"x_min":94,"x_max":603,"o":"m 94 0 m 603 64 q 544 0 603 0 l 153 0 q 94 63 94 0 l 94 869 q 156 938 94 938 q 214 869 214 938 l 214 129 l 544 129 q 603 64 603 129 m 432 -154 q 421 -229 432 -193 q 391 -294 410 -265 q 347 -339 372 -322 q 296 -356 322 -356 q 265 -344 272 -356 q 257 -322 257 -333 q 269 -290 257 -301 q 281 -264 281 -278 q 277 -233 281 -246 q 269 -209 274 -221 q 260 -185 264 -197 q 257 -153 257 -172 q 281 -76 257 -101 q 344 -50 306 -50 q 407 -79 382 -50 q 432 -154 432 -108 z "},"ļ":{"ha":304,"x_min":67,"x_max":242,"o":"m 67 0 m 214 65 q 156 0 214 0 q 94 65 94 0 l 94 869 q 156 938 94 938 q 214 869 214 938 l 214 65 m 242 -154 q 231 -229 242 -193 q 201 -294 219 -265 q 157 -339 182 -322 q 106 -356 132 -356 q 74 -344 82 -356 q 67 -322 67 -333 q 78 -290 67 -301 q 90 -264 90 -278 q 87 -233 90 -246 q 78 -209 83 -221 q 70 -185 74 -197 q 67 -153 67 -172 q 91 -76 67 -101 q 154 -50 115 -50 q 217 -79 192 -50 q 242 -154 242 -108 z "},"Ľ":{"ha":636,"x_min":94,"x_max":603,"o":"m 94 0 m 603 64 q 544 0 603 0 l 153 0 q 94 63 94 0 l 94 869 q 156 938 94 938 q 214 869 214 938 l 214 129 l 544 129 q 603 64 603 129 m 390 1003 q 436 1029 413 1029 q 480 1010 460 1029 q 500 963 500 990 q 486 924 500 938 l 378 783 q 332 758 358 758 q 289 778 308 758 q 269 824 269 797 q 283 864 269 846 l 390 1003 z "},"ľ":{"ha":414,"x_min":94,"x_max":486,"o":"m 94 0 m 214 65 q 156 0 214 0 q 94 65 94 0 l 94 869 q 156 938 94 938 q 214 869 214 938 l 214 65 m 376 1003 q 422 1029 399 1029 q 466 1010 446 1029 q 486 963 486 990 q 472 924 486 938 l 364 783 q 318 758 344 758 q 275 778 294 758 q 256 824 256 797 q 269 864 256 846 l 376 1003 z "},"Ŀ":{"ha":636,"x_min":94,"x_max":603,"o":"m 94 0 m 603 64 q 544 0 603 0 l 153 0 q 94 63 94 0 l 94 869 q 156 938 94 938 q 214 869 214 938 l 214 129 l 544 129 q 603 64 603 129 m 310 526 q 334 592 310 565 q 392 618 358 618 q 449 592 424 618 q 475 526 475 565 q 449 461 475 488 q 392 435 424 435 q 334 461 358 435 q 310 526 310 488 z "},"ŀ":{"ha":376,"x_min":94,"x_max":425,"o":"m 94 0 m 214 65 q 156 0 214 0 q 94 65 94 0 l 94 869 q 156 938 94 938 q 214 869 214 938 l 214 65 m 260 526 q 284 592 260 565 q 342 618 308 618 q 399 592 374 618 q 425 526 425 565 q 399 461 425 488 q 342 435 374 435 q 284 461 308 435 q 260 526 260 488 z "},"Ł":{"ha":656,"x_min":25,"x_max":622,"o":"m 114 571 l 114 869 q 175 938 114 938 q 233 869 233 938 l 233 629 l 381 703 q 408 710 399 710 q 451 689 433 710 q 468 644 468 668 q 435 588 468 606 l 233 488 l 233 129 l 564 129 q 622 64 622 129 q 564 0 622 0 l 172 0 q 114 63 114 0 l 114 429 q 83 421 94 421 q 41 442 57 421 q 25 488 25 464 q 58 543 25 524 l 114 571 z "},"ł":{"ha":500,"x_min":29,"x_max":471,"o":"m 310 65 q 251 0 310 0 q 190 65 190 0 l 190 465 l 115 428 q 88 421 97 421 q 45 442 61 421 q 29 488 29 464 q 37 520 29 506 q 63 543 44 535 l 190 606 l 190 869 q 251 938 190 938 q 310 869 310 938 l 310 667 l 383 703 q 413 710 401 710 q 454 689 438 710 q 471 644 471 668 q 438 588 471 603 l 310 524 l 310 65 z "},"Ń":{"ha":811,"x_min":94,"x_max":717,"o":"m 94 0 m 651 0 q 616 10 635 0 q 586 40 597 21 l 214 683 l 214 67 q 154 0 214 0 q 94 67 94 0 l 94 860 q 114 918 94 899 q 161 938 133 938 q 199 926 185 938 q 225 896 214 915 l 597 254 l 597 869 q 657 938 597 938 q 717 869 717 938 l 717 78 q 697 19 717 38 q 651 0 678 0 m 450 1219 q 496 1246 472 1246 q 540 1226 519 1246 q 560 1179 560 1207 q 546 1140 560 1154 l 438 1000 q 392 975 418 975 q 349 994 368 975 q 329 1040 329 1014 q 343 1081 329 1063 l 450 1219 z "},"ń":{"ha":625,"x_min":94,"x_max":542,"o":"m 94 0 m 542 63 q 481 0 542 0 q 435 15 449 0 q 422 63 422 31 l 422 326 q 399 410 422 381 q 322 440 375 440 q 243 407 272 440 q 214 326 214 374 l 214 63 q 153 0 214 0 q 94 63 94 0 l 94 493 q 153 557 94 557 q 206 531 193 557 q 263 560 232 551 q 331 569 293 569 q 490 507 439 569 q 542 326 542 444 l 542 63 m 357 839 q 403 865 379 865 q 447 846 426 865 q 467 799 467 826 q 453 760 467 774 l 344 619 q 299 594 325 594 q 256 614 275 594 q 236 660 236 633 q 250 700 236 682 l 357 839 z "},"Ņ":{"ha":811,"x_min":94,"x_max":717,"o":"m 94 0 m 651 0 q 616 10 635 0 q 586 40 597 21 l 214 683 l 214 67 q 154 0 214 0 q 94 67 94 0 l 94 860 q 114 918 94 899 q 161 938 133 938 q 199 926 185 938 q 225 896 214 915 l 597 254 l 597 869 q 657 938 597 938 q 717 869 717 938 l 717 78 q 697 19 717 38 q 651 0 678 0 m 514 -154 q 503 -229 514 -193 q 473 -294 492 -265 q 429 -339 454 -322 q 378 -356 404 -356 q 347 -344 354 -356 q 339 -322 339 -333 q 351 -290 339 -301 q 363 -264 363 -278 q 359 -233 363 -246 q 351 -209 356 -221 q 342 -185 346 -197 q 339 -153 339 -172 q 363 -76 339 -101 q 426 -50 388 -50 q 489 -79 464 -50 q 514 -154 514 -108 z "},"ņ":{"ha":625,"x_min":94,"x_max":542,"o":"m 94 0 m 542 63 q 481 0 542 0 q 435 15 449 0 q 422 63 422 31 l 422 326 q 399 410 422 381 q 322 440 375 440 q 243 407 272 440 q 214 326 214 374 l 214 63 q 153 0 214 0 q 94 63 94 0 l 94 493 q 153 557 94 557 q 206 531 193 557 q 263 560 232 551 q 331 569 293 569 q 490 507 439 569 q 542 326 542 444 l 542 63 m 410 -154 q 399 -229 410 -193 q 369 -294 388 -265 q 325 -339 350 -322 q 274 -356 300 -356 q 242 -344 250 -356 q 235 -322 235 -333 q 247 -290 235 -301 q 258 -264 258 -278 q 255 -233 258 -246 q 247 -209 251 -221 q 238 -185 242 -197 q 235 -153 235 -172 q 259 -76 235 -101 q 322 -50 283 -50 q 385 -79 360 -50 q 410 -154 410 -108 z "},"Ň":{"ha":811,"x_min":94,"x_max":717,"o":"m 94 0 m 651 0 q 616 10 635 0 q 586 40 597 21 l 214 683 l 214 67 q 154 0 214 0 q 94 67 94 0 l 94 860 q 114 918 94 899 q 161 938 133 938 q 199 926 185 938 q 225 896 214 915 l 597 254 l 597 869 q 657 938 597 938 q 717 869 717 938 l 717 78 q 697 19 717 38 q 651 0 678 0 m 253 1140 q 239 1181 239 1158 q 258 1226 239 1207 q 301 1246 278 1246 q 326 1240 314 1246 q 349 1221 339 1235 l 407 1135 l 465 1221 q 488 1240 475 1235 q 511 1246 500 1246 q 554 1226 535 1246 q 574 1181 574 1207 q 560 1140 574 1158 l 453 1001 q 407 975 432 975 q 360 1001 382 975 l 253 1140 z "},"ň":{"ha":625,"x_min":94,"x_max":542,"o":"m 94 0 m 542 63 q 481 0 542 0 q 435 15 449 0 q 422 63 422 31 l 422 326 q 399 410 422 381 q 322 440 375 440 q 243 407 272 440 q 214 326 214 374 l 214 63 q 153 0 214 0 q 94 63 94 0 l 94 493 q 153 557 94 557 q 206 531 193 557 q 263 560 232 551 q 331 569 293 569 q 490 507 439 569 q 542 326 542 444 l 542 63 m 158 760 q 144 800 144 778 q 164 846 144 826 q 207 865 183 865 q 232 860 219 865 q 254 840 244 854 l 313 754 l 371 840 q 393 860 381 854 q 417 865 406 865 q 460 846 440 865 q 479 800 479 826 q 465 760 479 778 l 358 621 q 313 594 338 594 q 265 621 288 594 l 158 760 z "},"Ŋ":{"ha":811,"x_min":94,"x_max":717,"o":"m 717 -185 q 666 -359 717 -297 q 518 -421 615 -421 q 385 -367 439 -421 q 363 -337 372 -354 q 345 -301 353 -319 q 333 -264 338 -282 q 329 -233 329 -246 q 344 -186 329 -203 q 383 -169 360 -169 q 440 -219 428 -169 q 462 -271 447 -250 q 518 -292 476 -292 q 597 -185 597 -292 l 597 19 l 214 683 l 214 67 q 154 0 214 0 q 94 67 94 0 l 94 860 q 114 918 94 899 q 161 938 133 938 q 195 926 176 938 q 225 896 214 915 l 597 254 l 597 869 q 657 938 597 938 q 717 869 717 938 l 717 -185 z "},"ŋ":{"ha":625,"x_min":94,"x_max":542,"o":"m 542 -185 q 491 -359 542 -297 q 343 -421 440 -421 q 267 -404 301 -421 q 207 -361 232 -387 q 168 -301 182 -335 q 154 -233 154 -267 q 169 -186 154 -203 q 208 -169 185 -169 q 249 -189 238 -169 q 268 -231 260 -208 q 291 -273 276 -254 q 343 -292 306 -292 q 422 -185 422 -292 l 422 326 q 399 410 422 381 q 322 440 375 440 q 243 407 272 440 q 214 326 214 374 l 214 63 q 153 0 214 0 q 94 63 94 0 l 94 493 q 153 557 94 557 q 206 531 193 557 q 263 560 232 551 q 331 569 293 569 q 490 507 439 569 q 542 326 542 444 l 542 -185 z "},"Ō":{"ha":958,"x_min":69,"x_max":889,"o":"m 69 0 m 69 472 q 99 660 69 572 q 181 812 128 747 q 309 913 233 876 q 479 950 385 950 q 649 913 572 950 q 778 812 725 876 q 860 660 831 747 q 889 472 889 572 q 860 283 889 371 q 778 128 831 194 q 649 24 725 63 q 479 -14 572 -14 q 309 24 385 -14 q 181 128 233 63 q 99 283 128 194 q 69 472 69 371 m 769 472 q 750 610 769 546 q 693 720 731 674 q 601 794 656 767 q 479 821 547 821 q 356 794 410 821 q 265 720 303 767 q 208 610 228 674 q 189 472 189 546 q 208 333 189 397 q 265 220 228 268 q 356 144 303 172 q 479 117 410 117 q 601 144 547 117 q 693 220 656 172 q 750 333 731 268 q 769 472 769 397 m 611 1174 q 674 1108 674 1174 q 611 1046 674 1046 l 349 1046 q 286 1110 286 1046 q 349 1174 286 1174 l 611 1174 z "},"ō":{"ha":606,"x_min":63,"x_max":543,"o":"m 63 0 m 63 278 q 81 395 63 342 q 132 488 100 449 q 208 548 164 526 q 303 569 253 569 q 397 548 353 569 q 474 488 442 526 q 524 395 506 449 q 543 278 543 342 q 524 162 543 215 q 474 69 506 108 q 397 8 442 31 q 303 -14 353 -14 q 208 8 253 -14 q 132 69 164 31 q 81 162 100 108 q 63 278 63 215 m 424 278 q 389 399 424 357 q 303 440 354 440 q 217 399 253 440 q 182 278 182 357 q 217 159 182 201 q 303 117 253 117 q 389 159 354 117 q 424 278 424 201 m 435 793 q 497 728 497 793 q 435 665 497 665 l 172 665 q 110 729 110 665 q 172 793 110 793 l 435 793 z "},"Ŏ":{"ha":958,"x_min":69,"x_max":889,"o":"m 69 0 m 69 472 q 99 660 69 572 q 181 812 128 747 q 309 913 233 876 q 479 950 385 950 q 649 913 572 950 q 778 812 725 876 q 860 660 831 747 q 889 472 889 572 q 860 283 889 371 q 778 128 831 194 q 649 24 725 63 q 479 -14 572 -14 q 309 24 385 -14 q 181 128 233 63 q 99 283 128 194 q 69 472 69 371 m 769 472 q 750 610 769 546 q 693 720 731 674 q 601 794 656 767 q 479 821 547 821 q 356 794 410 821 q 265 720 303 767 q 208 610 228 674 q 189 472 189 546 q 208 333 189 397 q 265 220 228 268 q 356 144 303 172 q 479 117 410 117 q 601 144 547 117 q 693 220 656 172 q 750 333 731 268 q 769 472 769 397 m 292 1182 q 307 1229 292 1213 q 346 1246 322 1246 q 403 1196 392 1246 q 430 1132 414 1151 q 481 1113 446 1113 q 532 1132 515 1113 q 560 1196 549 1151 q 615 1246 575 1246 q 655 1229 639 1246 q 671 1182 671 1213 q 655 1107 671 1142 q 613 1047 639 1072 q 552 1008 586 1022 q 481 993 518 993 q 409 1008 443 993 q 349 1047 375 1022 q 308 1107 324 1072 q 292 1182 292 1142 z "},"ŏ":{"ha":606,"x_min":63,"x_max":543,"o":"m 63 0 m 63 278 q 81 395 63 342 q 132 488 100 449 q 208 548 164 526 q 303 569 253 569 q 397 548 353 569 q 474 488 442 526 q 524 395 506 449 q 543 278 543 342 q 524 162 543 215 q 474 69 506 108 q 397 8 442 31 q 303 -14 353 -14 q 208 8 253 -14 q 132 69 164 31 q 81 162 100 108 q 63 278 63 215 m 424 278 q 389 399 424 357 q 303 440 354 440 q 217 399 253 440 q 182 278 182 357 q 217 159 182 201 q 303 117 253 117 q 389 159 354 117 q 424 278 424 201 m 115 801 q 131 849 115 832 q 169 865 146 865 q 226 815 215 865 q 253 751 238 771 q 304 732 269 732 q 356 751 339 732 q 383 815 372 771 q 439 865 399 865 q 478 849 463 865 q 494 801 494 832 q 478 726 494 761 q 436 667 463 692 q 376 627 410 642 q 304 613 342 613 q 233 627 267 613 q 173 667 199 642 q 131 726 147 692 q 115 801 115 761 z "},"Ő":{"ha":958,"x_min":69,"x_max":889,"o":"m 69 0 m 69 472 q 99 660 69 572 q 181 812 128 747 q 309 913 233 876 q 479 950 385 950 q 649 913 572 950 q 778 812 725 876 q 860 660 831 747 q 889 472 889 572 q 860 283 889 371 q 778 128 831 194 q 649 24 725 63 q 479 -14 572 -14 q 309 24 385 -14 q 181 128 233 63 q 99 283 128 194 q 69 472 69 371 m 769 472 q 750 610 769 546 q 693 720 731 674 q 601 794 656 767 q 479 821 547 821 q 356 794 410 821 q 265 720 303 767 q 208 610 228 674 q 189 472 189 546 q 208 333 189 397 q 265 220 228 268 q 356 144 303 172 q 479 117 410 117 q 601 144 547 117 q 693 220 656 172 q 750 333 731 268 q 769 472 769 397 m 640 1219 q 686 1246 663 1246 q 730 1226 710 1246 q 750 1179 750 1207 q 736 1140 750 1154 l 628 1000 q 582 975 608 975 q 539 994 558 975 q 519 1040 519 1014 q 533 1081 519 1063 l 640 1219 m 410 1219 q 456 1246 432 1246 q 499 1226 479 1246 q 519 1179 519 1207 q 506 1140 519 1154 l 397 1000 q 351 975 378 975 q 308 994 328 975 q 289 1040 289 1014 q 303 1081 289 1063 l 410 1219 z "},"ő":{"ha":597,"x_min":63,"x_max":574,"o":"m 63 0 m 63 278 q 81 395 63 342 q 132 488 100 449 q 208 548 164 526 q 303 569 253 569 q 397 548 353 569 q 474 488 442 526 q 524 395 506 449 q 543 278 543 342 q 524 162 543 215 q 474 69 506 108 q 397 8 442 31 q 303 -14 353 -14 q 208 8 253 -14 q 132 69 164 31 q 81 162 100 108 q 63 278 63 215 m 424 278 q 389 399 424 357 q 303 440 354 440 q 217 399 253 440 q 182 278 182 357 q 217 159 182 201 q 303 117 253 117 q 389 159 354 117 q 424 278 424 201 m 464 839 q 510 865 486 865 q 553 846 533 865 q 574 799 574 826 q 560 760 574 774 l 451 619 q 406 594 432 594 q 363 614 382 594 q 343 660 343 633 q 357 700 343 682 l 464 839 m 233 839 q 279 865 256 865 q 323 846 303 865 q 343 799 343 826 q 329 760 343 774 l 221 619 q 175 594 201 594 q 132 614 151 594 q 113 660 113 633 q 126 700 113 682 l 233 839 z "},"Œ":{"ha":1344,"x_min":69,"x_max":1279,"o":"m 1279 64 q 1221 0 1279 0 l 829 0 q 769 63 769 0 l 769 118 q 644 21 717 56 q 479 -14 571 -14 q 309 24 385 -14 q 181 128 233 63 q 99 283 128 194 q 69 472 69 371 q 99 660 69 572 q 181 812 128 747 q 309 913 233 876 q 479 950 385 950 q 644 915 571 950 q 769 821 717 881 l 769 874 q 829 938 769 938 l 1221 938 q 1279 874 1279 938 q 1221 807 1279 807 l 889 807 l 889 531 l 1140 531 q 1200 467 1200 531 q 1140 403 1200 403 l 889 403 l 889 129 l 1221 129 q 1279 64 1279 129 m 769 472 q 750 610 769 546 q 693 720 731 674 q 601 794 656 767 q 479 821 547 821 q 356 794 410 821 q 265 720 303 767 q 208 610 228 674 q 189 472 189 546 q 208 333 189 397 q 265 220 228 268 q 356 144 303 172 q 479 117 410 117 q 601 144 547 117 q 693 220 656 172 q 750 333 731 268 q 769 472 769 397 z "},"œ":{"ha":963,"x_min":63,"x_max":900,"o":"m 664 569 q 798 523 739 569 q 885 397 857 476 q 894 365 889 386 q 900 325 900 344 q 888 284 900 303 q 847 265 875 265 l 544 265 q 583 157 549 197 q 664 117 617 117 q 757 165 733 117 q 784 200 769 190 q 815 210 799 210 q 856 192 839 210 q 874 146 874 174 q 856 92 874 118 q 822 49 839 67 q 750 1 792 17 q 664 -14 708 -14 q 562 12 608 -14 q 483 82 515 38 q 403 12 450 38 q 303 -14 357 -14 q 208 8 253 -14 q 132 69 164 31 q 81 162 100 108 q 63 278 63 215 q 81 395 63 342 q 132 488 100 449 q 208 548 164 526 q 303 569 253 569 q 404 543 357 569 q 483 472 451 517 q 558 542 514 515 q 664 569 601 569 m 664 443 q 606 426 629 443 q 564 375 583 410 l 765 375 q 664 443 728 443 m 424 278 q 389 399 424 357 q 303 440 354 440 q 217 399 253 440 q 182 278 182 357 q 217 159 182 201 q 303 117 253 117 q 389 159 354 117 q 424 278 424 201 z "},"Ŕ":{"ha":815,"x_min":94,"x_max":764,"o":"m 94 0 m 761 672 q 744 570 761 618 q 696 486 728 522 q 618 428 664 450 q 514 401 572 406 l 751 103 q 764 63 764 83 q 746 18 764 36 q 704 0 728 0 q 656 25 678 0 l 365 401 l 214 401 l 214 65 q 154 0 214 0 q 94 65 94 0 l 94 874 q 154 938 94 938 l 511 938 q 618 917 571 938 q 697 861 665 897 q 744 776 728 825 q 761 672 761 728 m 642 669 q 606 768 642 729 q 511 807 569 807 l 214 807 l 214 531 l 507 531 q 606 570 569 531 q 642 669 642 610 m 440 1219 q 486 1246 463 1246 q 530 1226 510 1246 q 550 1179 550 1207 q 536 1140 550 1154 l 428 1000 q 382 975 408 975 q 339 994 358 975 q 319 1040 319 1014 q 333 1081 319 1063 l 440 1219 z "},"ŕ":{"ha":522,"x_min":94,"x_max":486,"o":"m 94 0 m 376 394 q 349 431 365 421 q 299 440 332 440 q 248 418 271 440 q 214 356 225 396 l 214 69 q 154 0 214 0 q 94 67 96 0 l 94 494 q 154 561 94 561 q 189 552 178 561 q 207 525 200 543 q 255 557 228 544 q 318 569 282 569 q 446 513 392 569 q 475 469 464 493 q 486 419 486 444 q 470 372 486 389 q 435 356 454 356 q 376 394 393 356 m 333 839 q 379 865 356 865 q 423 846 403 865 q 443 799 443 826 q 429 760 443 774 l 321 619 q 275 594 301 594 q 232 614 251 594 q 213 660 213 633 q 226 700 213 682 l 333 839 z "},"Ŗ":{"ha":815,"x_min":94,"x_max":764,"o":"m 94 0 m 761 672 q 744 570 761 618 q 696 486 728 522 q 618 428 664 450 q 514 401 572 406 l 751 103 q 764 63 764 83 q 746 18 764 36 q 704 0 728 0 q 656 25 678 0 l 365 401 l 214 401 l 214 65 q 154 0 214 0 q 94 65 94 0 l 94 874 q 154 938 94 938 l 511 938 q 618 917 571 938 q 697 861 665 897 q 744 776 728 825 q 761 672 761 728 m 642 669 q 606 768 642 729 q 511 807 569 807 l 214 807 l 214 531 l 507 531 q 606 570 569 531 q 642 669 642 610 m 489 -154 q 478 -229 489 -193 q 448 -294 467 -265 q 404 -339 429 -322 q 353 -356 379 -356 q 322 -344 329 -356 q 314 -322 314 -333 q 326 -290 314 -301 q 338 -264 338 -278 q 334 -233 338 -246 q 326 -209 331 -221 q 317 -185 321 -197 q 314 -153 314 -172 q 338 -76 314 -101 q 401 -50 363 -50 q 464 -79 439 -50 q 489 -154 489 -108 z "},"ŗ":{"ha":524,"x_min":94,"x_max":488,"o":"m 94 0 m 378 394 q 350 431 367 421 q 300 440 333 440 q 249 418 272 440 q 215 356 226 396 l 215 69 q 156 0 215 0 q 96 67 97 0 l 96 494 q 156 561 96 561 q 190 552 179 561 q 208 525 201 543 q 256 557 229 544 q 319 569 283 569 q 447 513 393 569 q 476 469 465 493 q 488 419 488 444 q 472 372 488 389 q 436 356 456 356 q 378 394 394 356 m 269 -154 q 258 -229 269 -193 q 228 -294 247 -265 q 185 -339 210 -322 q 133 -356 160 -356 q 102 -344 110 -356 q 94 -322 94 -333 q 106 -290 94 -301 q 118 -264 118 -278 q 115 -233 118 -246 q 106 -209 111 -221 q 98 -185 101 -197 q 94 -153 94 -172 q 119 -76 94 -101 q 182 -50 143 -50 q 244 -79 219 -50 q 269 -154 269 -108 z "},"Ř":{"ha":815,"x_min":94,"x_max":764,"o":"m 94 0 m 761 672 q 744 570 761 618 q 696 486 728 522 q 618 428 664 450 q 514 401 572 406 l 751 103 q 764 63 764 83 q 746 18 764 36 q 704 0 728 0 q 656 25 678 0 l 365 401 l 214 401 l 214 65 q 154 0 214 0 q 94 65 94 0 l 94 874 q 154 938 94 938 l 511 938 q 618 917 571 938 q 697 861 665 897 q 744 776 728 825 q 761 672 761 728 m 642 669 q 606 768 642 729 q 511 807 569 807 l 214 807 l 214 531 l 507 531 q 606 570 569 531 q 642 669 642 610 m 242 1140 q 228 1181 228 1158 q 247 1226 228 1207 q 290 1246 267 1246 q 315 1240 303 1246 q 338 1221 328 1235 l 396 1135 l 454 1221 q 476 1240 464 1235 q 500 1246 489 1246 q 543 1226 524 1246 q 563 1181 563 1207 q 549 1140 563 1158 l 442 1001 q 396 975 421 975 q 349 1001 371 975 l 242 1140 z "},"ř":{"ha":522,"x_min":94,"x_max":486,"o":"m 94 0 m 376 394 q 349 431 365 421 q 299 440 332 440 q 248 418 271 440 q 214 356 225 396 l 214 69 q 154 0 214 0 q 94 67 96 0 l 94 494 q 154 561 94 561 q 189 552 178 561 q 207 525 200 543 q 255 557 228 544 q 318 569 282 569 q 446 513 392 569 q 475 469 464 493 q 486 419 486 444 q 470 372 486 389 q 435 356 454 356 q 376 394 393 356 m 136 760 q 122 800 122 778 q 142 846 122 826 q 185 865 161 865 q 210 860 197 865 q 232 840 222 854 l 290 754 l 349 840 q 371 860 358 854 q 394 865 383 865 q 438 846 418 865 q 457 800 457 826 q 443 760 457 778 l 336 621 q 290 594 315 594 q 243 621 265 594 l 136 760 z "},"Ś":{"ha":639,"x_min":64,"x_max":578,"o":"m 64 0 m 324 -14 q 242 -2 279 -14 q 175 32 206 10 q 119 87 143 56 q 76 154 96 118 q 67 181 71 167 q 64 208 64 194 q 81 256 64 240 q 122 272 99 272 q 153 263 139 272 q 176 229 167 253 q 231 145 199 171 q 324 119 264 119 q 426 160 393 119 q 458 254 458 200 q 449 313 458 283 q 419 364 439 343 q 328 438 382 404 q 229 511 275 472 q 136 615 165 564 q 107 728 107 665 q 124 817 107 776 q 169 888 140 858 q 238 933 199 917 q 325 950 278 950 q 393 940 361 950 q 451 911 425 929 q 510 853 486 888 q 533 779 533 819 q 516 735 533 751 q 478 718 499 718 q 425 757 443 718 q 386 803 410 786 q 326 821 363 821 q 253 797 279 821 q 228 729 228 774 q 243 674 228 699 q 300 615 258 649 q 352 576 324 596 q 409 535 381 556 q 464 494 438 515 q 511 449 490 472 q 561 367 544 411 q 578 251 578 322 q 560 150 578 199 q 510 65 543 101 q 429 8 476 29 q 324 -14 382 -14 m 372 1219 q 418 1246 394 1246 q 462 1226 442 1246 q 482 1179 482 1207 q 468 1140 482 1154 l 360 1000 q 314 975 340 975 q 271 994 290 975 q 251 1040 251 1014 q 265 1081 251 1063 l 372 1219 z "},"ś":{"ha":531,"x_min":64,"x_max":472,"o":"m 64 0 m 472 174 q 459 102 472 136 q 421 42 446 68 q 360 1 396 17 q 278 -14 324 -14 q 201 -2 239 -14 q 133 35 163 10 q 80 103 96 67 q 64 175 64 139 q 79 220 64 203 q 122 238 94 238 q 166 224 151 238 q 186 179 181 210 q 213 128 192 150 q 278 106 235 106 q 335 126 318 106 q 353 171 353 146 q 315 213 353 197 q 251 233 283 224 q 186 257 218 243 q 115 314 138 279 q 93 407 93 349 q 140 524 93 478 q 275 569 188 569 q 373 549 333 569 q 429 510 413 529 q 449 478 444 493 q 454 447 454 464 q 437 401 454 418 q 396 383 419 383 q 339 415 358 383 q 311 445 328 433 q 271 457 294 457 q 213 407 213 457 q 219 383 213 392 q 250 364 226 374 q 287 351 265 358 q 331 336 308 344 q 376 319 354 328 q 413 300 397 310 q 472 174 472 263 m 318 839 q 364 865 340 865 q 408 846 388 865 q 428 799 428 826 q 414 760 428 774 l 306 619 q 260 594 286 594 q 217 614 236 594 q 197 660 197 633 q 211 700 197 682 l 318 839 z "},"Ş":{"ha":639,"x_min":64,"x_max":578,"o":"m 578 251 q 562 156 578 201 q 517 74 546 110 q 445 15 488 38 q 350 -12 403 -8 l 350 -76 q 451 -118 417 -82 q 485 -217 485 -154 q 472 -284 485 -253 q 435 -338 458 -315 q 381 -374 413 -361 q 315 -387 350 -387 q 240 -372 269 -387 q 210 -318 210 -356 q 224 -272 210 -290 q 267 -254 238 -254 q 297 -258 286 -254 q 317 -262 307 -262 q 349 -247 336 -262 q 363 -212 363 -232 q 300 -158 363 -158 q 247 -93 247 -158 l 247 -3 q 148 54 192 13 q 76 154 104 96 q 67 181 71 167 q 64 208 64 194 q 81 256 64 240 q 122 272 99 272 q 153 263 139 272 q 176 229 167 253 q 231 145 199 171 q 324 119 264 119 q 426 160 393 119 q 458 254 458 200 q 449 313 458 283 q 419 364 439 343 q 328 438 382 404 q 229 511 275 472 q 136 615 165 564 q 107 728 107 665 q 124 817 107 776 q 169 888 140 858 q 238 933 199 917 q 325 950 278 950 q 393 940 361 950 q 451 911 425 929 q 510 853 486 888 q 533 779 533 819 q 516 735 533 751 q 478 718 499 718 q 425 757 443 718 q 386 803 410 786 q 326 821 363 821 q 253 797 279 821 q 228 729 228 774 q 243 674 228 699 q 300 615 258 649 q 352 576 324 596 q 409 535 381 556 q 464 494 438 515 q 511 449 490 472 q 561 367 544 411 q 578 251 578 322 z "},"ş":{"ha":531,"x_min":64,"x_max":472,"o":"m 472 174 q 430 52 472 104 q 313 -11 388 0 l 313 -76 q 413 -118 379 -82 q 447 -217 447 -154 q 434 -284 447 -253 q 398 -338 421 -315 q 344 -374 375 -361 q 278 -387 313 -387 q 202 -372 232 -387 q 172 -318 172 -356 q 186 -272 172 -290 q 229 -254 200 -254 q 259 -258 249 -254 q 279 -262 269 -262 q 312 -247 299 -262 q 325 -212 325 -232 q 263 -158 325 -158 q 210 -93 210 -158 l 210 -4 q 154 19 181 3 q 108 60 128 36 q 76 113 88 83 q 64 175 64 142 q 79 220 64 203 q 122 238 94 238 q 166 224 151 238 q 186 179 181 210 q 213 128 192 150 q 278 106 235 106 q 335 126 318 106 q 353 171 353 146 q 315 213 353 197 q 251 233 283 224 q 186 257 218 243 q 115 314 138 279 q 93 407 93 349 q 140 524 93 478 q 275 569 188 569 q 373 549 333 569 q 429 510 413 529 q 449 478 444 493 q 454 447 454 464 q 437 401 454 418 q 396 383 419 383 q 339 415 358 383 q 311 445 328 433 q 271 457 294 457 q 213 407 213 457 q 219 383 213 392 q 250 364 226 374 q 287 351 265 358 q 331 336 308 344 q 376 319 354 328 q 413 300 397 310 q 472 174 472 263 z "},"Š":{"ha":639,"x_min":64,"x_max":578,"o":"m 64 0 m 324 -14 q 242 -2 279 -14 q 175 32 206 10 q 119 87 143 56 q 76 154 96 118 q 67 181 71 167 q 64 208 64 194 q 81 256 64 240 q 122 272 99 272 q 153 263 139 272 q 176 229 167 253 q 231 145 199 171 q 324 119 264 119 q 426 160 393 119 q 458 254 458 200 q 449 313 458 283 q 419 364 439 343 q 328 438 382 404 q 229 511 275 472 q 136 615 165 564 q 107 728 107 665 q 124 817 107 776 q 169 888 140 858 q 238 933 199 917 q 325 950 278 950 q 393 940 361 950 q 451 911 425 929 q 510 853 486 888 q 533 779 533 819 q 516 735 533 751 q 478 718 499 718 q 425 757 443 718 q 386 803 410 786 q 326 821 363 821 q 253 797 279 821 q 228 729 228 774 q 243 674 228 699 q 300 615 258 649 q 352 576 324 596 q 409 535 381 556 q 464 494 438 515 q 511 449 490 472 q 561 367 544 411 q 578 251 578 322 q 560 150 578 199 q 510 65 543 101 q 429 8 476 29 q 324 -14 382 -14 m 174 1140 q 160 1181 160 1158 q 179 1226 160 1207 q 222 1246 199 1246 q 247 1240 235 1246 q 269 1221 260 1235 l 328 1135 l 386 1221 q 408 1240 396 1235 q 432 1246 421 1246 q 475 1226 456 1246 q 494 1181 494 1207 q 481 1140 494 1158 l 374 1001 q 328 975 353 975 q 281 1001 303 975 l 174 1140 z "},"š":{"ha":531,"x_min":64,"x_max":472,"o":"m 64 0 m 472 174 q 459 102 472 136 q 421 42 446 68 q 360 1 396 17 q 278 -14 324 -14 q 201 -2 239 -14 q 133 35 163 10 q 80 103 96 67 q 64 175 64 139 q 79 220 64 203 q 122 238 94 238 q 166 224 151 238 q 186 179 181 210 q 213 128 192 150 q 278 106 235 106 q 335 126 318 106 q 353 171 353 146 q 315 213 353 197 q 251 233 283 224 q 186 257 218 243 q 115 314 138 279 q 93 407 93 349 q 140 524 93 478 q 275 569 188 569 q 373 549 333 569 q 429 510 413 529 q 449 478 444 493 q 454 447 454 464 q 437 401 454 418 q 396 383 419 383 q 339 415 358 383 q 311 445 328 433 q 271 457 294 457 q 213 407 213 457 q 219 383 213 392 q 250 364 226 374 q 287 351 265 358 q 331 336 308 344 q 376 319 354 328 q 413 300 397 310 q 472 174 472 263 m 119 760 q 106 800 106 778 q 125 846 106 826 q 168 865 144 865 q 193 860 181 865 q 215 840 206 854 l 274 754 l 332 840 q 354 860 342 854 q 378 865 367 865 q 421 846 401 865 q 440 800 440 826 q 426 760 440 778 l 319 621 q 274 594 299 594 q 226 621 249 594 l 119 760 z "},"Ţ":{"ha":761,"x_min":33,"x_max":728,"o":"m 33 0 m 728 874 q 671 807 728 807 l 442 807 l 442 67 q 381 0 442 0 q 322 67 322 0 l 322 807 l 92 807 q 33 874 33 807 q 92 938 33 938 l 671 938 q 728 874 728 938 m 475 -154 q 464 -229 475 -193 q 434 -294 453 -265 q 390 -339 415 -322 q 339 -356 365 -356 q 308 -344 315 -356 q 300 -322 300 -333 q 312 -290 300 -301 q 324 -264 324 -278 q 320 -233 324 -246 q 312 -209 317 -221 q 303 -185 307 -197 q 300 -153 300 -172 q 324 -76 300 -101 q 388 -50 349 -50 q 450 -79 425 -50 q 475 -154 475 -108 z "},"ţ":{"ha":460,"x_min":28,"x_max":432,"o":"m 28 0 m 432 492 q 374 429 432 429 l 286 429 l 286 67 q 225 0 286 0 q 167 67 167 0 l 167 429 l 88 429 q 28 492 28 429 q 88 557 28 557 l 167 557 l 167 669 q 225 733 167 733 q 286 669 286 733 l 286 557 l 374 557 q 432 492 432 557 m 317 -154 q 306 -229 317 -193 q 276 -294 294 -265 q 232 -339 257 -322 q 181 -356 207 -356 q 149 -344 157 -356 q 142 -322 142 -333 q 153 -290 142 -301 q 165 -264 165 -278 q 162 -233 165 -246 q 153 -209 158 -221 q 145 -185 149 -197 q 142 -153 142 -172 q 166 -76 142 -101 q 229 -50 190 -50 q 292 -79 267 -50 q 317 -154 317 -108 z "},"Ť":{"ha":761,"x_min":33,"x_max":728,"o":"m 33 0 m 728 874 q 671 807 728 807 l 442 807 l 442 67 q 381 0 442 0 q 322 67 322 0 l 322 807 l 92 807 q 33 874 33 807 q 92 938 33 938 l 671 938 q 728 874 728 938 m 232 1140 q 218 1181 218 1158 q 238 1226 218 1207 q 281 1246 257 1246 q 306 1240 293 1246 q 328 1221 318 1235 l 386 1135 l 444 1221 q 467 1240 454 1235 q 490 1246 479 1246 q 533 1226 514 1246 q 553 1181 553 1207 q 539 1140 553 1158 l 432 1001 q 386 975 411 975 q 339 1001 361 975 l 232 1140 z "},"ť":{"ha":508,"x_min":28,"x_max":582,"o":"m 28 0 m 432 492 q 374 429 432 429 l 286 429 l 286 67 q 225 0 286 0 q 167 67 167 0 l 167 429 l 88 429 q 28 492 28 429 q 88 557 28 557 l 167 557 l 167 669 q 225 733 167 733 q 286 669 286 733 l 286 557 l 374 557 q 432 492 432 557 m 472 1003 q 518 1029 494 1029 q 562 1010 542 1029 q 582 963 582 990 q 568 924 582 938 l 460 783 q 414 758 440 758 q 371 778 390 758 q 351 824 351 797 q 365 864 351 846 l 472 1003 z "},"Ŧ":{"ha":761,"x_min":33,"x_max":728,"o":"m 322 557 l 322 807 l 92 807 q 33 874 33 807 q 92 938 33 938 l 671 938 q 728 874 728 938 q 671 807 728 807 l 442 807 l 442 557 l 528 557 q 588 492 588 557 q 528 429 588 429 l 442 429 l 442 67 q 381 0 442 0 q 322 67 322 0 l 322 429 l 233 429 q 174 493 174 429 q 233 557 174 557 l 322 557 z "},"ŧ":{"ha":460,"x_min":28,"x_max":432,"o":"m 167 336 l 167 429 l 88 429 q 28 492 28 429 q 88 557 28 557 l 167 557 l 167 669 q 225 733 167 733 q 286 669 286 733 l 286 557 l 374 557 q 432 492 432 557 q 374 429 432 429 l 286 429 l 286 336 l 368 336 q 428 272 428 336 q 368 208 428 208 l 286 208 l 286 67 q 225 0 286 0 q 167 67 167 0 l 167 208 l 92 208 q 32 274 32 208 q 92 336 32 336 l 167 336 z "},"Ũ":{"ha":821,"x_min":83,"x_max":738,"o":"m 83 0 m 411 117 q 563 176 507 117 q 618 335 618 235 l 618 869 q 679 938 618 938 q 738 869 738 938 l 738 335 q 714 192 738 257 q 647 82 690 128 q 544 11 604 36 q 411 -14 483 -14 q 277 11 338 -14 q 174 82 217 36 q 107 192 131 128 q 83 335 83 257 l 83 869 q 142 938 83 938 q 203 869 203 938 l 203 335 q 259 176 203 235 q 411 117 315 117 m 500 1161 q 517 1206 500 1190 q 558 1222 535 1222 q 596 1208 578 1222 q 614 1163 614 1194 q 577 1053 614 1088 q 489 1018 540 1018 q 418 1036 446 1018 q 371 1082 390 1054 q 351 1107 357 1101 q 335 1113 346 1113 q 318 1083 318 1113 q 300 1038 318 1053 q 261 1022 282 1022 q 222 1036 238 1022 q 206 1082 206 1050 q 242 1192 206 1157 q 332 1226 279 1226 q 401 1207 375 1226 q 449 1161 426 1188 q 472 1136 465 1142 q 488 1131 478 1131 q 500 1161 500 1131 z "},"ũ":{"ha":626,"x_min":83,"x_max":532,"o":"m 83 0 m 83 493 q 144 557 83 557 q 190 542 176 557 q 203 493 203 526 l 203 231 q 226 146 203 175 q 303 117 250 117 q 383 149 354 117 q 413 231 413 182 l 413 493 q 474 557 413 557 q 532 493 532 557 l 532 63 q 474 0 532 0 q 419 26 433 0 q 296 -14 371 -14 q 135 48 188 -14 q 83 231 83 110 l 83 493 m 403 781 q 420 826 403 810 q 461 842 438 842 q 499 828 481 842 q 517 782 517 814 q 480 672 517 707 q 392 638 443 638 q 321 656 349 638 q 274 701 293 674 q 254 726 260 721 q 238 732 249 732 q 221 703 221 732 q 203 657 221 672 q 164 642 185 642 q 124 656 140 642 q 108 701 108 669 q 145 811 108 776 q 235 846 182 846 q 303 826 278 846 q 351 781 329 807 q 374 756 368 761 q 390 750 381 750 q 403 781 403 750 z "},"Ū":{"ha":821,"x_min":83,"x_max":738,"o":"m 83 0 m 411 117 q 563 176 507 117 q 618 335 618 235 l 618 869 q 679 938 618 938 q 738 869 738 938 l 738 335 q 714 192 738 257 q 647 82 690 128 q 544 11 604 36 q 411 -14 483 -14 q 277 11 338 -14 q 174 82 217 36 q 107 192 131 128 q 83 335 83 257 l 83 869 q 142 938 83 938 q 203 869 203 938 l 203 335 q 259 176 203 235 q 411 117 315 117 m 542 1174 q 604 1108 604 1174 q 542 1046 604 1046 l 279 1046 q 217 1110 217 1046 q 279 1174 217 1174 l 542 1174 z "},"ū":{"ha":626,"x_min":83,"x_max":532,"o":"m 83 0 m 83 493 q 144 557 83 557 q 190 542 176 557 q 203 493 203 526 l 203 231 q 226 146 203 175 q 303 117 250 117 q 383 149 354 117 q 413 231 413 182 l 413 493 q 474 557 413 557 q 532 493 532 557 l 532 63 q 474 0 532 0 q 419 26 433 0 q 296 -14 371 -14 q 135 48 188 -14 q 83 231 83 110 l 83 493 m 444 793 q 507 728 507 793 q 444 665 507 665 l 182 665 q 119 729 119 665 q 182 793 119 793 l 444 793 z "},"Ŭ":{"ha":821,"x_min":83,"x_max":738,"o":"m 83 0 m 411 117 q 563 176 507 117 q 618 335 618 235 l 618 869 q 679 938 618 938 q 738 869 738 938 l 738 335 q 714 192 738 257 q 647 82 690 128 q 544 11 604 36 q 411 -14 483 -14 q 277 11 338 -14 q 174 82 217 36 q 107 192 131 128 q 83 335 83 257 l 83 869 q 142 938 83 938 q 203 869 203 938 l 203 335 q 259 176 203 235 q 411 117 315 117 m 222 1182 q 238 1229 222 1213 q 276 1246 253 1246 q 333 1196 322 1246 q 360 1132 344 1151 q 411 1113 376 1113 q 463 1132 446 1113 q 490 1196 479 1151 q 546 1246 506 1246 q 585 1229 569 1246 q 601 1182 601 1213 q 585 1107 601 1142 q 543 1047 569 1072 q 483 1008 517 1022 q 411 993 449 993 q 340 1008 374 993 q 280 1047 306 1022 q 238 1107 254 1072 q 222 1182 222 1142 z "},"ŭ":{"ha":626,"x_min":83,"x_max":532,"o":"m 83 0 m 83 493 q 144 557 83 557 q 190 542 176 557 q 203 493 203 526 l 203 231 q 226 146 203 175 q 303 117 250 117 q 383 149 354 117 q 413 231 413 182 l 413 493 q 474 557 413 557 q 532 493 532 557 l 532 63 q 474 0 532 0 q 419 26 433 0 q 296 -14 371 -14 q 135 48 188 -14 q 83 231 83 110 l 83 493 m 124 801 q 139 849 124 832 q 178 865 154 865 q 235 815 224 865 q 262 751 246 771 q 313 732 278 732 q 364 751 347 732 q 392 815 381 771 q 447 865 407 865 q 487 849 471 865 q 503 801 503 832 q 487 726 503 761 q 444 667 471 692 q 384 627 418 642 q 313 613 350 613 q 241 627 275 613 q 181 667 207 642 q 140 726 156 692 q 124 801 124 761 z "},"Ů":{"ha":821,"x_min":83,"x_max":738,"o":"m 83 0 m 411 117 q 563 176 507 117 q 618 335 618 235 l 618 869 q 679 938 618 938 q 738 869 738 938 l 738 335 q 714 192 738 257 q 647 82 690 128 q 544 11 604 36 q 411 -14 483 -14 q 277 11 338 -14 q 174 82 217 36 q 107 192 131 128 q 83 335 83 257 l 83 869 q 142 938 83 938 q 203 869 203 938 l 203 335 q 259 176 203 235 q 411 117 315 117 m 272 1104 q 283 1159 272 1133 q 312 1204 293 1185 q 356 1235 331 1224 q 410 1246 381 1246 q 463 1235 438 1246 q 506 1204 488 1224 q 536 1159 525 1185 q 547 1104 547 1133 q 536 1049 547 1075 q 506 1003 525 1022 q 463 974 488 985 q 410 963 438 963 q 356 974 381 963 q 312 1003 331 985 q 283 1049 293 1022 q 272 1104 272 1075 m 353 1104 q 369 1064 353 1081 q 410 1047 386 1047 q 451 1064 433 1047 q 468 1104 468 1081 q 451 1145 468 1128 q 410 1163 433 1163 q 369 1145 386 1163 q 353 1104 353 1128 z "},"ů":{"ha":626,"x_min":83,"x_max":532,"o":"m 83 0 m 83 493 q 144 557 83 557 q 190 542 176 557 q 203 493 203 526 l 203 231 q 226 146 203 175 q 303 117 250 117 q 383 149 354 117 q 413 231 413 182 l 413 493 q 474 557 413 557 q 532 493 532 557 l 532 63 q 474 0 532 0 q 419 26 433 0 q 296 -14 371 -14 q 135 48 188 -14 q 83 231 83 110 l 83 493 m 174 724 q 184 778 174 753 q 213 824 194 804 q 257 854 232 843 q 311 865 282 865 q 364 854 339 865 q 408 824 389 843 q 438 778 426 804 q 449 724 449 753 q 438 668 449 694 q 408 623 426 642 q 364 593 389 604 q 311 582 339 582 q 257 593 282 582 q 213 623 232 604 q 184 668 194 642 q 174 724 174 694 m 254 724 q 271 683 254 700 q 311 667 288 667 q 352 683 335 667 q 369 724 369 700 q 352 765 369 747 q 311 782 335 782 q 271 765 288 782 q 254 724 254 747 z "},"Ű":{"ha":821,"x_min":83,"x_max":738,"o":"m 83 0 m 411 117 q 563 176 507 117 q 618 335 618 235 l 618 869 q 679 938 618 938 q 738 869 738 938 l 738 335 q 714 192 738 257 q 647 82 690 128 q 544 11 604 36 q 411 -14 483 -14 q 277 11 338 -14 q 174 82 217 36 q 107 192 131 128 q 83 335 83 257 l 83 869 q 142 938 83 938 q 203 869 203 938 l 203 335 q 259 176 203 235 q 411 117 315 117 m 571 1219 q 617 1246 593 1246 q 660 1226 640 1246 q 681 1179 681 1207 q 667 1140 681 1154 l 558 1000 q 513 975 539 975 q 469 994 489 975 q 450 1040 450 1014 q 464 1081 450 1063 l 571 1219 m 340 1219 q 386 1246 363 1246 q 430 1226 410 1246 q 450 1179 450 1207 q 436 1140 450 1154 l 328 1000 q 282 975 308 975 q 239 994 258 975 q 219 1040 219 1014 q 233 1081 219 1063 l 340 1219 z "},"ű":{"ha":615,"x_min":83,"x_max":582,"o":"m 83 0 m 83 493 q 144 557 83 557 q 190 542 176 557 q 203 493 203 526 l 203 231 q 226 146 203 175 q 303 117 250 117 q 383 149 354 117 q 413 231 413 182 l 413 493 q 474 557 413 557 q 532 493 532 557 l 532 63 q 474 0 532 0 q 419 26 433 0 q 296 -14 371 -14 q 135 48 188 -14 q 83 231 83 110 l 83 493 m 472 839 q 518 865 494 865 q 562 846 542 865 q 582 799 582 826 q 568 760 582 774 l 460 619 q 414 594 440 594 q 371 614 390 594 q 351 660 351 633 q 365 700 351 682 l 472 839 m 242 839 q 288 865 264 865 q 331 846 311 865 q 351 799 351 826 q 338 760 351 774 l 229 619 q 183 594 210 594 q 140 614 160 594 q 121 660 121 633 q 135 700 121 682 l 242 839 z "},"Ų":{"ha":821,"x_min":83,"x_max":738,"o":"m 226 -199 q 253 -92 226 -140 q 324 -4 279 -43 q 147 111 211 22 q 83 335 83 200 l 83 869 q 142 938 83 938 q 203 869 203 938 l 203 335 q 259 176 203 235 q 411 117 315 117 q 563 176 507 117 q 618 335 618 235 l 618 869 q 679 938 618 938 q 738 869 738 938 l 738 335 q 672 118 738 201 q 501 -3 606 35 q 379 -79 414 -33 q 344 -192 344 -125 q 372 -247 344 -228 q 435 -265 399 -265 q 483 -257 458 -265 q 525 -249 507 -249 q 570 -266 557 -249 q 583 -308 583 -283 q 567 -346 583 -331 q 526 -372 550 -361 q 476 -387 503 -382 q 431 -392 450 -392 q 358 -380 394 -392 q 292 -344 321 -368 q 244 -285 263 -321 q 226 -199 226 -249 z "},"ų":{"ha":626,"x_min":83,"x_max":564,"o":"m 207 -199 q 231 -99 207 -146 q 293 -14 254 -51 q 134 49 185 -12 q 83 231 83 110 l 83 493 q 144 557 83 557 q 190 542 176 557 q 203 493 203 526 l 203 231 q 226 146 203 175 q 303 117 250 117 q 383 149 354 117 q 413 231 413 182 l 413 493 q 474 557 413 557 q 532 493 532 557 l 532 63 q 522 22 532 35 q 492 1 511 8 q 363 -76 400 -29 q 325 -192 325 -124 q 352 -247 325 -228 q 415 -265 379 -265 q 463 -257 439 -265 q 506 -249 488 -249 q 551 -266 538 -249 q 564 -308 564 -283 q 547 -346 564 -331 q 507 -372 531 -361 q 457 -387 483 -382 q 411 -392 431 -392 q 338 -380 375 -392 q 272 -344 301 -368 q 225 -285 243 -321 q 207 -199 207 -249 z "},"Ŵ":{"ha":1410,"x_min":32,"x_max":1378,"o":"m 32 0 m 1263 893 q 1315 938 1279 938 q 1360 918 1343 938 q 1378 876 1378 899 q 1372 847 1378 860 l 1076 47 q 1049 12 1067 24 q 1013 0 1032 0 q 975 12 992 0 q 949 49 958 24 l 706 706 l 461 47 q 434 12 451 24 q 397 0 417 0 q 360 12 376 0 q 333 49 343 24 l 38 846 q 32 876 32 857 q 49 918 32 899 q 96 938 67 938 q 147 893 131 938 l 397 226 l 647 893 q 668 927 656 917 q 707 938 681 938 q 742 926 729 938 q 763 893 754 914 l 1013 226 l 1263 893 m 863 1081 q 876 1040 876 1063 q 857 994 876 1014 q 814 975 838 975 q 789 981 801 975 q 767 1000 776 986 l 708 1086 l 650 1000 q 628 981 640 986 q 604 975 615 975 q 561 994 581 975 q 542 1040 542 1014 q 556 1081 542 1063 l 663 1219 q 708 1246 683 1246 q 756 1219 733 1246 l 863 1081 z "},"ŵ":{"ha":967,"x_min":32,"x_max":935,"o":"m 32 0 m 288 0 q 253 12 271 0 q 224 47 235 24 l 38 464 q 32 494 32 475 q 51 540 32 524 q 92 557 69 557 q 122 548 107 557 q 144 519 136 539 l 288 189 l 429 519 q 452 548 438 539 q 483 557 467 557 q 513 548 499 557 q 536 519 528 539 l 679 189 l 821 519 q 844 548 829 539 q 875 557 858 557 q 916 540 897 557 q 935 494 935 524 q 928 464 935 478 l 743 47 q 714 12 732 24 q 679 0 696 0 q 644 12 663 0 q 615 47 626 24 l 483 346 l 351 47 q 322 12 340 24 q 288 0 304 0 m 642 700 q 656 660 656 682 q 636 614 656 633 q 593 594 617 594 q 568 600 581 594 q 546 619 556 606 l 488 706 l 429 619 q 407 600 419 606 q 383 594 394 594 q 340 614 360 594 q 321 660 321 633 q 335 700 321 682 l 442 839 q 488 865 463 865 q 535 839 513 865 l 642 700 z "},"Ŷ":{"ha":751,"x_min":32,"x_max":719,"o":"m 32 0 m 375 0 q 315 65 315 0 l 315 444 l 44 835 q 32 875 32 853 q 50 920 32 903 q 92 938 68 938 q 140 908 119 938 l 375 576 l 610 908 q 634 931 621 924 q 660 938 647 938 q 701 920 683 938 q 719 875 719 903 q 707 835 719 853 l 435 444 l 435 65 q 375 0 435 0 m 533 1081 q 547 1040 547 1063 q 528 994 547 1014 q 485 975 508 975 q 460 981 472 975 q 438 1000 447 986 l 379 1086 l 321 1000 q 299 981 311 986 q 275 975 286 975 q 232 994 251 975 q 213 1040 213 1014 q 226 1081 213 1063 l 333 1219 q 379 1246 354 1246 q 426 1219 404 1246 l 533 1081 z "},"ŷ":{"ha":565,"x_min":32,"x_max":533,"o":"m 32 0 m 474 557 q 515 540 496 557 q 533 496 533 522 q 528 468 533 481 l 153 -371 q 130 -399 143 -392 q 101 -407 117 -407 q 61 -390 79 -407 q 43 -343 43 -372 q 49 -312 43 -324 l 224 81 l 39 464 q 32 494 32 481 q 51 540 32 524 q 92 557 69 557 q 121 549 107 557 q 144 521 135 540 l 290 217 l 425 524 q 474 557 439 557 m 447 700 q 461 660 461 682 q 442 614 461 633 q 399 594 422 594 q 374 600 386 594 q 351 619 361 606 l 293 706 l 235 619 q 213 600 225 606 q 189 594 200 594 q 146 614 165 594 q 126 660 126 633 q 140 700 126 682 l 247 839 q 293 865 268 865 q 340 839 318 865 l 447 700 z "},"Ÿ":{"ha":751,"x_min":32,"x_max":719,"o":"m 32 0 m 375 0 q 315 65 315 0 l 315 444 l 44 835 q 32 875 32 853 q 50 920 32 903 q 92 938 68 938 q 140 908 119 938 l 375 576 l 610 908 q 634 931 621 924 q 660 938 647 938 q 701 920 683 938 q 719 875 719 903 q 707 835 719 853 l 435 444 l 435 65 q 375 0 435 0 m 414 1115 q 438 1181 414 1154 q 496 1207 461 1207 q 553 1181 528 1207 q 578 1115 578 1154 q 553 1050 578 1076 q 496 1024 528 1024 q 438 1050 461 1024 q 414 1115 414 1076 m 179 1115 q 203 1181 179 1154 q 261 1207 228 1207 q 319 1181 293 1207 q 344 1115 344 1154 q 319 1050 344 1076 q 261 1024 293 1024 q 203 1050 228 1024 q 179 1115 179 1076 z "},"Ź":{"ha":739,"x_min":49,"x_max":690,"o":"m 49 0 m 225 129 l 632 129 q 690 64 690 129 q 632 0 690 0 l 129 0 q 77 19 94 0 q 60 68 60 38 q 78 122 60 96 l 513 807 l 108 807 q 49 872 49 807 q 108 938 49 938 l 610 938 q 662 915 646 938 q 678 864 678 892 q 664 814 678 836 l 225 129 m 425 1219 q 471 1246 447 1246 q 515 1226 494 1246 q 535 1179 535 1207 q 521 1140 535 1154 l 413 1000 q 367 975 393 975 q 324 994 343 975 q 304 1040 304 1014 q 318 1081 304 1063 l 425 1219 z "},"ź":{"ha":613,"x_min":54,"x_max":558,"o":"m 54 0 m 251 129 l 500 129 q 558 64 558 129 q 500 0 558 0 l 135 0 q 83 21 103 0 q 64 71 64 42 q 69 99 64 86 q 86 126 74 113 l 361 428 l 114 428 q 54 492 54 428 q 114 557 54 557 l 476 557 q 530 534 511 557 q 549 483 549 511 q 529 431 549 454 l 251 129 m 361 839 q 407 865 383 865 q 451 846 431 865 q 471 799 471 826 q 457 760 471 774 l 349 619 q 303 594 329 594 q 260 614 279 594 q 240 660 240 633 q 254 700 240 682 l 361 839 z "},"Ż":{"ha":739,"x_min":49,"x_max":690,"o":"m 49 0 m 225 129 l 632 129 q 690 64 690 129 q 632 0 690 0 l 129 0 q 77 19 94 0 q 60 68 60 38 q 78 122 60 96 l 513 807 l 108 807 q 49 872 49 807 q 108 938 49 938 l 610 938 q 662 915 646 938 q 678 864 678 892 q 664 814 678 836 l 225 129 m 299 1115 q 323 1181 299 1154 q 381 1207 347 1207 q 438 1181 413 1207 q 464 1115 464 1154 q 438 1050 464 1076 q 381 1024 413 1024 q 323 1050 347 1024 q 299 1115 299 1076 z "},"ż":{"ha":613,"x_min":54,"x_max":558,"o":"m 54 0 m 251 129 l 500 129 q 558 64 558 129 q 500 0 558 0 l 135 0 q 83 21 103 0 q 64 71 64 42 q 69 99 64 86 q 86 126 74 113 l 361 428 l 114 428 q 54 492 54 428 q 114 557 54 557 l 476 557 q 530 534 511 557 q 549 483 549 511 q 529 431 549 454 l 251 129 m 235 735 q 259 800 235 774 q 317 826 283 826 q 374 800 349 826 q 400 735 400 774 q 374 669 400 696 q 317 643 349 643 q 259 669 283 643 q 235 735 235 696 z "},"Ž":{"ha":739,"x_min":49,"x_max":690,"o":"m 49 0 m 225 129 l 632 129 q 690 64 690 129 q 632 0 690 0 l 129 0 q 77 19 94 0 q 60 68 60 38 q 78 122 60 96 l 513 807 l 108 807 q 49 872 49 807 q 108 938 49 938 l 610 938 q 662 915 646 938 q 678 864 678 892 q 664 814 678 836 l 225 129 m 224 1140 q 210 1181 210 1158 q 229 1226 210 1207 q 272 1246 249 1246 q 297 1240 285 1246 q 319 1221 310 1235 l 378 1135 l 436 1221 q 458 1240 446 1235 q 482 1246 471 1246 q 525 1226 506 1246 q 544 1181 544 1207 q 531 1140 544 1158 l 424 1001 q 378 975 403 975 q 331 1001 353 975 l 224 1140 z "},"ž":{"ha":613,"x_min":54,"x_max":558,"o":"m 54 0 m 251 129 l 500 129 q 558 64 558 129 q 500 0 558 0 l 135 0 q 83 21 103 0 q 64 71 64 42 q 69 99 64 86 q 86 126 74 113 l 361 428 l 114 428 q 54 492 54 428 q 114 557 54 557 l 476 557 q 530 534 511 557 q 549 483 549 511 q 529 431 549 454 l 251 129 m 160 760 q 146 800 146 778 q 165 846 146 826 q 208 865 185 865 q 233 860 221 865 q 256 840 246 854 l 314 754 l 372 840 q 394 860 382 854 q 418 865 407 865 q 461 846 442 865 q 481 800 481 826 q 467 760 481 778 l 360 621 q 314 594 339 594 q 267 621 289 594 l 160 760 z "},"ƒ":{"ha":690,"x_min":17,"x_max":672,"o":"m 285 557 l 285 713 q 335 888 285 825 q 483 950 386 950 q 555 935 521 950 q 615 896 589 921 q 656 836 640 871 q 672 763 672 801 q 657 715 672 731 q 618 699 642 699 q 561 749 574 699 q 540 800 554 779 q 483 821 525 821 q 404 713 404 821 l 404 557 l 485 557 q 544 492 544 557 q 485 429 544 429 l 404 429 l 404 -157 q 353 -331 404 -269 q 206 -393 303 -393 q 134 -378 168 -393 q 74 -339 100 -364 q 33 -280 49 -314 q 17 -206 17 -246 q 32 -158 17 -175 q 71 -142 47 -142 q 126 -192 115 -142 q 148 -243 133 -222 q 206 -264 163 -264 q 285 -157 285 -264 l 285 429 l 232 429 q 172 493 172 429 q 232 557 172 557 l 285 557 z "},"Ș":{"ha":639,"x_min":64,"x_max":578,"o":"m 64 0 m 324 -14 q 242 -2 279 -14 q 175 32 206 10 q 119 87 143 56 q 76 154 96 118 q 67 181 71 167 q 64 208 64 194 q 81 256 64 240 q 122 272 99 272 q 153 263 139 272 q 176 229 167 253 q 231 145 199 171 q 324 119 264 119 q 426 160 393 119 q 458 254 458 200 q 449 313 458 283 q 419 364 439 343 q 328 438 382 404 q 229 511 275 472 q 136 615 165 564 q 107 728 107 665 q 124 817 107 776 q 169 888 140 858 q 238 933 199 917 q 325 950 278 950 q 393 940 361 950 q 451 911 425 929 q 510 853 486 888 q 533 779 533 819 q 516 735 533 751 q 478 718 499 718 q 425 757 443 718 q 386 803 410 786 q 326 821 363 821 q 253 797 279 821 q 228 729 228 774 q 243 674 228 699 q 300 615 258 649 q 352 576 324 596 q 409 535 381 556 q 464 494 438 515 q 511 449 490 472 q 561 367 544 411 q 578 251 578 322 q 560 150 578 199 q 510 65 543 101 q 429 8 476 29 q 324 -14 382 -14 m 417 -154 q 406 -229 417 -193 q 376 -294 394 -265 q 332 -339 357 -322 q 281 -356 307 -356 q 249 -344 257 -356 q 242 -322 242 -333 q 253 -290 242 -301 q 265 -264 265 -278 q 262 -233 265 -246 q 253 -209 258 -221 q 245 -185 249 -197 q 242 -153 242 -172 q 266 -76 242 -101 q 329 -50 290 -50 q 392 -79 367 -50 q 417 -154 417 -108 z "},"ș":{"ha":531,"x_min":64,"x_max":472,"o":"m 64 0 m 472 174 q 459 102 472 136 q 421 42 446 68 q 360 1 396 17 q 278 -14 324 -14 q 201 -2 239 -14 q 133 35 163 10 q 80 103 96 67 q 64 175 64 139 q 79 220 64 203 q 122 238 94 238 q 166 224 151 238 q 186 179 181 210 q 213 128 192 150 q 278 106 235 106 q 335 126 318 106 q 353 171 353 146 q 315 213 353 197 q 251 233 283 224 q 186 257 218 243 q 115 314 138 279 q 93 407 93 349 q 140 524 93 478 q 275 569 188 569 q 373 549 333 569 q 429 510 413 529 q 449 478 444 493 q 454 447 454 464 q 437 401 454 418 q 396 383 419 383 q 339 415 358 383 q 311 445 328 433 q 271 457 294 457 q 213 407 213 457 q 219 383 213 392 q 250 364 226 374 q 287 351 265 358 q 331 336 308 344 q 376 319 354 328 q 413 300 397 310 q 472 174 472 263 m 369 -154 q 358 -229 369 -193 q 328 -294 347 -265 q 285 -339 310 -322 q 233 -356 260 -356 q 202 -344 210 -356 q 194 -322 194 -333 q 206 -290 194 -301 q 218 -264 218 -278 q 215 -233 218 -246 q 206 -209 211 -221 q 198 -185 201 -197 q 194 -153 194 -172 q 219 -76 194 -101 q 282 -50 243 -50 q 344 -79 319 -50 q 369 -154 369 -108 z "},"Ț":{"ha":761,"x_min":33,"x_max":728,"o":"m 33 0 m 728 874 q 671 807 728 807 l 442 807 l 442 67 q 381 0 442 0 q 322 67 322 0 l 322 807 l 92 807 q 33 874 33 807 q 92 938 33 938 l 671 938 q 728 874 728 938 m 475 -154 q 464 -229 475 -193 q 434 -294 453 -265 q 390 -339 415 -322 q 339 -356 365 -356 q 308 -344 315 -356 q 300 -322 300 -333 q 312 -290 300 -301 q 324 -264 324 -278 q 320 -233 324 -246 q 312 -209 317 -221 q 303 -185 307 -197 q 300 -153 300 -172 q 324 -76 300 -101 q 388 -50 349 -50 q 450 -79 425 -50 q 475 -154 475 -108 z "},"ț":{"ha":460,"x_min":28,"x_max":432,"o":"m 28 0 m 432 492 q 374 429 432 429 l 286 429 l 286 67 q 225 0 286 0 q 167 67 167 0 l 167 429 l 88 429 q 28 492 28 429 q 88 557 28 557 l 167 557 l 167 669 q 225 733 167 733 q 286 669 286 733 l 286 557 l 374 557 q 432 492 432 557 m 317 -154 q 306 -229 317 -193 q 276 -294 294 -265 q 232 -339 257 -322 q 181 -356 207 -356 q 149 -344 157 -356 q 142 -322 142 -333 q 153 -290 142 -301 q 165 -264 165 -278 q 162 -233 165 -246 q 153 -209 158 -221 q 145 -185 149 -197 q 142 -153 142 -172 q 166 -76 142 -101 q 229 -50 190 -50 q 292 -79 267 -50 q 317 -154 317 -108 z "},"ˆ":{"ha":524,"x_min":94,"x_max":429,"o":"m 415 700 q 429 660 429 682 q 410 614 429 633 q 367 594 390 594 q 342 600 354 594 q 319 619 329 606 l 261 706 l 203 619 q 181 600 193 606 q 157 594 168 594 q 114 614 133 594 q 94 660 94 633 q 108 700 94 682 l 215 839 q 261 865 236 865 q 308 839 286 865 l 415 700 z "},"ˇ":{"ha":524,"x_min":94,"x_max":429,"o":"m 108 760 q 94 800 94 778 q 114 846 94 826 q 157 865 133 865 q 182 860 169 865 q 204 840 194 854 l 263 754 l 321 840 q 343 860 331 854 q 367 865 356 865 q 410 846 390 865 q 429 800 429 826 q 415 760 429 778 l 308 621 q 263 594 288 594 q 215 621 238 594 l 108 760 z "},"˘":{"ha":568,"x_min":94,"x_max":474,"o":"m 94 801 q 110 849 94 832 q 149 865 125 865 q 206 815 194 865 q 233 751 217 771 q 283 732 249 732 q 335 751 318 732 q 363 815 351 771 q 418 865 378 865 q 458 849 442 865 q 474 801 474 832 q 458 726 474 761 q 415 667 442 692 q 355 627 389 642 q 283 613 321 613 q 212 627 246 613 q 152 667 178 642 q 110 726 126 692 q 94 801 94 761 z "},"˙":{"ha":354,"x_min":94,"x_max":260,"o":"m 94 735 q 119 800 94 774 q 176 826 143 826 q 234 800 208 826 q 260 735 260 774 q 234 669 260 696 q 176 643 208 643 q 119 669 143 643 q 94 735 94 696 z "},"˚":{"ha":432,"x_min":78,"x_max":353,"o":"m 78 724 q 88 778 78 753 q 117 824 99 804 q 161 854 136 843 q 215 865 186 865 q 268 854 243 865 q 312 824 293 843 q 342 778 331 804 q 353 724 353 753 q 342 668 353 694 q 312 623 331 642 q 268 593 293 604 q 215 582 243 582 q 161 593 186 582 q 117 623 136 604 q 88 668 99 642 q 78 724 78 694 m 158 724 q 175 683 158 700 q 215 667 192 667 q 256 683 239 667 q 274 724 274 700 q 256 765 274 747 q 215 782 239 782 q 175 765 192 782 q 158 724 158 747 z "},"˛":{"ha":419,"x_min":31,"x_max":388,"o":"m 31 -199 q 70 -70 31 -128 q 169 28 110 -12 q 256 77 218 60 q 313 94 293 94 q 342 85 331 94 q 353 54 353 75 q 344 22 353 32 q 318 3 336 11 q 189 -81 229 -37 q 149 -192 149 -124 q 176 -247 149 -228 q 239 -265 203 -265 q 287 -257 263 -265 q 329 -249 311 -249 q 374 -266 361 -249 q 388 -308 388 -283 q 371 -346 388 -331 q 331 -372 354 -361 q 281 -387 307 -382 q 235 -392 254 -392 q 162 -380 199 -392 q 96 -344 125 -368 q 49 -285 67 -321 q 31 -199 31 -249 z "},"˜":{"ha":597,"x_min":94,"x_max":503,"o":"m 389 781 q 406 826 389 810 q 447 842 424 842 q 485 828 467 842 q 503 782 503 814 q 466 672 503 707 q 378 638 429 638 q 307 656 335 638 q 260 701 279 674 q 240 726 246 721 q 224 732 235 732 q 207 703 207 732 q 189 657 207 672 q 150 642 171 642 q 110 656 126 642 q 94 701 94 669 q 131 811 94 776 q 221 846 168 846 q 290 826 264 846 q 338 781 315 807 q 360 756 354 761 q 376 750 367 750 q 389 781 389 750 z "},"˝":{"ha":622,"x_min":81,"x_max":542,"o":"m 432 839 q 478 865 454 865 q 522 846 501 865 q 542 799 542 826 q 528 760 542 774 l 419 619 q 374 594 400 594 q 331 614 350 594 q 311 660 311 633 q 325 700 311 682 l 432 839 m 201 839 q 247 865 224 865 q 291 846 271 865 q 311 799 311 826 q 297 760 311 774 l 189 619 q 143 594 169 594 q 100 614 119 594 q 81 660 81 633 q 94 700 81 682 l 201 839 z "},"Δ":{"ha":796,"x_min":32,"x_max":764,"o":"m 96 0 q 47 19 61 0 q 32 60 32 38 q 38 90 32 79 l 333 889 q 360 926 343 914 q 397 938 378 938 q 435 925 418 938 q 461 889 453 913 l 757 90 q 764 60 764 72 q 750 19 764 38 q 700 0 736 0 l 96 0 m 179 129 l 615 129 l 397 711 l 179 129 z "},"Ω":{"ha":961,"x_min":69,"x_max":892,"o":"m 481 950 q 640 928 565 950 q 772 859 715 906 q 860 740 828 813 q 892 567 892 667 q 876 449 892 504 q 831 343 860 394 q 760 240 801 292 q 667 129 718 188 l 826 129 q 868 110 854 129 q 882 65 882 90 q 867 21 882 42 q 824 0 853 0 l 610 0 q 547 20 572 4 q 521 76 521 36 q 531 134 521 113 q 564 179 540 156 q 648 272 610 226 q 715 364 686 317 q 758 461 743 411 q 774 568 774 511 q 752 680 774 632 q 692 759 731 728 q 600 806 654 790 q 481 821 546 821 q 361 806 415 821 q 269 759 307 790 q 209 680 231 728 q 188 568 188 632 q 203 461 188 511 q 247 364 218 411 q 313 272 275 317 q 397 179 351 226 q 431 134 421 156 q 440 76 440 113 q 415 20 440 36 q 351 0 389 4 l 138 0 q 94 21 108 0 q 79 65 79 42 q 93 110 79 90 q 135 129 107 129 l 294 129 q 200 240 242 188 q 129 343 158 292 q 85 449 100 394 q 69 567 69 504 q 101 740 69 667 q 190 859 133 813 q 320 928 246 906 q 481 950 394 950 z "},"μ":{"ha":636,"x_min":94,"x_max":542,"o":"m 214 -340 q 156 -407 214 -407 q 94 -340 94 -407 l 94 493 q 156 557 94 557 q 201 542 188 557 q 214 493 214 526 l 214 231 q 238 146 214 175 q 314 117 261 117 q 393 149 364 117 q 422 231 422 182 l 422 493 q 483 557 422 557 q 542 493 542 557 l 542 63 q 483 0 542 0 q 429 26 443 0 q 306 -14 381 -14 q 214 3 253 -14 l 214 -340 z "},"π":{"ha":703,"x_min":46,"x_max":679,"o":"m 610 493 q 553 428 610 428 l 493 428 l 493 190 q 500 140 493 160 q 532 121 507 121 q 569 150 558 121 q 619 193 586 193 q 663 176 647 193 q 679 131 679 160 q 670 89 679 108 q 650 54 661 69 q 595 8 626 24 q 532 -7 564 -7 q 411 42 449 -7 q 374 171 374 90 l 374 428 l 253 428 l 253 233 q 183 28 253 110 q 156 5 168 10 q 132 0 143 0 q 92 17 108 0 q 75 60 75 35 q 77 81 75 71 q 88 103 79 92 q 133 231 133 158 l 133 428 l 104 428 q 46 493 46 428 q 104 557 46 557 l 553 557 q 610 493 610 557 z "},"Ẁ":{"ha":1410,"x_min":32,"x_max":1378,"o":"m 32 0 m 1263 893 q 1315 938 1279 938 q 1360 918 1343 938 q 1378 876 1378 899 q 1372 847 1378 860 l 1076 47 q 1049 12 1067 24 q 1013 0 1032 0 q 975 12 992 0 q 949 49 958 24 l 706 706 l 461 47 q 434 12 451 24 q 397 0 417 0 q 360 12 376 0 q 333 49 343 24 l 38 846 q 32 876 32 857 q 49 918 32 899 q 96 938 67 938 q 147 893 131 938 l 397 226 l 647 893 q 668 927 656 917 q 707 938 681 938 q 742 926 729 938 q 763 893 754 914 l 1013 226 l 1263 893 m 772 1081 q 786 1040 786 1063 q 767 994 786 1014 q 724 975 747 975 q 700 981 713 975 q 678 1000 688 988 l 569 1140 q 556 1179 556 1154 q 576 1226 556 1207 q 619 1246 596 1246 q 665 1219 643 1246 l 772 1081 z "},"ẁ":{"ha":967,"x_min":32,"x_max":935,"o":"m 32 0 m 288 0 q 253 12 271 0 q 224 47 235 24 l 38 464 q 32 494 32 475 q 51 540 32 524 q 92 557 69 557 q 122 548 107 557 q 144 519 136 539 l 288 189 l 429 519 q 452 548 438 539 q 483 557 467 557 q 513 548 499 557 q 536 519 528 539 l 679 189 l 821 519 q 844 548 829 539 q 875 557 858 557 q 916 540 897 557 q 935 494 935 524 q 928 464 935 478 l 743 47 q 714 12 732 24 q 679 0 696 0 q 644 12 663 0 q 615 47 626 24 l 483 346 l 351 47 q 322 12 340 24 q 288 0 304 0 m 550 700 q 564 660 564 682 q 544 614 564 633 q 501 594 525 594 q 478 601 490 594 q 456 619 465 607 l 347 760 q 333 799 333 774 q 353 846 333 826 q 397 865 374 865 q 443 839 421 865 l 550 700 z "},"Ẃ":{"ha":1410,"x_min":32,"x_max":1378,"o":"m 32 0 m 1263 893 q 1315 938 1279 938 q 1360 918 1343 938 q 1378 876 1378 899 q 1372 847 1378 860 l 1076 47 q 1049 12 1067 24 q 1013 0 1032 0 q 975 12 992 0 q 949 49 958 24 l 706 706 l 461 47 q 434 12 451 24 q 397 0 417 0 q 360 12 376 0 q 333 49 343 24 l 38 846 q 32 876 32 857 q 49 918 32 899 q 96 938 67 938 q 147 893 131 938 l 397 226 l 647 893 q 668 927 656 917 q 707 938 681 938 q 742 926 729 938 q 763 893 754 914 l 1013 226 l 1263 893 m 754 1219 q 800 1246 776 1246 q 844 1226 824 1246 q 864 1179 864 1207 q 850 1140 864 1154 l 742 1000 q 696 975 722 975 q 653 994 672 975 q 633 1040 633 1014 q 647 1081 633 1063 l 754 1219 z "},"ẃ":{"ha":967,"x_min":32,"x_max":935,"o":"m 32 0 m 288 0 q 253 12 271 0 q 224 47 235 24 l 38 464 q 32 494 32 475 q 51 540 32 524 q 92 557 69 557 q 122 548 107 557 q 144 519 136 539 l 288 189 l 429 519 q 452 548 438 539 q 483 557 467 557 q 513 548 499 557 q 536 519 528 539 l 679 189 l 821 519 q 844 548 829 539 q 875 557 858 557 q 916 540 897 557 q 935 494 935 524 q 928 464 935 478 l 743 47 q 714 12 732 24 q 679 0 696 0 q 644 12 663 0 q 615 47 626 24 l 483 346 l 351 47 q 322 12 340 24 q 288 0 304 0 m 532 839 q 578 865 554 865 q 622 846 601 865 q 642 799 642 826 q 628 760 642 774 l 519 619 q 474 594 500 594 q 431 614 450 594 q 411 660 411 633 q 425 700 411 682 l 532 839 z "},"Ẅ":{"ha":1410,"x_min":32,"x_max":1378,"o":"m 32 0 m 1263 893 q 1315 938 1279 938 q 1360 918 1343 938 q 1378 876 1378 899 q 1372 847 1378 860 l 1076 47 q 1049 12 1067 24 q 1013 0 1032 0 q 975 12 992 0 q 949 49 958 24 l 706 706 l 461 47 q 434 12 451 24 q 397 0 417 0 q 360 12 376 0 q 333 49 343 24 l 38 846 q 32 876 32 857 q 49 918 32 899 q 96 938 67 938 q 147 893 131 938 l 397 226 l 647 893 q 668 927 656 917 q 707 938 681 938 q 742 926 729 938 q 763 893 754 914 l 1013 226 l 1263 893 m 744 1115 q 768 1181 744 1154 q 826 1207 792 1207 q 883 1181 858 1207 q 908 1115 908 1154 q 883 1050 908 1076 q 826 1024 858 1024 q 768 1050 792 1024 q 744 1115 744 1076 m 510 1115 q 534 1181 510 1154 q 592 1207 558 1207 q 649 1181 624 1207 q 675 1115 675 1154 q 649 1050 675 1076 q 592 1024 624 1024 q 534 1050 558 1024 q 510 1115 510 1076 z "},"ẅ":{"ha":967,"x_min":32,"x_max":935,"o":"m 32 0 m 288 0 q 253 12 271 0 q 224 47 235 24 l 38 464 q 32 494 32 475 q 51 540 32 524 q 92 557 69 557 q 122 548 107 557 q 144 519 136 539 l 288 189 l 429 519 q 452 548 438 539 q 483 557 467 557 q 513 548 499 557 q 536 519 528 539 l 679 189 l 821 519 q 844 548 829 539 q 875 557 858 557 q 916 540 897 557 q 935 494 935 524 q 928 464 935 478 l 743 47 q 714 12 732 24 q 679 0 696 0 q 644 12 663 0 q 615 47 626 24 l 483 346 l 351 47 q 322 12 340 24 q 288 0 304 0 m 522 735 q 546 800 522 774 q 604 826 569 826 q 661 800 636 826 q 686 735 686 774 q 661 669 686 696 q 604 643 636 643 q 546 669 569 643 q 522 735 522 696 m 288 735 q 312 800 288 774 q 369 826 336 826 q 427 800 401 826 q 453 735 453 774 q 427 669 453 696 q 369 643 401 643 q 312 669 336 643 q 288 735 288 696 z "},"Ỳ":{"ha":751,"x_min":32,"x_max":719,"o":"m 32 0 m 375 0 q 315 65 315 0 l 315 444 l 44 835 q 32 875 32 853 q 50 920 32 903 q 92 938 68 938 q 140 908 119 938 l 375 576 l 610 908 q 634 931 621 924 q 660 938 647 938 q 701 920 683 938 q 719 875 719 903 q 707 835 719 853 l 435 444 l 435 65 q 375 0 435 0 m 442 1081 q 456 1040 456 1063 q 436 994 456 1014 q 393 975 417 975 q 369 981 382 975 q 347 1000 357 988 l 239 1140 q 225 1179 225 1154 q 245 1226 225 1207 q 289 1246 265 1246 q 335 1219 313 1246 l 442 1081 z "},"ỳ":{"ha":565,"x_min":32,"x_max":533,"o":"m 32 0 m 474 557 q 515 540 496 557 q 533 496 533 522 q 528 468 533 481 l 153 -371 q 130 -399 143 -392 q 101 -407 117 -407 q 61 -390 79 -407 q 43 -343 43 -372 q 49 -312 43 -324 l 224 81 l 39 464 q 32 494 32 481 q 51 540 32 524 q 92 557 69 557 q 121 549 107 557 q 144 521 135 540 l 290 217 l 425 524 q 474 557 439 557 m 357 700 q 371 660 371 682 q 351 614 371 633 q 308 594 332 594 q 285 601 297 594 q 263 619 272 607 l 154 760 q 140 799 140 774 q 160 846 140 826 q 204 865 181 865 q 250 839 228 865 l 357 700 z "},"–":{"ha":699,"x_min":32,"x_max":667,"o":"m 607 531 q 667 467 667 531 q 607 403 667 403 l 92 403 q 32 468 32 403 q 92 531 32 531 l 607 531 z "},"—":{"ha":957,"x_min":32,"x_max":925,"o":"m 865 531 q 925 467 925 531 q 865 403 925 403 l 92 403 q 32 468 32 403 q 92 531 32 531 l 865 531 z "},"‘":{"ha":314,"x_min":69,"x_max":244,"o":"m 69 778 q 81 853 69 817 q 110 917 92 889 q 153 962 129 944 q 206 979 178 979 q 237 968 229 979 q 244 946 244 957 q 233 913 244 925 q 221 888 221 901 q 224 857 221 869 q 233 833 228 844 q 241 808 238 821 q 244 776 244 794 q 220 699 244 725 q 157 674 196 674 q 94 703 119 674 q 69 778 69 732 z "},"’":{"ha":314,"x_min":69,"x_max":244,"o":"m 244 875 q 233 800 244 836 q 203 735 222 764 q 160 690 185 707 q 108 674 135 674 q 77 685 85 674 q 69 707 69 696 q 81 740 69 728 q 93 765 93 751 q 90 796 93 783 q 81 820 86 808 q 73 844 76 832 q 69 876 69 857 q 94 953 69 928 q 157 979 118 979 q 219 950 194 979 q 244 875 244 921 z "},"‚":{"ha":314,"x_min":69,"x_max":244,"o":"m 244 110 q 233 35 244 71 q 203 -30 222 -1 q 160 -75 185 -58 q 108 -92 135 -92 q 77 -81 85 -92 q 69 -58 69 -69 q 81 -26 69 -37 q 93 0 93 -14 q 90 31 93 18 q 81 55 86 43 q 73 79 76 67 q 69 111 69 92 q 94 188 69 163 q 157 214 118 214 q 219 185 194 214 q 244 110 244 156 z "},"“":{"ha":528,"x_min":69,"x_max":458,"o":"m 69 674 m 69 778 q 81 853 69 817 q 110 917 92 889 q 153 962 129 944 q 206 979 178 979 q 237 968 229 979 q 244 946 244 957 q 233 913 244 925 q 221 888 221 901 q 224 857 221 869 q 233 833 228 844 q 241 808 238 821 q 244 776 244 794 q 220 699 244 725 q 157 674 196 674 q 94 703 119 674 q 69 778 69 732 m 283 778 q 294 853 283 817 q 324 917 306 889 q 367 962 343 944 q 419 979 392 979 q 451 968 443 979 q 458 946 458 957 q 447 913 458 925 q 435 888 435 901 q 438 857 435 869 q 447 833 442 844 q 455 808 451 821 q 458 776 458 794 q 434 699 458 725 q 371 674 410 674 q 308 703 333 674 q 283 778 283 732 z "},"”":{"ha":528,"x_min":69,"x_max":458,"o":"m 69 674 m 244 875 q 233 800 244 836 q 203 735 222 764 q 160 690 185 707 q 108 674 135 674 q 77 685 85 674 q 69 707 69 696 q 81 740 69 728 q 93 765 93 751 q 90 796 93 783 q 81 820 86 808 q 73 844 76 832 q 69 876 69 857 q 94 953 69 928 q 157 979 118 979 q 219 950 194 979 q 244 875 244 921 m 458 875 q 447 800 458 836 q 417 735 436 764 q 374 690 399 707 q 322 674 349 674 q 291 685 299 674 q 283 707 283 696 q 295 740 283 728 q 307 765 307 751 q 303 796 307 783 q 295 820 300 808 q 287 844 290 832 q 283 876 283 857 q 308 953 283 928 q 371 979 332 979 q 433 950 408 979 q 458 875 458 921 z "},"„":{"ha":528,"x_min":69,"x_max":458,"o":"m 69 0 m 244 110 q 233 35 244 71 q 203 -30 222 -1 q 160 -75 185 -58 q 108 -92 135 -92 q 77 -81 85 -92 q 69 -58 69 -69 q 81 -26 69 -37 q 93 0 93 -14 q 90 31 93 18 q 81 55 86 43 q 73 79 76 67 q 69 111 69 92 q 94 188 69 163 q 157 214 118 214 q 219 185 194 214 q 244 110 244 156 m 458 110 q 447 35 458 71 q 417 -30 436 -1 q 374 -75 399 -58 q 322 -92 349 -92 q 291 -81 299 -92 q 283 -58 283 -69 q 295 -26 283 -37 q 307 0 307 -14 q 303 31 307 18 q 295 55 300 43 q 287 79 290 67 q 283 111 283 92 q 308 188 283 163 q 371 214 332 214 q 433 185 408 214 q 458 110 458 156 z "},"†":{"ha":732,"x_min":94,"x_max":638,"o":"m 306 728 l 306 874 q 367 938 306 938 q 426 874 426 938 l 426 728 l 578 728 q 638 663 638 728 q 578 599 638 599 l 426 599 l 426 63 q 365 0 426 0 q 306 63 306 0 l 306 599 l 154 599 q 94 664 94 599 q 154 728 94 728 l 306 728 z "},"‡":{"ha":732,"x_min":94,"x_max":638,"o":"m 154 210 q 94 274 94 210 q 154 338 94 338 l 306 338 l 306 599 l 154 599 q 94 664 94 599 q 154 728 94 728 l 306 728 l 306 874 q 367 938 306 938 q 426 874 426 938 l 426 728 l 578 728 q 638 663 638 728 q 578 599 638 599 l 426 599 l 426 338 l 578 338 q 638 275 638 338 q 578 210 638 210 l 426 210 l 426 63 q 365 0 426 0 q 306 63 306 0 l 306 210 l 154 210 z "},"•":{"ha":444,"x_min":72,"x_max":372,"o":"m 372 469 q 330 347 372 390 q 221 304 288 304 q 115 347 158 304 q 72 469 72 390 q 115 592 72 549 q 221 635 158 635 q 330 592 288 635 q 372 469 372 549 z "},"…":{"ha":947,"x_min":86,"x_max":861,"o":"m 86 0 m 86 93 q 113 163 86 133 q 175 192 139 192 q 238 163 211 192 q 264 93 264 133 q 238 23 264 51 q 175 -6 211 -6 q 113 23 139 -6 q 86 93 86 51 m 385 93 q 411 163 385 133 q 474 192 438 192 q 536 163 510 192 q 563 93 563 133 q 536 23 563 51 q 474 -6 510 -6 q 411 23 438 -6 q 385 93 385 51 m 683 93 q 710 163 683 133 q 772 192 736 192 q 835 163 808 192 q 861 93 861 133 q 835 23 861 51 q 772 -6 808 -6 q 710 23 736 -6 q 683 93 683 51 z "},"‰":{"ha":1421,"x_min":33,"x_max":1390,"o":"m 33 0 m 444 681 q 429 574 444 625 q 387 484 414 524 q 322 421 360 444 q 239 397 285 397 q 155 421 193 397 q 90 484 117 444 q 48 574 63 524 q 33 681 33 625 q 48 786 33 735 q 90 876 63 838 q 155 939 117 915 q 239 963 193 963 q 322 939 285 963 q 387 876 360 915 q 429 786 414 838 q 444 681 444 735 m 239 511 q 280 525 261 511 q 312 562 299 539 q 332 616 325 585 q 339 681 339 647 q 332 744 339 714 q 312 798 325 775 q 280 835 299 821 q 239 849 261 849 q 197 835 215 849 q 165 798 178 821 q 144 744 151 775 q 138 681 138 714 q 144 616 138 647 q 165 562 151 585 q 197 525 178 539 q 239 511 215 511 m 294 29 q 274 7 286 14 q 249 0 261 0 q 209 19 225 0 q 193 57 193 38 q 201 89 193 74 l 681 906 q 726 938 700 938 q 765 919 750 938 q 781 882 781 901 q 779 865 781 874 q 771 846 778 857 l 294 29 m 947 263 q 932 156 947 207 q 890 66 917 106 q 825 3 863 26 q 742 -21 788 -21 q 658 3 696 -21 q 592 66 619 26 q 551 156 565 106 q 536 263 536 207 q 551 368 536 317 q 592 458 565 419 q 658 521 619 497 q 742 544 696 544 q 825 521 788 544 q 890 458 863 497 q 932 368 917 419 q 947 263 947 317 m 742 93 q 783 107 764 93 q 815 144 801 121 q 835 198 828 167 q 842 263 842 229 q 835 326 842 296 q 815 380 828 357 q 783 417 801 403 q 742 431 764 431 q 699 417 718 431 q 667 380 681 403 q 647 326 654 357 q 640 263 640 296 q 647 198 640 229 q 667 144 654 167 q 699 107 681 121 q 742 93 718 93 m 1390 263 q 1375 156 1390 207 q 1333 66 1360 106 q 1268 3 1306 26 q 1185 -21 1231 -21 q 1101 3 1139 -21 q 1035 66 1063 26 q 994 156 1008 106 q 979 263 979 207 q 994 368 979 317 q 1035 458 1008 419 q 1101 521 1063 497 q 1185 544 1139 544 q 1268 521 1231 544 q 1333 458 1306 497 q 1375 368 1360 419 q 1390 263 1390 317 m 1185 93 q 1226 107 1207 93 q 1258 144 1244 121 q 1278 198 1271 167 q 1285 263 1285 229 q 1278 326 1285 296 q 1258 380 1271 357 q 1226 417 1244 403 q 1185 431 1207 431 q 1142 417 1161 431 q 1110 380 1124 403 q 1090 326 1097 357 q 1083 263 1083 296 q 1090 198 1083 229 q 1110 144 1097 167 q 1142 107 1124 121 q 1185 93 1161 93 z "},"‹":{"ha":335,"x_min":32,"x_max":303,"o":"m 293 99 q 303 61 303 85 q 285 17 303 33 q 243 0 267 0 q 192 32 214 0 l 42 275 q 35 290 38 282 q 32 310 32 299 q 42 344 32 331 l 192 588 q 243 618 213 618 q 285 601 267 618 q 303 556 303 583 q 293 521 303 536 l 164 310 l 293 99 z "},"›":{"ha":335,"x_min":32,"x_max":303,"o":"m 171 310 l 42 521 q 32 556 32 536 q 50 601 32 583 q 92 618 68 618 q 143 588 122 618 l 293 344 q 303 310 303 331 q 300 290 303 299 q 293 275 297 282 l 143 32 q 92 0 121 0 q 50 17 68 0 q 32 61 32 33 q 42 99 32 85 l 171 310 z "},"⁄":{"ha":357,"x_min":-117,"x_max":471,"o":"m -15 29 q -36 7 -24 14 q -61 0 -49 0 q -101 19 -85 0 q -117 57 -117 38 q -108 89 -117 74 l 371 906 q 417 938 390 938 q 456 919 440 938 q 471 882 471 901 q 469 865 471 874 q 461 846 468 857 l -15 29 z "},"⁰":{"ha":526,"x_min":61,"x_max":472,"o":"m 61 397 m 472 681 q 457 574 472 625 q 415 484 442 524 q 350 421 388 444 q 267 397 313 397 q 183 421 221 397 q 117 484 144 444 q 76 574 90 524 q 61 681 61 625 q 76 786 61 735 q 117 876 90 838 q 183 939 144 915 q 267 963 221 963 q 350 939 313 963 q 415 876 388 915 q 457 786 442 838 q 472 681 472 735 m 267 511 q 308 525 289 511 q 340 562 326 539 q 360 616 353 585 q 367 681 367 647 q 360 744 367 714 q 340 798 353 775 q 308 835 326 821 q 267 849 289 849 q 224 835 243 849 q 192 798 206 821 q 172 744 179 775 q 165 681 165 714 q 172 616 165 647 q 192 562 179 585 q 224 525 206 539 q 267 511 243 511 z "},"⁴":{"ha":449,"x_min":65,"x_max":408,"o":"m 65 404 m 408 678 q 375 622 408 631 l 375 463 q 324 404 375 404 q 272 463 272 404 l 272 619 l 121 619 q 65 685 65 619 l 65 896 q 117 954 65 954 q 169 896 169 954 l 169 733 l 272 733 l 272 896 q 324 954 272 954 q 375 896 375 954 l 375 732 q 408 678 408 721 z "},"⁵":{"ha":446,"x_min":65,"x_max":399,"o":"m 65 397 m 388 900 q 333 842 388 842 l 168 842 l 168 758 q 242 776 200 776 q 310 761 281 776 q 360 720 340 746 q 389 660 379 694 q 399 586 399 625 q 386 513 399 547 q 351 453 374 479 q 297 413 328 428 q 226 397 265 397 q 159 410 189 397 q 108 442 129 422 q 76 485 88 461 q 65 531 65 508 q 117 588 65 588 q 147 576 136 588 q 164 550 158 565 q 189 517 172 526 q 233 508 206 508 q 279 531 264 508 q 294 588 294 553 q 222 669 294 669 q 190 663 203 669 q 167 648 178 656 q 146 633 157 640 q 119 626 135 626 q 82 642 99 626 q 65 690 65 657 l 65 900 q 115 954 65 954 l 333 954 q 388 900 388 954 z "},"⁶":{"ha":435,"x_min":58,"x_max":389,"o":"m 58 397 m 389 583 q 377 510 389 544 q 343 451 365 476 q 290 412 321 426 q 221 397 260 397 q 102 444 146 397 q 58 582 58 490 q 71 667 58 618 q 106 766 83 715 q 161 863 129 817 q 233 939 193 908 q 256 951 246 949 q 274 954 267 954 q 313 938 299 954 q 328 900 328 921 q 324 876 328 886 q 306 853 321 865 q 251 799 276 829 q 207 736 225 768 q 253 743 228 743 q 315 729 289 743 q 357 692 340 715 q 381 641 374 669 q 389 583 389 613 m 283 578 q 269 622 283 603 q 222 640 254 640 q 178 623 194 640 q 163 578 163 606 q 178 528 163 546 q 221 511 194 511 q 267 531 251 511 q 283 578 283 550 z "}}}
